<?xml version="1.0" encoding="UTF-8" standalone="no"?>
<svg
   width="240"
   height="80"
   viewBox="0 0 63.5 21.167"
   xml:space="preserve"
   version="1.1"
   id="svg27"
   sodipodi:docname="zed-news-podcast-logo.svg"
   inkscape:version="1.2.1 (9c6d41e4, 2022-07-14)"
   xmlns:inkscape="http://www.inkscape.org/namespaces/inkscape"
   xmlns:sodipodi="http://sodipodi.sourceforge.net/DTD/sodipodi-0.dtd"
   xmlns="http://www.w3.org/2000/svg"
   xmlns:svg="http://www.w3.org/2000/svg"><defs
     id="defs31" /><sodipodi:namedview
     id="namedview29"
     pagecolor="#ffffff"
     bordercolor="#000000"
     borderopacity="0.25"
     inkscape:showpageshadow="2"
     inkscape:pageopacity="0.0"
     inkscape:pagecheckerboard="0"
     inkscape:deskcolor="#d1d1d1"
     showgrid="false"
     inkscape:zoom="3.6710627"
     inkscape:cx="119.7201"
     inkscape:cy="46.444317"
     inkscape:window-width="1390"
     inkscape:window-height="1205"
     inkscape:window-x="52"
     inkscape:window-y="25"
     inkscape:window-maximized="0"
     inkscape:current-layer="svg27" /><text
     xml:space="preserve"
     style="font-weight:bold;font-size:10.6158px;font-family:'PT Sans';-inkscape-font-specification:'PT Sans Bold';text-align:end;text-anchor:end;fill:#0a2342;fill-opacity:1;stroke-width:0.884641"
     x="20.230568"
     y="7.616384"
     id="text245"><tspan
       sodipodi:role="line"
       id="tspan243"
       style="text-align:start;text-anchor:start;fill:#0a2342;fill-opacity:1;stroke-width:0.884641"
       x="20.230568"
       y="7.616384">Zed News</tspan><tspan
       sodipodi:role="line"
       style="text-align:start;text-anchor:start;fill:#0a2342;fill-opacity:1;stroke-width:0.884641"
       x="20.230568"
       y="20.886133"
       id="tspan4786">Podcast</tspan></text><g
     id="g326"
     transform="matrix(0.12452457,0,0,0.12452457,27.725664,20.448473)"><g
       id="g3206"
       transform="translate(-22.371185,-57.00244)"><path
         d="M 42,32 H 62 C 62,15.4 48.6,2 32,2 15.4,2 2,15.4 2,32 2,48.6 15.4,62 32,62 V 32 Z"
         fill="#83bf4f"
         id="path299"
         style="fill:#188200;fill-opacity:1" /><path
         d="M 52,54.4 C 58.1,48.9 62,40.9 62,32 H 52 v 22.4"
         fill="#ff8736"
         id="path301"
         style="fill:#e37700;fill-opacity:1" /><path
         d="M 42,32 V 60.3 C 45.7,59 49.1,57 52,54.4 V 32 Z"
         fill="#3e4347"
         id="path303"
         style="fill:#000000;fill-opacity:1" /><path
         d="M 42,32 H 32 v 30 c 3.5,0 6.9,-0.6 10,-1.7 z"
         fill="#c94747"
         id="path305"
         style="fill:#d31e0f;fill-opacity:1" /><g
         fill="#ff8736"
         stroke="#2b2b2b"
         stroke-width="0.25"
         stroke-miterlimit="10"
         id="g311"
         style="fill:#e37700;fill-opacity:1"><path
           d="m 57.5,22.3 c 1.3,-0.7 1.5,-1.4 1.5,-1.4 0,-0.1 -0.9,0.5 -2.5,1.2 2,-1 2,-1.8 1.9,-1.8 -0.3,0 -1.5,0.8 -3.1,1.5 1.4,-0.7 2.1,-1.5 2,-1.6 -0.3,0.3 -3.4,1.5 -3.4,1.5 0.4,-0.2 0.7,-0.7 0.4,-0.7 -0.5,0.4 -2.4,0.7 -3,0.8 -0.4,0.1 -1.5,0.5 -1.8,0.5 -2,-0.1 -2.5,0.1 -2.5,0.1 l 0.1,0.1 H 47 c 0,-0.1 -0.1,-0.1 -0.1,-0.1 -0.3,-0.6 0.1,-0.8 0.3,-0.9 0.2,0 0.2,0 0.4,-0.1 -0.1,0 -0.2,-0.1 -0.3,-0.1 0.2,0 0.5,0 0.4,0.4 0.2,-0.1 0.7,-0.6 -0.6,-0.7 -0.4,-0.4 -2.1,-0.7 -2.6,1.2 0,0 0.1,0 0.2,0.1 -0.5,-0.2 -2,-0.4 -2.5,-0.5 -1.4,-0.4 -2.9,-1.3 -3.1,-1.2 -0.2,0.1 0.9,1 0.8,1 -0.9,-0.5 -1.8,-0.8 -2.5,-1.2 -0.5,-0.2 -1.1,-0.6 -1.2,-0.5 -0.2,0.4 0.9,1.3 1.1,1.5 0.2,0.1 1.8,0.8 1.8,0.8 -2.4,-1 -2.8,-1.2 -2.9,-1.3 -0.2,0 -0.7,-0.7 -0.9,-0.6 -0.1,0.1 0.1,1.1 1.2,1.5 0,0 0.2,0.1 0.3,0.1 L 36.2,21.7 C 35.7,21.5 35.1,20.9 35,21 c -0.1,0.1 0.3,0.7 0.8,1 0.2,0.1 0.6,0.3 1.2,0.5 -0.5,-0.2 -1.1,-0.4 -1.4,-0.5 -0.4,-0.2 -0.5,-0.4 -0.6,-0.4 -0.1,0 0.1,1 2.7,1.6 v 0 c -0.1,0 -0.5,0 -0.5,0.1 0,0.1 0.2,0.4 1.5,0.4 0.2,0 1.1,-0.3 1,-0.2 0,0 -1.3,0.4 -1.4,0.4 -0.1,0 -0.5,0.1 -0.5,0.1 0,0.1 0.3,0.3 1,0.4 0.6,0 1.9,-0.4 1.8,-0.3 l -1.2,0.4 c 0,0 -0.5,0 -0.5,0.1 0,0.1 0.6,0.6 2.5,0 -0.2,0.2 -1.1,0.4 -1.1,0.4 0,0 0.2,0.2 0.5,0.3 h 0.6 c 0.4,-0.1 0.7,-0.2 1.2,-0.6 0.1,0.1 -1.2,0.7 -1.1,0.8 0.3,0.2 1.2,0 1.2,-0.1 0.1,0 1.8,-0.9 1.7,-1 0,0.1 -2.2,1.2 -2.2,1.3 0.1,0.2 0.9,0 0.9,0 l 1,-0.5 c 0,0 -1.1,0.6 -1,0.7 0,0.3 1.3,-0.1 1.7,-0.3 -0.2,0.1 -0.7,0.4 -0.7,0.5 0.3,0.5 1.3,0.3 1.4,0.2 0.1,-0.1 -0.1,0.3 0,0.3 0,0 0.2,-0.2 0.3,-0.4 0,0.1 -0.1,0.3 -0.2,0.6 -0.1,0.2 -0.1,0.5 -0.2,0.8 0,0.1 0.4,-0.1 0.5,-0.8 0,0.4 -0.2,1 -0.1,1 0,0 0.1,0 0.2,-0.1 v 0.1 c 0,0.1 -0.1,0.5 -0.6,0.5 -0.6,0 -0.6,0.5 -0.6,0.5 0,0 -0.1,0 0,0.3 0.1,-0.2 0.2,-0.2 0.2,-0.2 0.1,0 0.4,0.1 0.8,-0.2 -0.4,0.4 -0.2,0.5 -0.2,0.5 0,0 -0.1,0.3 0.2,0.4 -0.1,-0.1 0,-0.2 0,-0.2 0,0 0.4,0 0.4,-0.5 0,0.4 0.3,0.6 0.3,0.6 0,0 0,0.2 0.3,0.3 -0.2,-0.1 -0.1,-0.3 -0.1,-0.3 0,0 0.4,-0.2 0.1,-0.7 0.1,0 0.1,-0.1 0.2,-0.1 v 0.2 c 0,0.3 0,0.3 0.2,0.5 -0.1,-0.2 0,-0.3 0,-0.3 0,0 0.3,0.1 0.5,-0.2 -0.2,0.4 -0.1,0.5 0,0.5 0,0.1 -0.1,0.4 0.3,0.4 -0.1,-0.1 -0.1,-0.3 -0.1,-0.3 0,0 0.4,-0.1 0.2,-0.7 0.1,-0.1 0.2,0 0.2,0 0,0 0,0.4 0.4,0.3 0.1,0.1 0,0.3 0,0.3 0,0 0.2,0 0.3,-0.2 0.1,-0.2 0.1,-0.5 -0.2,-0.6 0,-0.1 0.1,-0.1 0.1,-0.1 0,0 0.2,0.1 0.3,0.2 0.1,0.1 0,-0.3 -0.3,-0.3 -0.4,0 -0.4,-0.1 -0.4,-0.1 V 28 c 0.3,0.2 0.6,0.2 0.6,0.2 0,-0.1 -0.6,-0.8 -0.5,-0.9 0.2,0 0.4,0.4 0.6,0.3 -0.1,-0.1 -0.3,-0.1 -0.5,-0.4 0,-0.1 -0.1,-0.1 -0.1,-0.2 0,0 0.5,0.5 0.9,0.5 0.2,-0.1 -0.3,-0.4 -0.3,-0.5 0.2,0.2 0.9,0.7 1.4,0.5 0.2,-0.3 -0.3,-0.2 -0.9,-0.9 0.4,0.3 1.4,0.8 1.9,0.6 0.1,-0.1 -0.4,-0.4 -0.8,-0.8 0.2,0.1 0.3,0.2 0.4,0.2 0.5,0.2 1,-0.1 1,-0.1 0,-0.1 -0.2,-0.1 -0.5,-0.2 0.6,0.1 1,0 1.1,-0.1 0,-0.1 -0.1,-0.1 -0.7,-0.2 1.2,0.2 2.2,-0.5 2.2,-0.5 0,0 0.3,-0.1 -0.2,-0.1 3.4,-0.4 4,-1.9 4,-1.9 -0.1,0 -0.7,0.4 -1.5,0.7 1.5,-0.7 2.2,-1.6 2.2,-1.7 C 58.7,21.7 58.2,22 57.5,22.3 Z M 38.1,23 c 0.3,-0.1 0.6,-0.1 0.5,-0.1 0,0 -0.3,0.1 -0.5,0.1 z M 37,21.9 c 0.7,0.3 2,0.7 1.9,0.7 0.1,0.1 -1.1,-0.4 -1.9,-0.7 z m 11.7,3 c -0.1,-0.1 -0.2,-0.3 -0.2,-0.3 0,0.1 0.1,0.2 0.2,0.3 z M 55.2,24 c -1,0.3 -2.2,0.4 -3.7,0 1.5,0.3 2.7,0.2 3.7,0 z m 0.6,-1 c -0.2,0.1 -0.4,0.2 -0.6,0.2 0.2,0 0.4,-0.1 0.6,-0.2 z m -9.6,3.4 v -0.3 z m 1.6,1.5 c 0,0 -0.4,0 -0.7,0.1 -0.1,0 -0.3,-0.1 -0.4,-0.2 -0.1,-0.1 0,-0.7 0,-0.7 l 0.3,0.3 c 0,-0.3 0,-0.3 -0.1,-0.5 0,-0.3 0.1,-0.8 0.1,-1.4 0.5,0.9 0.7,1.3 0.6,2 0.1,0 0.1,-0.1 0.2,-0.2 v 0.5 c 0.1,0 0,0 0,0.1 z m 0.3,-2.7 c 0.1,0.1 0.1,0.1 0,0 z m 7.4,-1.3 c 0.1,0 0.1,0 0.2,-0.1 -0.1,0.1 -0.1,0.1 -0.2,0.1 z"
           id="path307"
           style="fill:#e37700;fill-opacity:1" /><path
           d="m 46.2,27.5 c 0,0 0,0 0,0 z"
           id="path309"
           style="fill:#e37700;fill-opacity:1" /></g></g></g><path
     data-name="Path 20"
     d="m -26.451091,27.315501 a 8.986,8.986 0 1 1 8.986,8.987 8.986,8.986 0 0 1 -8.986,-8.987 z"
     fill="#59d999"
     id="path9" /><g
     data-name="Group 13"
     fill="#293a56"
     id="g21"
     style="fill:#0a2342;fill-opacity:1"
     transform="matrix(1.2977697,0,0,1.2977697,-40.689741,26.164138)"><path
       data-name="Path 21"
       d="m 11.362,8.586 a 0.6,0.6 0 0 0 -1.198,0 3.954,3.954 0 1 1 -7.908,0 0.6,0.6 0 0 0 -1.198,0 5.159,5.159 0 0 0 4.553,5.117 v 1.074 H 3.514 a 0.6,0.6 0 0 0 0,1.198 h 5.392 a 0.6,0.6 0 0 0 0,-1.198 H 6.809 v -1.074 a 5.159,5.159 0 0 0 4.553,-5.117 z"
       id="path11"
       style="fill:#0a2342;fill-opacity:1" /><path
       data-name="Path 22"
       d="M 6.21,11.781 A 3.399,3.399 0 0 0 9.605,8.387 V 3.395 a 3.395,3.395 0 0 0 -6.79,0 V 8.387 A 3.399,3.399 0 0 0 6.21,11.78 Z M 4.014,3.395 a 2.197,2.197 0 0 1 4.393,0 v 4.992 a 2.197,2.197 0 1 1 -4.393,0 z"
       id="path13"
       style="fill:#0a2342;fill-opacity:1" /><path
       data-name="Path 23"
       d="M 6.21,4.593 A 0.6,0.6 0 0 0 6.634,3.57 0.619,0.619 0 0 0 5.787,3.57 0.6,0.6 0 0 0 6.21,4.593 Z"
       id="path15"
       style="fill:#0a2342;fill-opacity:1" /><path
       data-name="Path 24"
       d="M 6.21,6.69 A 0.6,0.6 0 0 0 6.634,5.667 0.619,0.619 0 0 0 5.787,5.667 0.6,0.6 0 0 0 6.21,6.69 Z"
       id="path17"
       style="fill:#0a2342;fill-opacity:1" /><path
       data-name="Path 25"
       d="m 6.21,8.786 a 0.6,0.6 0 0 0 0.424,-1.022 0.619,0.619 0 0 0 -0.847,0 0.6,0.6 0 0 0 0.423,1.022 z"
       id="path19"
       style="fill:#0a2342;fill-opacity:1" /></g><g
     id="g3224"
     transform="matrix(0.37093692,0,0,0.37093692,-0.75049168,35.997818)"><g
       id="g3222"
       transform="translate(0,20.013115)" /></g><g
     id="g3722"
     transform="matrix(0.37093692,0,0,0.37093692,-8.8227591,26.988591)"><g
       id="g3720"
       transform="translate(0,20.013115)" /></g><g
     id="g5011"
     transform="matrix(0.05687166,0,0,0.05687166,-55.983634,69.338051)"><circle
       style="fill:#90dfaa"
       cx="254"
       cy="254"
       r="254"
       id="circle4913" /><path
       style="fill:#324a5e"
       d="m 317.2,400 c 25.6,-88.4 42,-204 42,-238 0,-1.6 0,-3.6 0,-5.2 C 356.8,102.4 310.4,60.4 256,60.4 h -4 c -54.4,0 -100.4,42 -103.2,96.4 0,2 0,3.6 0,5.2 0,34 16.4,149.2 42,238 z"
       id="path4915" /><polygon
       style="fill:#ffd05b"
       points="204,299.2 144.8,406 363.2,406 304,299.2 "
       id="polygon4917" /><path
       style="fill:#ff7058"
       d="m 299.2,389.2 c 0,0 -17.6,90 -38.4,118.8 -1.6,0 -2.8,0 -4.4,0 -0.8,0 -1.6,0 -2.4,0 -0.8,0 -1.6,0 -2.4,0 h -1.2 c -11.6,-22.4 -47.2,-92 -41.6,-118.8 0,0 35.6,25.2 90.4,0 z"
       id="path4919" /><path
       style="fill:#f9b54c"
       d="m 304.8,300.8 c -0.4,-0.4 -0.4,-1.2 -0.8,-1.6 0,0 -0.8,4.4 -6,10.8 -22.4,28 -65.6,28 -88,0 -5.2,-6.4 -6,-10.8 -6,-10.8 -0.4,0.4 -0.4,0.8 -0.8,1.2 2,-3.2 2.8,-6.8 3.2,-10.8 l 1.2,-14.8 v 0 l 3.2,-45.2 h 86.4 l 4.4,60 c 0.4,3.2 1.2,6.4 2.4,9.2 0.4,0.8 0.4,1.6 0.8,2 z"
       id="path4921" /><g
       id="g4927">
	<path
   style="fill:#e6e9ee"
   d="m 246.4,508 c -4.4,0 -8.4,-0.4 -12.8,-0.8 -70.8,-5.6 -133.2,-40 -176,-92 21.2,-41.2 51.2,-44.8 51.2,-44.8 55.2,-26.4 88.4,-64 90.4,-66.4 l -12,26 23.6,101.6 z"
   id="path4923" />
	<path
   style="fill:#e6e9ee"
   d="m 450,415.2 c -16.8,20.4 -36.8,38.4 -59.2,52.8 -37.6,24 -81.6,38.4 -129.2,40 L 296.8,431.6 320.8,330 308,304 c 2,2.4 36,40 91.2,66.4 0,0 1.2,0 3.2,0.8 v 0 c 8.8,2.4 31.2,11.2 47.6,44 z"
   id="path4925" />
</g><g
       id="g4933">
	<path
   style="fill:#ffffff"
   d="m 211.6,396 c 0,0 21.2,60.4 40,112 -6,0 -12,-0.4 -17.6,-0.8 -15.6,-22.4 -32.8,-45.6 -55.2,-57.6 l 7.2,-36.8 h -36 c 14.8,-66.4 51.6,-111.2 54,-113.2 -1.2,2.4 -19.2,38 7.6,96.4 z"
   id="path4929" />
	<path
   style="fill:#ffffff"
   d="m 322.4,412.8 7.2,36.8 c -22.4,12 -39.6,35.2 -55.2,57.6 -4,0.4 -8.4,0.4 -12.4,0.8 -1.6,0 -3.2,0 -5.2,0 18.8,-51.6 39.6,-112 39.6,-112 26.8,-58.4 8.8,-94 7.6,-96.4 2.4,2 39.2,46.8 54,113.2 z"
   id="path4931" />
</g><g
       id="g4939">
	<path
   style="fill:#ffd05b"
   d="m 339.2,172.4 c 0,58.4 -38,131.6 -85.2,131.6 -47.2,0 -85.2,-73.2 -85.2,-131.6 0,-58.4 38,-79.6 85.2,-79.6 47.2,0 85.2,21.6 85.2,79.6 z"
   id="path4935" />
	<path
   style="fill:#ffd05b"
   d="m 351.2,207.2 c -6,13.2 -16.4,20.8 -23.6,17.2 -7.2,-4 -8,-17.6 -2,-31.2 6,-13.2 16.4,-20.8 23.6,-17.2 6.8,4 7.6,18 2,31.2 z"
   id="path4937" />
</g><g
       id="g4949">
	<path
   style="fill:#324a5e"
   d="m 318.8,114 c 0,0 -19.2,39.6 20.4,63.2 l 6.8,-22 -14.8,-43.2 -7.6,-9.2 z"
   id="path4941" />
	<path
   style="fill:#324a5e"
   d="m 328,105.2 c 0,0 -10.8,36 -86.8,64.8 -27.6,10.4 -48.4,34.4 -55.2,63.2 -3.2,14 -6,30 -7.2,47.2 L 163.2,229.2 158,148.4 176,103.2 228,92 Z"
   id="path4943" />
	<polygon
   style="fill:#324a5e"
   points="225.6,99.6 243.2,74.4 302,82 310.4,99.6 270.4,120.4 "
   id="polygon4945" />
	<path
   style="fill:#324a5e"
   d="m 290.8,347.2 h -66.4 c -1.6,0 -3.2,1.6 -2.8,3.2 v 20.4 c 0,1.6 1.2,3.2 3.2,3.2 h 66 c 1.6,0 3.2,-1.6 3.2,-3.2 l 0.4,-20.4 c -0.4,-1.6 -2,-3.2 -3.6,-3.2 z"
   id="path4947" />
</g><path
       style="fill:#ff7058"
       d="m 350,368.4 -3.6,124.8 c -22,7.2 -45.2,12 -69.2,14 -4.8,0.4 -9.6,0.8 -14.8,0.8 H 262 c -1.6,0 -3.2,0 -5.2,0 -0.8,0 -2,0 -2.8,0 -0.8,0 -2,0 -2.8,0 h -1.6 c -1.6,0 -3.2,0 -4.4,0 -4.8,0 -10,-0.4 -14.8,-0.8 -24,-2 -47.2,-6.8 -69.2,-14 L 158,368.4 c 0,-4 2.8,-7.2 6.4,-7.2 h 179.2 c 3.6,0 6.8,3.2 6.4,7.2 z"
       id="path4951" /><g
       id="g4957">
	<path
   style="fill:#f1543f"
   d="m 284,374.4 c 0,2.8 -2.4,5.2 -4.8,5.2 -2.8,0 -4.8,-2.4 -4.8,-5.2 0,-2.8 2.4,-5.2 4.8,-5.2 2.8,0 4.8,2.4 4.8,5.2 z"
   id="path4953" />
	<path
   style="fill:#f1543f"
   d="m 240.8,374.4 c 0,2.8 -2,5.2 -4.8,5.2 -2.8,0 -4.8,-2.4 -4.8,-5.2 0,-2.8 2,-5.2 4.8,-5.2 2.8,0 4.8,2.4 4.8,5.2 z"
   id="path4955" />
</g><path
       style="fill:#2b3b4e"
       d="M 270,259.6 V 256 c 63.2,-1.2 66,-47.2 66,-48 h 3.6 c -0.4,1.2 -2.8,50.8 -69.6,51.6 z"
       id="path4959" /><g
       id="g4973">
	<path
   style="fill:#324a5e"
   d="m 337.6,214.4 v 0 c -4.8,0 -8.4,-3.6 -8.4,-8.4 v -17.6 c 0,-4.8 3.6,-8.4 8.4,-8.4 v 0 c 4.8,0 8.4,3.6 8.4,8.4 V 206 c 0,4.8 -3.6,8.4 -8.4,8.4 z"
   id="path4961" />
	<path
   style="fill:#324a5e"
   d="m 283.2,262 h -18.8 c -2.8,0 -4.8,-2 -4.8,-4.8 v 0 c 0,-2.8 2,-4.8 4.8,-4.8 h 18.8 c 2.8,0 4.8,2 4.8,4.8 v 0 c 0,2.4 -2.4,4.8 -4.8,4.8 z"
   id="path4963" />
	<path
   style="fill:#324a5e"
   d="m 359.2,156.8 c 0,0 -12.4,169.6 26,174 0,0 -17.6,43.2 -53.6,2 -1.2,-1.2 -1.6,-2.8 -2,-4.4 0,0 0,0 0,-0.4 -5.6,-24 -2.8,-48.8 7.6,-70.8 l 16.4,-34.4 2.4,-47.6 z"
   id="path4965" />
	<path
   style="fill:#324a5e"
   d="m 148.8,156.8 c 0,0 12.4,169.6 -26,174 0,0 17.6,43.2 53.6,2 1.2,-1.2 1.6,-2.8 2,-4.4 0,0 0,0 0,-0.4 5.6,-24 2.8,-48.8 -7.6,-70.8 L 154.4,222.8 152,175.2 Z"
   id="path4967" />
	<path
   style="fill:#324a5e"
   d="m 338,290.4 -8.8,-14.8 -24.4,19.2 c 0,0 10.8,29.6 34.8,46.4 l 7.2,-25.6 c -5.6,-7.6 -8.4,-16.4 -8.8,-25.2 z"
   id="path4969" />
	<path
   style="fill:#324a5e"
   d="m 169.6,290.4 8.8,-14.8 25.6,19.2 c 0,0 -12,29.6 -35.6,46.4 l -7.2,-25.6 c 5.6,-7.6 8.4,-16.4 8.4,-25.2 z"
   id="path4971" />
</g></g><g
     id="g5029"
     transform="matrix(0.50411333,0,0,0.50411333,-54.778081,69.579717)"><g
       id="g5027"
       transform="translate(-22.371185,-57.00244)"><path
         d="M 42,32 H 62 C 62,15.4 48.6,2 32,2 15.4,2 2,15.4 2,32 2,48.6 15.4,62 32,62 V 32 Z"
         fill="#83bf4f"
         id="path5013"
         style="fill:#188200;fill-opacity:1" /><path
         d="M 52,54.4 C 58.1,48.9 62,40.9 62,32 H 52 v 22.4"
         fill="#ff8736"
         id="path5015"
         style="fill:#e37700;fill-opacity:1" /><path
         d="M 42,32 V 60.3 C 45.7,59 49.1,57 52,54.4 V 32 Z"
         fill="#3e4347"
         id="path5017"
         style="fill:#000000;fill-opacity:1" /><path
         d="M 42,32 H 32 v 30 c 3.5,0 6.9,-0.6 10,-1.7 z"
         fill="#c94747"
         id="path5019"
         style="fill:#d31e0f;fill-opacity:1" /><g
         fill="#ff8736"
         stroke="#2b2b2b"
         stroke-width="0.25"
         stroke-miterlimit="10"
         id="g5025"
         style="fill:#e37700;fill-opacity:1"><path
           d="m 57.5,22.3 c 1.3,-0.7 1.5,-1.4 1.5,-1.4 0,-0.1 -0.9,0.5 -2.5,1.2 2,-1 2,-1.8 1.9,-1.8 -0.3,0 -1.5,0.8 -3.1,1.5 1.4,-0.7 2.1,-1.5 2,-1.6 -0.3,0.3 -3.4,1.5 -3.4,1.5 0.4,-0.2 0.7,-0.7 0.4,-0.7 -0.5,0.4 -2.4,0.7 -3,0.8 -0.4,0.1 -1.5,0.5 -1.8,0.5 -2,-0.1 -2.5,0.1 -2.5,0.1 l 0.1,0.1 H 47 c 0,-0.1 -0.1,-0.1 -0.1,-0.1 -0.3,-0.6 0.1,-0.8 0.3,-0.9 0.2,0 0.2,0 0.4,-0.1 -0.1,0 -0.2,-0.1 -0.3,-0.1 0.2,0 0.5,0 0.4,0.4 0.2,-0.1 0.7,-0.6 -0.6,-0.7 -0.4,-0.4 -2.1,-0.7 -2.6,1.2 0,0 0.1,0 0.2,0.1 -0.5,-0.2 -2,-0.4 -2.5,-0.5 -1.4,-0.4 -2.9,-1.3 -3.1,-1.2 -0.2,0.1 0.9,1 0.8,1 -0.9,-0.5 -1.8,-0.8 -2.5,-1.2 -0.5,-0.2 -1.1,-0.6 -1.2,-0.5 -0.2,0.4 0.9,1.3 1.1,1.5 0.2,0.1 1.8,0.8 1.8,0.8 -2.4,-1 -2.8,-1.2 -2.9,-1.3 -0.2,0 -0.7,-0.7 -0.9,-0.6 -0.1,0.1 0.1,1.1 1.2,1.5 0,0 0.2,0.1 0.3,0.1 L 36.2,21.7 C 35.7,21.5 35.1,20.9 35,21 c -0.1,0.1 0.3,0.7 0.8,1 0.2,0.1 0.6,0.3 1.2,0.5 -0.5,-0.2 -1.1,-0.4 -1.4,-0.5 -0.4,-0.2 -0.5,-0.4 -0.6,-0.4 -0.1,0 0.1,1 2.7,1.6 v 0 c -0.1,0 -0.5,0 -0.5,0.1 0,0.1 0.2,0.4 1.5,0.4 0.2,0 1.1,-0.3 1,-0.2 0,0 -1.3,0.4 -1.4,0.4 -0.1,0 -0.5,0.1 -0.5,0.1 0,0.1 0.3,0.3 1,0.4 0.6,0 1.9,-0.4 1.8,-0.3 l -1.2,0.4 c 0,0 -0.5,0 -0.5,0.1 0,0.1 0.6,0.6 2.5,0 -0.2,0.2 -1.1,0.4 -1.1,0.4 0,0 0.2,0.2 0.5,0.3 h 0.6 c 0.4,-0.1 0.7,-0.2 1.2,-0.6 0.1,0.1 -1.2,0.7 -1.1,0.8 0.3,0.2 1.2,0 1.2,-0.1 0.1,0 1.8,-0.9 1.7,-1 0,0.1 -2.2,1.2 -2.2,1.3 0.1,0.2 0.9,0 0.9,0 l 1,-0.5 c 0,0 -1.1,0.6 -1,0.7 0,0.3 1.3,-0.1 1.7,-0.3 -0.2,0.1 -0.7,0.4 -0.7,0.5 0.3,0.5 1.3,0.3 1.4,0.2 0.1,-0.1 -0.1,0.3 0,0.3 0,0 0.2,-0.2 0.3,-0.4 0,0.1 -0.1,0.3 -0.2,0.6 -0.1,0.2 -0.1,0.5 -0.2,0.8 0,0.1 0.4,-0.1 0.5,-0.8 0,0.4 -0.2,1 -0.1,1 0,0 0.1,0 0.2,-0.1 v 0.1 c 0,0.1 -0.1,0.5 -0.6,0.5 -0.6,0 -0.6,0.5 -0.6,0.5 0,0 -0.1,0 0,0.3 0.1,-0.2 0.2,-0.2 0.2,-0.2 0.1,0 0.4,0.1 0.8,-0.2 -0.4,0.4 -0.2,0.5 -0.2,0.5 0,0 -0.1,0.3 0.2,0.4 -0.1,-0.1 0,-0.2 0,-0.2 0,0 0.4,0 0.4,-0.5 0,0.4 0.3,0.6 0.3,0.6 0,0 0,0.2 0.3,0.3 -0.2,-0.1 -0.1,-0.3 -0.1,-0.3 0,0 0.4,-0.2 0.1,-0.7 0.1,0 0.1,-0.1 0.2,-0.1 v 0.2 c 0,0.3 0,0.3 0.2,0.5 -0.1,-0.2 0,-0.3 0,-0.3 0,0 0.3,0.1 0.5,-0.2 -0.2,0.4 -0.1,0.5 0,0.5 0,0.1 -0.1,0.4 0.3,0.4 -0.1,-0.1 -0.1,-0.3 -0.1,-0.3 0,0 0.4,-0.1 0.2,-0.7 0.1,-0.1 0.2,0 0.2,0 0,0 0,0.4 0.4,0.3 0.1,0.1 0,0.3 0,0.3 0,0 0.2,0 0.3,-0.2 0.1,-0.2 0.1,-0.5 -0.2,-0.6 0,-0.1 0.1,-0.1 0.1,-0.1 0,0 0.2,0.1 0.3,0.2 0.1,0.1 0,-0.3 -0.3,-0.3 -0.4,0 -0.4,-0.1 -0.4,-0.1 V 28 c 0.3,0.2 0.6,0.2 0.6,0.2 0,-0.1 -0.6,-0.8 -0.5,-0.9 0.2,0 0.4,0.4 0.6,0.3 -0.1,-0.1 -0.3,-0.1 -0.5,-0.4 0,-0.1 -0.1,-0.1 -0.1,-0.2 0,0 0.5,0.5 0.9,0.5 0.2,-0.1 -0.3,-0.4 -0.3,-0.5 0.2,0.2 0.9,0.7 1.4,0.5 0.2,-0.3 -0.3,-0.2 -0.9,-0.9 0.4,0.3 1.4,0.8 1.9,0.6 0.1,-0.1 -0.4,-0.4 -0.8,-0.8 0.2,0.1 0.3,0.2 0.4,0.2 0.5,0.2 1,-0.1 1,-0.1 0,-0.1 -0.2,-0.1 -0.5,-0.2 0.6,0.1 1,0 1.1,-0.1 0,-0.1 -0.1,-0.1 -0.7,-0.2 1.2,0.2 2.2,-0.5 2.2,-0.5 0,0 0.3,-0.1 -0.2,-0.1 3.4,-0.4 4,-1.9 4,-1.9 -0.1,0 -0.7,0.4 -1.5,0.7 1.5,-0.7 2.2,-1.6 2.2,-1.7 C 58.7,21.7 58.2,22 57.5,22.3 Z M 38.1,23 c 0.3,-0.1 0.6,-0.1 0.5,-0.1 0,0 -0.3,0.1 -0.5,0.1 z M 37,21.9 c 0.7,0.3 2,0.7 1.9,0.7 0.1,0.1 -1.1,-0.4 -1.9,-0.7 z m 11.7,3 c -0.1,-0.1 -0.2,-0.3 -0.2,-0.3 0,0.1 0.1,0.2 0.2,0.3 z M 55.2,24 c -1,0.3 -2.2,0.4 -3.7,0 1.5,0.3 2.7,0.2 3.7,0 z m 0.6,-1 c -0.2,0.1 -0.4,0.2 -0.6,0.2 0.2,0 0.4,-0.1 0.6,-0.2 z m -9.6,3.4 v -0.3 z m 1.6,1.5 c 0,0 -0.4,0 -0.7,0.1 -0.1,0 -0.3,-0.1 -0.4,-0.2 -0.1,-0.1 0,-0.7 0,-0.7 l 0.3,0.3 c 0,-0.3 0,-0.3 -0.1,-0.5 0,-0.3 0.1,-0.8 0.1,-1.4 0.5,0.9 0.7,1.3 0.6,2 0.1,0 0.1,-0.1 0.2,-0.2 v 0.5 c 0.1,0 0,0 0,0.1 z m 0.3,-2.7 c 0.1,0.1 0.1,0.1 0,0 z m 7.4,-1.3 c 0.1,0 0.1,0 0.2,-0.1 -0.1,0.1 -0.1,0.1 -0.2,0.1 z"
           id="path5021"
           style="fill:#e37700;fill-opacity:1" /><path
           d="m 46.2,27.5 c 0,0 0,0 0,0 z"
           id="path5023"
           style="fill:#e37700;fill-opacity:1" /></g></g></g><g
     id="g5573"
     transform="matrix(0.05687166,0,0,0.05687166,12.972786,70.199894)"><g
       id="g5606"
       transform="matrix(0.7326553,0,0,0.7326553,-363.67595,-1408.9141)"><circle
         style="fill:#188200;fill-opacity:1"
         cx="439.02673"
         cy="492.2536"
         r="254"
         id="circle5511" /><path
         style="fill:#324a5e"
         d="m 502.22673,638.2536 c 25.6,-88.4 42,-204 42,-238 0,-1.6 0,-3.6 0,-5.2 -2.4,-54.4 -48.8,-96.4 -103.2,-96.4 h -4 c -54.4,0 -100.4,42 -103.2,96.4 0,2 0,3.6 0,5.2 0,34 16.4,149.2 42,238 z"
         id="path5513" /><polygon
         style="fill:#ffd05b"
         points="144.8,406 363.2,406 304,299.2 204,299.2 "
         id="polygon5515"
         transform="translate(185.02673,238.2536)" /><path
         style="fill:#ff7058"
         d="m 484.22673,627.4536 c 0,0 -17.6,90 -38.4,118.8 -1.6,0 -2.8,0 -4.4,0 -0.8,0 -1.6,0 -2.4,0 -0.8,0 -1.6,0 -2.4,0 h -1.2 c -11.6,-22.4 -47.2,-92 -41.6,-118.8 0,0 35.6,25.2 90.4,0 z"
         id="path5517" /><path
         style="fill:#f9b54c"
         d="m 489.82673,539.0536 c -0.4,-0.4 -0.4,-1.2 -0.8,-1.6 0,0 -0.8,4.4 -6,10.8 -22.4,28 -65.6,28 -88,0 -5.2,-6.4 -6,-10.8 -6,-10.8 -0.4,0.4 -0.4,0.8 -0.8,1.2 2,-3.2 2.8,-6.8 3.2,-10.8 l 1.2,-14.8 v 0 l 3.2,-45.2 h 86.4 l 4.4,60 c 0.4,3.2 1.2,6.4 2.4,9.2 0.4,0.8 0.4,1.6 0.8,2 z"
         id="path5519" /><g
         id="g5525"
         transform="translate(185.02673,238.2536)">
	<path
   style="fill:#e6e9ee"
   d="m 246.4,508 c -4.4,0 -8.4,-0.4 -12.8,-0.8 -70.8,-5.6 -133.2,-40 -176,-92 21.2,-41.2 51.2,-44.8 51.2,-44.8 55.2,-26.4 88.4,-64 90.4,-66.4 l -12,26 23.6,101.6 z"
   id="path5521" />
	<path
   style="fill:#e6e9ee"
   d="m 450,415.2 c -16.8,20.4 -36.8,38.4 -59.2,52.8 -37.6,24 -81.6,38.4 -129.2,40 L 296.8,431.6 320.8,330 308,304 c 2,2.4 36,40 91.2,66.4 0,0 1.2,0 3.2,0.8 v 0 c 8.8,2.4 31.2,11.2 47.6,44 z"
   id="path5523" />
</g><g
         id="g5531"
         transform="translate(185.02673,238.2536)">
	<path
   style="fill:#ffffff"
   d="m 211.6,396 c 0,0 21.2,60.4 40,112 -6,0 -12,-0.4 -17.6,-0.8 -15.6,-22.4 -32.8,-45.6 -55.2,-57.6 l 7.2,-36.8 h -36 c 14.8,-66.4 51.6,-111.2 54,-113.2 -1.2,2.4 -19.2,38 7.6,96.4 z"
   id="path5527" />
	<path
   style="fill:#ffffff"
   d="m 322.4,412.8 7.2,36.8 c -22.4,12 -39.6,35.2 -55.2,57.6 -4,0.4 -8.4,0.4 -12.4,0.8 -1.6,0 -3.2,0 -5.2,0 18.8,-51.6 39.6,-112 39.6,-112 26.8,-58.4 8.8,-94 7.6,-96.4 2.4,2 39.2,46.8 54,113.2 z"
   id="path5529" />
</g><g
         id="g5537"
         transform="translate(185.02673,238.2536)">
	<path
   style="fill:#ffd05b"
   d="m 339.2,172.4 c 0,58.4 -38,131.6 -85.2,131.6 -47.2,0 -85.2,-73.2 -85.2,-131.6 0,-58.4 38,-79.6 85.2,-79.6 47.2,0 85.2,21.6 85.2,79.6 z"
   id="path5533" />
	<path
   style="fill:#ffd05b"
   d="m 351.2,207.2 c -6,13.2 -16.4,20.8 -23.6,17.2 -7.2,-4 -8,-17.6 -2,-31.2 6,-13.2 16.4,-20.8 23.6,-17.2 6.8,4 7.6,18 2,31.2 z"
   id="path5535" />
</g><g
         id="g5547"
         transform="translate(185.02673,238.2536)">
	<path
   style="fill:#324a5e"
   d="m 318.8,114 c 0,0 -19.2,39.6 20.4,63.2 l 6.8,-22 -14.8,-43.2 -7.6,-9.2 z"
   id="path5539" />
	<path
   style="fill:#324a5e"
   d="m 328,105.2 c 0,0 -10.8,36 -86.8,64.8 -27.6,10.4 -48.4,34.4 -55.2,63.2 -3.2,14 -6,30 -7.2,47.2 L 163.2,229.2 158,148.4 176,103.2 228,92 Z"
   id="path5541" />
	<polygon
   style="fill:#324a5e"
   points="270.4,120.4 225.6,99.6 243.2,74.4 302,82 310.4,99.6 "
   id="polygon5543" />
	<path
   style="fill:#324a5e"
   d="m 290.8,347.2 h -66.4 c -1.6,0 -3.2,1.6 -2.8,3.2 v 20.4 c 0,1.6 1.2,3.2 3.2,3.2 h 66 c 1.6,0 3.2,-1.6 3.2,-3.2 l 0.4,-20.4 c -0.4,-1.6 -2,-3.2 -3.6,-3.2 z"
   id="path5545" />
</g><path
         style="fill:#ff7058"
         d="m 535.02673,606.6536 -3.6,124.8 c -22,7.2 -45.2,12 -69.2,14 -4.8,0.4 -9.6,0.8 -14.8,0.8 h -0.4 c -1.6,0 -3.2,0 -5.2,0 -0.8,0 -2,0 -2.8,0 -0.8,0 -2,0 -2.8,0 h -1.6 c -1.6,0 -3.2,0 -4.4,0 -4.8,0 -10,-0.4 -14.8,-0.8 -24,-2 -47.2,-6.8 -69.2,-14 l -3.2,-124.8 c 0,-4 2.8,-7.2 6.4,-7.2 h 179.2 c 3.6,0 6.8,3.2 6.4,7.2 z"
         id="path5549" /><g
         id="g5555"
         transform="translate(185.02673,238.2536)">
	<path
   style="fill:#f1543f"
   d="m 284,374.4 c 0,2.8 -2.4,5.2 -4.8,5.2 -2.8,0 -4.8,-2.4 -4.8,-5.2 0,-2.8 2.4,-5.2 4.8,-5.2 2.8,0 4.8,2.4 4.8,5.2 z"
   id="path5551" />
	<path
   style="fill:#f1543f"
   d="m 240.8,374.4 c 0,2.8 -2,5.2 -4.8,5.2 -2.8,0 -4.8,-2.4 -4.8,-5.2 0,-2.8 2,-5.2 4.8,-5.2 2.8,0 4.8,2.4 4.8,5.2 z"
   id="path5553" />
</g><path
         style="fill:#2b3b4e"
         d="m 455.02673,497.8536 v -3.6 c 63.2,-1.2 66,-47.2 66,-48 h 3.6 c -0.4,1.2 -2.8,50.8 -69.6,51.6 z"
         id="path5557" /><g
         id="g5571"
         transform="translate(185.02673,238.2536)">
	<path
   style="fill:#324a5e"
   d="m 337.6,214.4 v 0 c -4.8,0 -8.4,-3.6 -8.4,-8.4 v -17.6 c 0,-4.8 3.6,-8.4 8.4,-8.4 v 0 c 4.8,0 8.4,3.6 8.4,8.4 V 206 c 0,4.8 -3.6,8.4 -8.4,8.4 z"
   id="path5559" />
	<path
   style="fill:#324a5e"
   d="m 283.2,262 h -18.8 c -2.8,0 -4.8,-2 -4.8,-4.8 v 0 c 0,-2.8 2,-4.8 4.8,-4.8 h 18.8 c 2.8,0 4.8,2 4.8,4.8 v 0 c 0,2.4 -2.4,4.8 -4.8,4.8 z"
   id="path5561" />
	<path
   style="fill:#324a5e"
   d="m 359.2,156.8 c 0,0 -12.4,169.6 26,174 0,0 -17.6,43.2 -53.6,2 -1.2,-1.2 -1.6,-2.8 -2,-4.4 0,0 0,0 0,-0.4 -5.6,-24 -2.8,-48.8 7.6,-70.8 l 16.4,-34.4 2.4,-47.6 z"
   id="path5563" />
	<path
   style="fill:#324a5e"
   d="m 148.8,156.8 c 0,0 12.4,169.6 -26,174 0,0 17.6,43.2 53.6,2 1.2,-1.2 1.6,-2.8 2,-4.4 0,0 0,0 0,-0.4 5.6,-24 2.8,-48.8 -7.6,-70.8 L 154.4,222.8 152,175.2 Z"
   id="path5565" />
	<path
   style="fill:#324a5e"
   d="m 338,290.4 -8.8,-14.8 -24.4,19.2 c 0,0 10.8,29.6 34.8,46.4 l 7.2,-25.6 c -5.6,-7.6 -8.4,-16.4 -8.8,-25.2 z"
   id="path5567" />
	<path
   style="fill:#324a5e"
   d="m 169.6,290.4 8.8,-14.8 25.6,19.2 c 0,0 -12,29.6 -35.6,46.4 l -7.2,-25.6 c 5.6,-7.6 8.4,-16.4 8.4,-25.2 z"
   id="path5569" />
</g></g></g></svg>
