<svg xmlns="http://www.w3.org/2000/svg" width="580.101" height="455.488"><circle cx="452.82" cy="117.456" r="53.519" fill="#188200"/><path fill="#2f2e41" d="M456.752 448.302V325.287a6.51 6.51 0 0 1 6.5-6.5h14.76a6.51 6.51 0 0 1 6.5 6.5v123.015a6.51 6.51 0 0 1-6.5 6.5h-14.76a6.51 6.51 0 0 1-6.5-6.5M425.56 448.302V325.287a6.51 6.51 0 0 1 6.5-6.5h14.76a6.51 6.51 0 0 1 6.5 6.5v123.015a6.51 6.51 0 0 1-6.5 6.5h-14.76a6.51 6.51 0 0 1-6.5-6.5"/><path fill="#2f2e41" d="M413.397 332.75V223.804a40.03 40.03 0 0 1 40.03-40.031 40.03 40.03 0 0 1 40.032 40.03V332.75a6.5 6.5 0 0 1-6.5 6.5h-67.062a6.5 6.5 0 0 1-6.5-6.5M407.624 141.114l.056-2c-3.721-.103-7.001-.337-9.466-2.137a6.15 6.15 0 0 1-2.381-4.529 3.51 3.51 0 0 1 1.152-2.894c1.637-1.382 4.27-.935 6.188-.055l1.655.759-3.173-23.19-1.982.271 2.7 19.727c-2.608-.767-5.024-.437-6.679.96a5.47 5.47 0 0 0-1.86 4.493 8.13 8.13 0 0 0 3.2 6.073c3.167 2.314 7.283 2.43 10.59 2.522M413.103 109.04h10.771v2h-10.771z"/><path fill="#188200" d="M473.992 332.674a6.45 6.45 0 0 1-2.093-4.514l-5.095-122.908a6.5 6.5 0 0 1 6.225-6.763l14.747-.612a6.506 6.506 0 0 1 6.763 6.225l5.096 122.909a6.51 6.51 0 0 1-6.226 6.763l-14.746.611a6.6 6.6 0 0 1-1.405-.091 6.45 6.45 0 0 1-3.266-1.62"/><path fill="#2f2e41" d="M492.81 249.488h-24a6.507 6.507 0 0 1-6.5-6.5v-34a18.5 18.5 0 0 1 37 0v34a6.507 6.507 0 0 1-6.5 6.5"/><path fill="#188200" d="m338.689 295.037-9.409-11.372a6.51 6.51 0 0 1 .865-9.152l94.78-78.416a6.504 6.504 0 0 1 9.152.864l9.408 11.373a6.5 6.5 0 0 1-.865 9.151l-94.78 78.416a6.51 6.51 0 0 1-8.144.119 6.6 6.6 0 0 1-1.007-.983"/><path fill="#2f2e41" d="m408.585 243.96-15.203-18.57a6.507 6.507 0 0 1 .912-9.147l26.308-21.538a18.5 18.5 0 1 1 23.438 28.63l-26.308 21.538a6.507 6.507 0 0 1-9.147-.912M466.237 126.518c2.787-4.656 4.968-9.786 3.933-15.303-.925-4.926-4.47-8.762-9.567-9.265-3.07-.303-6.125.516-9.123 1.05a34.3 34.3 0 0 1-7.448.482 37 37 0 0 1-14.45-3.664 35.47 35.47 0 0 1-19.057-22.331c-3.042-11.074-.784-23.65 6.44-32.663l-2.507-.662 3.264 10.724a1.515 1.515 0 0 0 2.204.897 51.66 51.66 0 0 1 40.2-6.427 49 49 0 0 1 11.031 4.242c1.704.906 3.222-1.682 1.515-2.59a54.7 54.7 0 0 0-42.915-3.288 52.2 52.2 0 0 0-11.345 5.472l2.203.897-3.264-10.724a1.512 1.512 0 0 0-2.507-.662 40.2 40.2 0 0 0-8.241 30.483 37.94 37.94 0 0 0 16.428 26.318 40.46 40.46 0 0 0 30.554 6.142c2.936-.564 6.265-1.372 9.146-.143a7.9 7.9 0 0 1 4.234 5.208c1.632 5.531-1.145 10.784-3.983 15.383Z"/><path fill="#ccc" d="M439.426 231.74h-.037a2.466 2.466 0 0 1-2.399-1.927l.196-41.668a2.535 2.535 0 0 1 1.4-2.853c7.254-3.408 14.749-3.866 22.914-1.398a2.5 2.5 0 0 1 1.706 3.043l-21.365 42.943a2.465 2.465 0 0 1-2.415 1.86"/><path fill="#3f3d56" d="M579.101 455.488h-248a1 1 0 0 1 0-2h248a1 1 0 0 1 0 2"/><path fill="#fff" d="M336 311.282H150a9.51 9.51 0 0 1-9.5-9.5v-138a9.51 9.51 0 0 1 9.5-9.5h186a9.51 9.51 0 0 1 9.5 9.5v138a9.51 9.51 0 0 1-9.5 9.5"/><path fill="#188200" d="m174.077 244.692 35.971.59H231a3.504 3.504 0 0 0 3.5-3.5v-1.223l-18.041-19.4a3.5 3.5 0 0 0-5.038-.09l-17.744 17.743a2.5 2.5 0 0 1-3.534.002l-2.627-2.622a3.503 3.503 0 0 0-4.949.002Z"/><path fill="#3f3d56" d="M336 311.282H150a9.51 9.51 0 0 1-9.5-9.5v-138a9.51 9.51 0 0 1 9.5-9.5h186a9.51 9.51 0 0 1 9.5 9.5v138a9.51 9.51 0 0 1-9.5 9.5m-186-154a6.507 6.507 0 0 0-6.5 6.5v138a6.507 6.507 0 0 0 6.5 6.5h186a6.507 6.507 0 0 0 6.5-6.5v-138a6.507 6.507 0 0 0-6.5-6.5Z"/><path fill="#3f3d56" d="M315 178.782H171a3 3 0 0 1 0-6h144a3 3 0 0 1 0 6M315.5 195.282h-144a3 3 0 0 1 0-6h144a3 3 0 0 1 0 6M316 211.782h-69a3 3 0 0 1 0-6h69a3 3 0 0 1 0 6M316.5 228.282h-69a3 3 0 0 1 0-6h69a3 3 0 0 1 0 6M317 244.782h-69a3 3 0 0 1 0-6h69a3 3 0 0 1 0 6M317.5 261.282h-144a3 3 0 0 1 0-6h144a3 3 0 0 1 0 6M318 277.782H174a3 3 0 0 1 0-6h144a3 3 0 0 1 0 6M318.5 294.282h-144a3 3 0 1 1 0-6h144a3 3 0 0 1 0 6M231 245.782h-56a4.9 4.9 0 0 1-2.384-.61h-.014l-.254-.153a4.98 4.98 0 0 1-2.348-4.237v-30a5.006 5.006 0 0 1 5-5h56a5.006 5.006 0 0 1 5 5v30a5.006 5.006 0 0 1-5 5m-57.714-2.54.143.088a2.9 2.9 0 0 0 1.571.452h56a3.003 3.003 0 0 0 3-3v-30a3.003 3.003 0 0 0-3-3h-56a3.003 3.003 0 0 0-3 3v30a2.99 2.99 0 0 0 1.286 2.46"/><path fill="#e6e6e6" d="M2.144 333.363a2.722 2.722 0 0 0-1.149 4.764l12.027 9.872a1.8 1.8 0 0 1 .429.53 1.7 1.7 0 0 1 .167.655l.855 18.232a2.66 2.66 0 0 0 2.108 2.527l.021.004a2.66 2.66 0 0 0 2.975-1.363l4.27-7.898a1.64 1.64 0 0 1 1.457-.847 1.58 1.58 0 0 1 1.163.507l20.848 21.982a2.7 2.7 0 0 0 2.38.817 2.73 2.73 0 0 0 2.027-1.484l30.015-60.953a2.72 2.72 0 0 0-3.015-3.863l-.983.211zm-.462 3.924a1.635 1.635 0 0 1 .694-2.859l75.572-16.301 1.006-.218a1.635 1.635 0 0 1 1.81 2.317l-30.015 60.952a1.63 1.63 0 0 1-2.645.4l-20.847-21.981a2.6 2.6 0 0 0-.71-.541l52.412-38.5a1.089 1.089 0 0 0-.908-1.939 1 1 0 0 0-.175.062l-63.744 28.909a2.7 2.7 0 0 0-.423-.428z"/><path fill="#ccc" d="M2.144 333.363a2.722 2.722 0 0 0-1.149 4.764l12.027 9.872a1.8 1.8 0 0 1 .429.53 1.7 1.7 0 0 1 .167.655l.855 18.232a2.66 2.66 0 0 0 2.108 2.527l.021.004a2.66 2.66 0 0 0 2.975-1.363l4.27-7.898a1.64 1.64 0 0 1 1.457-.847 1.58 1.58 0 0 1 1.163.507l20.848 21.982a2.7 2.7 0 0 0 2.38.817 2.73 2.73 0 0 0 2.027-1.484l30.015-60.953a2.72 2.72 0 0 0-3.015-3.863l-.983.211zm-.462 3.924a1.635 1.635 0 0 1 .694-2.859l75.572-16.301 1.006-.218a1.635 1.635 0 0 1 1.81 2.317l-30.015 60.952a1.63 1.63 0 0 1-2.645.4l-20.847-21.981a2.6 2.6 0 0 0-.71-.541 2.65 2.65 0 0 0-1.235-.307q-.092-.003-.185.003h-.005a2.71 2.71 0 0 0-2.23 1.416l-4.27 7.904a1.58 1.58 0 0 1-1.79.812l-.01-.002a1.58 1.58 0 0 1-1.264-1.516l-.855-18.232a2.6 2.6 0 0 0-.085-.57v-.005a2.6 2.6 0 0 0-.196-.517 2.5 2.5 0 0 0-.29-.454 2.7 2.7 0 0 0-.423-.428z"/><path fill="#ccc" d="m14.132 347.588 63.744-28.91a1 1 0 0 1 .175-.06 1.089 1.089 0 0 1 .908 1.938l-52.412 38.5-.925.68-.641-.877.14-.108.006.001 53.185-39.074-63.693 28.88-.001.006-.278.122-.449-.99Z"/><path fill="#e6e6e6" d="m381.856 364.363-75.595-16.307-.983-.211a2.72 2.72 0 0 0-3.015 3.863l30.015 60.953a2.73 2.73 0 0 0 2.026 1.484 2.7 2.7 0 0 0 2.381-.817l20.848-21.982a1.58 1.58 0 0 1 1.163-.507 1.64 1.64 0 0 1 1.457.847l4.27 7.898a2.66 2.66 0 0 0 2.975 1.363l.02-.004a2.66 2.66 0 0 0 2.109-2.527l.855-18.232a1.7 1.7 0 0 1 .167-.655 1.8 1.8 0 0 1 .429-.53l12.027-9.872a2.722 2.722 0 0 0-1.149-4.764m.462 3.924-12.027 9.873a2.7 2.7 0 0 0-.423.428l-63.744-28.91a1 1 0 0 0-.175-.06 1.089 1.089 0 0 0-.908 1.938l52.412 38.5a2.6 2.6 0 0 0-.71.54l-20.847 21.983a1.63 1.63 0 0 1-2.645-.401l-30.014-60.952a1.635 1.635 0 0 1 1.81-2.317l1.005.218 75.572 16.301a1.635 1.635 0 0 1 .694 2.86"/><path fill="#ccc" d="m381.856 364.363-75.595-16.307-.983-.211a2.72 2.72 0 0 0-3.015 3.863l30.015 60.953a2.73 2.73 0 0 0 2.026 1.484 2.7 2.7 0 0 0 2.381-.817l20.848-21.982a1.58 1.58 0 0 1 1.163-.507 1.64 1.64 0 0 1 1.457.847l4.27 7.898a2.66 2.66 0 0 0 2.975 1.363l.02-.004a2.66 2.66 0 0 0 2.109-2.527l.855-18.232a1.7 1.7 0 0 1 .167-.655 1.8 1.8 0 0 1 .429-.53l12.027-9.872a2.722 2.722 0 0 0-1.149-4.764m.462 3.924-12.027 9.873a2.7 2.7 0 0 0-.423.428 2.5 2.5 0 0 0-.29.454 2.6 2.6 0 0 0-.197.517l.001.005a2.6 2.6 0 0 0-.085.57l-.855 18.232a1.58 1.58 0 0 1-1.263 1.516l-.011.002a1.58 1.58 0 0 1-1.79-.812l-4.27-7.904a2.71 2.71 0 0 0-2.23-1.417l-.005.001q-.093-.006-.185-.003a2.65 2.65 0 0 0-1.235.307 2.6 2.6 0 0 0-.71.54l-20.847 21.983a1.63 1.63 0 0 1-2.645-.401l-30.014-60.952a1.635 1.635 0 0 1 1.81-2.317l1.005.218 75.572 16.301a1.635 1.635 0 0 1 .694 2.86"/><path fill="#ccc" d="m370.109 378.696-.45.99-.277-.122v-.005l-63.694-28.881 53.185 39.074h.005l.141.107-.641.877-.925-.68-52.412-38.5a1.089 1.089 0 0 1 .908-1.939 1 1 0 0 1 .175.062l63.744 28.909Z"/><path fill="#e6e6e6" d="M84.756 1.156a3.758 3.758 0 0 0-6.414 1.968l-3.136 20.707a2.4 2.4 0 0 1-.32.86 2.3 2.3 0 0 1-.653.646L53.386 38.933a3.545 3.545 0 0 0-1.486 4.18l.01.028a3.64 3.64 0 0 0 3.7 2.49l12.303-.534a2.26 2.26 0 0 1 2.023 1.095 2.1 2.1 0 0 1 .223 1.694l-11.164 39.26a3.58 3.58 0 0 0 .718 3.312 3.78 3.78 0 0 0 3.175 1.312l92.868-7.513a3.77 3.77 0 0 0 2.253-.98 3.61 3.61 0 0 0 .167-5.172l-.941-.987zm-4.942 2.18a2.2 2.2 0 0 1 .683-1.276 2.273 2.273 0 0 1 3.17.1L156.122 78.1l.965 1.01a2.18 2.18 0 0 1 .592 1.308 2.213 2.213 0 0 1-2.041 2.382L62.77 90.313a2.3 2.3 0 0 1-.78-.073 2.19 2.19 0 0 1-1.556-2.702l11.163-39.26a3.4 3.4 0 0 0 .137-1.193l82.243 33.86a1.515 1.515 0 0 0 1.655-.316 1.445 1.445 0 0 0-.014-2.072 1.3 1.3 0 0 0-.196-.16l-78.95-53.57a3.6 3.6 0 0 0 .206-.784z"/><path fill="#ccc" d="M84.756 1.156a3.758 3.758 0 0 0-6.414 1.968l-3.136 20.707a2.4 2.4 0 0 1-.32.86 2.3 2.3 0 0 1-.653.646L53.386 38.933a3.545 3.545 0 0 0-1.486 4.18l.01.028a3.64 3.64 0 0 0 3.7 2.49l12.303-.534a2.26 2.26 0 0 1 2.023 1.095 2.1 2.1 0 0 1 .223 1.694l-11.164 39.26a3.58 3.58 0 0 0 .718 3.312 3.78 3.78 0 0 0 3.175 1.312l92.868-7.513a3.77 3.77 0 0 0 2.253-.98 3.61 3.61 0 0 0 .167-5.172l-.941-.987zm-4.942 2.18a2.2 2.2 0 0 1 .683-1.276 2.273 2.273 0 0 1 3.17.1L156.122 78.1l.965 1.01a2.18 2.18 0 0 1 .592 1.308 2.213 2.213 0 0 1-2.041 2.382L62.77 90.313a2.3 2.3 0 0 1-.78-.073 2.19 2.19 0 0 1-1.556-2.702l11.163-39.26a3.4 3.4 0 0 0 .137-1.193 3.5 3.5 0 0 0-.51-1.638c-.04-.071-.088-.14-.135-.21l-.002-.007a3.75 3.75 0 0 0-3.238-1.593l-12.31.537a2.17 2.17 0 0 1-2.217-1.503l-.005-.014a2.104 2.104 0 0 1 .893-2.506l20.846-13.595a3.5 3.5 0 0 0 .61-.493l.008-.002a3.5 3.5 0 0 0 .469-.585 3.4 3.4 0 0 0 .33-.648 3.6 3.6 0 0 0 .205-.785z"/><path fill="#ccc" d="m76.473 24.828 78.949 53.57a1.3 1.3 0 0 1 .196.16 1.445 1.445 0 0 1 .322 1.622 1.504 1.504 0 0 1-1.963.765l-82.243-33.86-1.453-.596.58-1.347.226.088.002.007 83.465 34.355-78.88-53.531-.007.002-.34-.236.849-1.203Z"/></svg>
