<svg xmlns="http://www.w3.org/2000/svg" width="727.49" height="721.335" data-name="Layer 1"><path fill="none" d="M499.932 37.172v455.77H205.229V26.146a361.63 361.63 0 0 1 294.703 11.026" style="fill:#fff;fill-opacity:0"/><path fill="#f2f2f2" d="M528.845 56.08v438.157H428.646l1.79-24.801 9.853-271.53H241.887l9.852 271.53 1.79 24.801H152.208V64.014a292 292 0 0 1 5.62-4.053c.368-.257-1.255-7.522-.878-7.78a326.3 326.3 0 0 1 70.198-37.291l7.337 80.701h34.379V9.545c2.245-.557 4.49-1.08 6.75-1.568a87.614 87.614 0 0 0 87.615 87.614h42.21V5.707c2.252.411 4.506.848 6.741 1.31v88.574h35.52l5.602-77.29a325.8 325.8 0 0 1 68.801 33.35c.745.48 1.5.951 2.245 1.448q2.261 1.465 4.497 2.982zm-259.981 46.262h-33.89l5.285 73.076h28.605zm136.574 0H275.615v73.076h50.295v-1.448a5.29 5.29 0 0 1 5.295-5.294h20.886a5.294 5.294 0 0 1 5.303 5.294v1.448h48.043zm36.487 73.076 5.286-73.076h-35.03v73.076z"/><path fill="#ccc" d="M680.344 481.16c-.008.027-.017.044-.025.07-.06.18-.12.342-.189.522v.009q-4.382 12.31-9.63 24.21l-660.717-.72q-5.32-12.143-9.766-24.733a.2.2 0 0 1-.017-.06Z"/><path fill="#ffb6b6" d="M432.242 356.156a15.436 15.436 0 0 0 21.194 10.54l37.24 40.279 6.82-27.679-36.409-34.006a15.52 15.52 0 0 0-28.845 10.866"/><path fill="#188200" d="m474.613 391.86 50.596 56.79.411-.077a1493 1493 0 0 0 10.092-1.825c22-4.026 73.316-13.63 86.047-18.076a45.5 45.5 0 0 0 19.138-12.516c-1.32-7.188-2.733-12.568-4.13-15.19-1.019-1.91-.83-4.403-.873-7.247a22.9 22.9 0 0 0-11.283-3.992 163.9 163.9 0 0 0-74.18 11.9l-13.348 5.516-.548-.402-45.08-33.086-.308-.223-15.506 17.28z"/><path fill="#ffb6b6" d="M369.016 720.205c.677-.051 1.345-.111 2.022-.17q12.735-1.067 25.213-3.016l9.132-21.264 4.378-10.194-16.526-7.102-10.743-4.61-5.106 17.546-2.116 7.29-5.003 17.203z"/><path fill="#cacaca" d="M554.146 621.26v29.865q-7.518 5.55-15.335 10.708V621.26Z"/><path fill="#3f3d56" d="M608.015 602.344q-6.464 7.17-13.313 13.973a361 361 0 0 1-34.165 29.984h-68.365a12.75 12.75 0 0 1-9.586-4.343l-.009-.026a12.6 12.6 0 0 1-2.878-5.654l-.009-.017a13 13 0 0 1-.29-2.742v-18.393a12.79 12.79 0 0 1 12.772-12.782z"/><path fill="#2f2e41" d="m636.183 530.553-7.41 31.75a66.7 66.7 0 0 1 .72 13.912q-5.27 7.068-10.872 13.853-5.166 6.258-10.606 12.276-6.464 7.17-13.313 13.973c-11.891 3.735-25.907 5.26-40.556 5.363a249 249 0 0 1-15.335-.368c-20.878-1.097-9.44-4.447-26.738-7.925a477 477 0 0 1-12.833-2.733 517 517 0 0 1-18.307-4.463c-5.115-1.337-23.574-10.558-23.574-10.558l-14.564 31.698-12.85 29.984-16.923 37.878q-3.264.295-6.536.497-3.47.244-6.948.394c-1.833.094-3.658.163-5.5.214l-.625.197-.514-.163-8.259-2.63-2.784-.882-10.015-3.187s2.236-7.042 6.151-18.787c1.44-4.31 11.634-36.17 22.3-63.987a1469 1469 0 0 1 9.8-24.973 1298 1298 0 0 1 8.413-20.389c4.943-11.66 28.828-17.948 56.953-21.246 1.431-.163 2.87-.326 4.318-.48 14.333-1.508 29.539-2.287 43.76-2.647 7.12-.18-18.565-.248-12.174-.257q3.097 0 6.023.017h.009c5.268.026 10.117.103 14.384.189.83.017 1.636.042 2.424.06h.008c.532.008 1.054.025 1.568.034 9.33.24 15.052.531 15.052.531l2.22-17.408.453-3.512.429-3.341v-.01l.051-.419.351-.008 6.168-.12 51.848-1.011 22.083-.936z"/><path fill="#2f2e41" d="M467.64 594.777c6.245 10.674 11.11 30.91 17.51 40.933 12.277 19.24 19.473 29.735 27.98 41.575q13.184-7.183 25.675-15.455 6.67-4.395 13.133-9.106l-5.097-11.626-2.896-5.697-13.005-25.606-14.58-28.708-5.072 2.364z"/><path fill="#ccc" d="M29.384 448.093a5.452 5.452 0 0 1 4.175-7.08 5 5 0 0 1 .861-.107l34.911-.902a5.6 5.6 0 0 1 4.176 1.802 7 7 0 0 1 1.487-.155 8.277 8.277 0 1 1 .416 16.549 8.4 8.4 0 0 1-3.631-.746l-3.212 34.342a5.42 5.42 0 0 1-5.123 3.99l-22.696.584a5.5 5.5 0 0 1-5.297-3.71zm45.953 7.738a5.92 5.92 0 0 0-.277-11.837c-.11 0-.209.053-.32.053a5.6 5.6 0 0 1-.017 2.891l-2.285 8.184a5.57 5.57 0 0 0 2.9.71z"/><path fill="#fff" d="M33.56 441.013c.743 4.253 9.105 7.242 19.16 6.723 9.246-.426 16.806-3.673 18.191-7.521a5.2 5.2 0 0 0-1.58-.21l-34.91.9a5 5 0 0 0-.862.108z"/><path fill="#ccc" d="M252.126 396.074v87.862h-61.554v-87.862a2.95 2.95 0 0 1 2.082-2.827 2.7 2.7 0 0 1 .883-.137h55.616a2.967 2.967 0 0 1 2.973 2.964m-24.022 30.19a6.571 6.571 0 0 0-13.141 0v10.194a6.57 6.57 0 0 0 13.141 0z"/><path fill="#3f3d56" d="M252.314 481.127v8.472a1.667 1.667 0 0 1-1.653 1.662h-58.624a1.66 1.66 0 0 1-1.653-1.662v-8.472z"/><path fill="#ccc" d="M348.958 263.697v160.425a7.716 7.716 0 0 1-7.71 7.71H103.515a7.716 7.716 0 0 1-7.71-7.71V263.697a7.72 7.72 0 0 1 7.71-7.701h237.733a7.72 7.72 0 0 1 7.71 7.701"/><path fill="#fff" d="M343.381 265.693v156.45a4.13 4.13 0 0 1-4.12 4.12H105.494a4.13 4.13 0 0 1-4.12-4.12v-156.45a4.13 4.13 0 0 1 4.12-4.129H339.26a4.13 4.13 0 0 1 4.121 4.13z"/><path fill="#f2f2f2" d="M294.998 490.687a2.53 2.53 0 0 1-1.987.951H153.935a2.56 2.56 0 0 1-2.502-3.084l2.16-10.255a2.56 2.56 0 0 1 1.593-1.859 2.5 2.5 0 0 1 .908-.17H290.86a2.5 2.5 0 0 1 .908.17 2.56 2.56 0 0 1 1.594 1.86l2.159 10.254a2.56 2.56 0 0 1-.523 2.133"/><path fill="#3f3d56" d="M113.08 283.116h218.736a.87.87 0 0 0 0-1.74H113.08a.87.87 0 0 0 0 1.74"/><ellipse cx="-316.925" cy="271.724" fill="#3f3d56" rx="5.098" ry="5.211" transform="scale(-1 1)"/><ellipse cx="-299.315" cy="271.724" fill="#3f3d56" rx="5.098" ry="5.211" transform="scale(-1 1)"/><ellipse cx="-281.705" cy="271.724" fill="#3f3d56" rx="5.098" ry="5.211" transform="scale(-1 1)"/><path fill="#3f3d56" d="M123.685 267.8h12.508a.947.947 0 0 1 0 1.894h-12.508a.947.947 0 0 1 0-1.893zm0 3.556h12.508a.947.947 0 0 1 0 1.893h-12.508a.947.947 0 0 1 0-1.893m0 3.555h12.508a.947.947 0 0 1 0 1.894h-12.508a.947.947 0 0 1 0-1.894"/><rect width="43.451" height="9.291" x="-236.967" y="330.405" fill="#188200" rx="3.264" transform="scale(-1 1)"/><rect width="87.585" height="9.291" x="-259.034" y="348.988" fill="#188200" rx="3.264" transform="scale(-1 1)"/><rect width="87.585" height="9.291" x="-259.034" y="367.571" fill="#188200" rx="3.264" transform="scale(-1 1)"/><ellipse cx="-366.121" cy="490.688" fill="#3f3d56" rx="20.132" ry="6.425" transform="scale(-1 1)"/><ellipse cx="-366.121" cy="486.405" fill="#3f3d56" rx="20.132" ry="6.425" transform="scale(-1 1)"/><path fill="#3f3d56" d="m364.62 490.71 3-.044-.827-56.019a52.26 52.26 0 0 1 25.37-45.5l57.259-34.226-1.54-2.575-57.259 34.227a55.27 55.27 0 0 0-26.83 48.119z"/><rect width="14.564" height="59.969" x="-455.217" y="320.206" fill="#188200" rx="7.282" transform="scale(-1 1)"/><path fill="#3f3d56" d="M453.031 392.685a21.89 21.89 0 0 0 21.859-21.615l.247-23.005-3-.033-.247 23.007a18.826 18.826 0 0 1-30.476 14.585l-20.416-16.083-1.856 2.357 20.415 16.083a21.73 21.73 0 0 0 13.475 4.704z"/><ellipse cx="-470.638" cy="345.05" fill="#3f3d56" rx="8.995" ry="21.846" transform="scale(-1 1)"/><path fill="#188200" d="M534.067 462.64c.78-4.9 1.303-10.272 1.645-15.892.806-12.859.728-27.037.823-40.007.04-5.895.506-12.332 1.113-18.308a34.49 34.49 0 0 1 16.988-26.477 34.9 34.9 0 0 0 8.593-7.002c1.337-1.491 1.5-4.935 1.67-8.576.206-4.43.42-9.021 2.794-11.385l.102-.103.138-.052c9.963-3.315 26.797-1.165 31.8-.008l.214.051.137.171c2.065 2.733 1.954 7.102 1.842 11.326-.094 3.795-.188 7.385 1.49 8.464 1.303.84 2.554 1.636 3.762 2.407 14.812 9.45 22.248 14.196 27.697 29.625a20.4 20.4 0 0 1 1.02 6.845c.042 2.844-.147 5.337.873 7.248 1.396 2.621 2.81 8.001 4.13 15.189 6.913 37.771 11.016 125.6-5.878 127.656-1.319.163 1.371 2.81 2.296 4.138 1.328 1.91 2.468 3.555 1.808 4.814-.446.857-1.61 1.26-3.65 1.26-7.693 0-86.774-11.608-89.019-15.79-.146-.273-.163.24 0 0-37.078-4.84-17.45-43.562-12.388-75.594"/><path fill="#ffb6b6" d="M444.819 500.469a15.64 15.64 0 0 1 23.924 1.672l53.205-16.071-8.249 27.679-49.26 11.018a15.725 15.725 0 0 1-19.62-24.298"/><path fill="#188200" d="m509.046 516.319 73.06-13.41c.296-.764 29.626-76.688 33.25-93.742a46.16 46.16 0 0 0-3.661-30.486l-.129-.226-.24-.104a23.43 23.43 0 0 0-28.218 7.89 165.94 165.94 0 0 0-28.647 70.523l-2.233 14.456-34.816 10.12z"/><path fill="#ffb6b6" d="M532.983 311.152a41.395 41.395 0 1 0-2.103-35.265c-.19.473-.36.947-.53 1.44a41.34 41.34 0 0 0 2.633 33.825"/><path fill="#2f2e41" d="M527.033 277.327c1.781-4.984 1.004-2.388 2.805-7.353-1.175 4.397.682 6.86.511 7.353h49.289v-28.652c-14.44-5.723-28.558-10.593-37.085 0a28.653 28.653 0 0 0-28.652 28.652z"/><path fill="#2f2e41" d="M566.779 356.117c.038-.531.095-1.08.17-1.611a55.8 55.8 0 0 1 3.203-11.37 3059 3059 0 0 1 4.301-12.014 34.4 34.4 0 0 0 1.611 21.83c8.32-6.48 4.32-16.237 13.947-21.3 25.836-13.588 34.777-35.547 27.55-69.273-2.57-11.994-17.54-23.987-43.692-23.987-26.17 0-37.835 13.011-38.346 39.162 32.214 7.58 25.173 75.91 31.256 78.563"/><circle cx="-614.959" cy="246.523" r="17.102" fill="#2f2e41" transform="scale(-1 1)"/><path fill="#2f2e41" d="M622.96 241.553c2.916 3.395 7.483 4.715 11.602 6.482a48.81 48.81 0 0 1 28.357 35.66c1.14 6.355.99 12.933 2.79 19.129 1.788 6.195 6.216 12.273 12.57 13.348 4.301.734 8.612-.926 12.657-2.565q3.337-1.342 6.674-2.693-3.48-8.734-6.95-17.468a88.5 88.5 0 0 0 12.89 15.083q11.96-4.822 23.94-9.644c-19.65.075-16.297-19-20.693-38.14-2.417-10.517-22.993-17.638-27.027-27.644a30.61 30.61 0 0 0-55.523-2.789c-4.034 1.607-4.151 7.888-1.288 11.24z"/><path fill="#fff" d="M546.379 239.039a6.425 6.425 0 0 0-4.061 8.128l15.126 45.33a6.425 6.425 0 0 0 8.129 4.06 6.425 6.425 0 0 0 4.06-8.128l-15.126-45.33a6.425 6.425 0 0 0-8.128-4.06"/><circle cx="-566.934" cy="299.303" r="17.134" fill="#fff" transform="scale(-1 1)"/><circle cx="-566.934" cy="299.303" r="4.283" fill="#188200" transform="scale(-1 1)"/><path fill="#f2f2f2" d="M319.413 713.865c-.92 2.23-1.93 4.46-2.9 6.7l.45.03c.15 0 .29.02.44.03q10.605.66 21.4.7c.33.01.65.01.98.01 0-.02-.01-.03-.01-.05a3.614 3.614 0 0 1-2.62-6.26c.1-.37.16-.63.25-.99a2 2 0 0 0-.1-.24 9.698 9.698 0 0 0-17.89.07m-65.961-32.66.03.23a31 31 0 0 1 3.69 1.78c.69.38 1.36.79 2.01 1.22a4.902 4.902 0 0 1-1.98 8.92l-.1.02-.2.03a47.83 47.83 0 0 0 18.62 22.12c.4.08.79.15 1.19.22 2.02.37 4.03.71 6.05 1.02q10.53 1.71 21.27 2.76a113.7 113.7 0 0 1-2.16-22.02 109 109 0 0 1 .69-12.39c.38-3.37.9-6.73 1.58-10.05q.51-2.52 1.14-5.03a117.6 117.6 0 0 1 9.76-25.63 114 114 0 0 1 12.19-18.68 30.9 30.9 0 0 0 12.88-13.37 23.4 23.4 0 0 0 2.15-6.46c-.62.09-1.26.14-1.89.18l-.6.03h-.07a3.576 3.576 0 0 1-2.94-5.83c.27-.33.54-.67.81-1 .41-.51.84-1.02 1.25-1.53a2 2 0 0 0 .13-.15c.47-.59.95-1.17 1.42-1.75a10.2 10.2 0 0 0-3.39-3.28c-4.74-2.78-11.28-.86-14.71 3.43s-4.08 10.31-2.89 15.66a41.5 41.5 0 0 0 5.74 12.8c-.26.33-.52.64-.78.97a116.4 116.4 0 0 0-11.45 17.87c-.27.5-.53 1-.78 1.51a48.7 48.7 0 0 0-2.91-22.63c-2.78-6.71-8-12.37-12.59-18.17-5.52-6.97-16.84-3.93-17.81 4.91l-.03.25c.68.39 1.35.8 2 1.23a4.9 4.9 0 0 1-1.97 8.92l-.1.02a49.04 49.04 0 0 0 26.28 38.75c.41.21.8.42 1.2.61a112 112 0 0 0-3.23 10.76c-.44 1.7-.82 3.41-1.17 5.13a117 117 0 0 0-2.04 14.41 114 114 0 0 0 .08 18.31l-.03-.21a30 30 0 0 0-10.23-17.31c-7.88-6.47-19-8.85-27.5-14.05a5.62 5.62 0 0 0-8.61 5.47"/></svg>
