<svg width="240" height="80" viewBox="0 0 63.5 21.167" xml:space="preserve" xmlns="http://www.w3.org/2000/svg"><g aria-label="Zed NewsPodcast" style="font-weight:700;font-size:10.6158px;font-family:'PT Sans';-inkscape-font-specification:'PT Sans Bold';text-align:end;text-anchor:end;fill:#0a2342;stroke-width:.884641"><path d="m20.518 6.32 3.142-4.394.552-.446h-3.694V.185h5.148V1.48l-3.163 4.437-.542.404h3.705v1.295h-5.148zM30.4 7.16q-.318.254-.87.435-.541.17-1.157.17-1.284 0-1.879-.743-.594-.754-.594-2.06 0-1.401.669-2.102.668-.7 1.879-.7.403 0 .785.106t.68.35q.297.244.477.658.18.414.18 1.03 0 .223-.031.478-.021.254-.074.53H27.28q.032.67.34 1.009.318.34 1.019.34.435 0 .775-.128.35-.138.53-.276zm-1.974-3.896q-.541 0-.806.329-.255.318-.308.86h1.974q.043-.574-.18-.882-.213-.307-.68-.307ZM36.06 5.748q0 .445.01.891t.095.988h-.987l-.191-.69h-.043q-.212.371-.615.605-.393.223-.934.223-.998 0-1.55-.659-.552-.658-.552-2.059 0-1.359.615-2.113.616-.753 1.805-.753.33 0 .541.042.213.032.425.117V.185h1.38zm-2.347.849q.403 0 .637-.191.234-.202.33-.573V3.582q-.15-.117-.33-.17-.18-.064-.467-.064-.584 0-.881.393-.287.393-.287 1.348 0 .68.234 1.094.244.414.764.414zM41.834 3.741l-.584-1.168h-.053l.17 1.168v3.875h-1.38V.132h1.062l2.813 3.96.562 1.135h.053l-.17-1.135V.185h1.38v7.484h-1.06zM51.176 7.16q-.318.254-.87.435-.542.17-1.158.17-1.284 0-1.879-.743-.594-.754-.594-2.06 0-1.401.669-2.102.669-.7 1.879-.7.403 0 .785.106t.68.35q.297.244.477.658.18.414.18 1.03 0 .223-.031.478-.021.254-.074.53h-3.185q.032.67.34 1.009.318.34 1.019.34.435 0 .775-.128.35-.138.53-.276zm-1.975-3.896q-.54 0-.806.329-.255.318-.308.86h1.974q.043-.574-.18-.882-.212-.307-.68-.307ZM56.112 2.308l.966 2.718.191.88h.043l.149-.89.679-2.708h1.263L57.768 7.67H56.75l-1.072-2.972-.138-.67h-.053l-.127.68-1.02 2.962h-1.05l-1.71-5.36h1.497l.775 2.664.128.944h.053l.18-.955.881-2.654zM62.12 6.151q0-.212-.18-.34-.18-.127-.445-.233-.266-.106-.584-.213-.319-.116-.584-.307-.266-.202-.446-.5-.18-.307-.18-.785 0-.785.467-1.2.467-.414 1.348-.414.605 0 1.093.128.489.127.765.286l-.308.998q-.244-.095-.616-.201-.372-.106-.754-.106-.615 0-.615.477 0 .191.18.308.18.117.446.223l.584.212q.318.117.584.308.265.18.445.478.18.297.18.764 0 .807-.52 1.274-.509.457-1.539.457-.562 0-1.061-.149-.488-.138-.796-.33l.382-1.029q.244.138.647.276.404.128.828.128.308 0 .489-.117.19-.117.19-.393zM20.868 13.53q.446-.086.977-.128.541-.053 1.072-.053.552 0 1.104.095.562.085 1.008.361.446.266.722.754.287.478.287 1.253 0 .7-.244 1.189-.244.477-.648.785-.403.308-.923.446-.51.138-1.062.138H22.747l-.255-.021q-.117-.01-.17-.021v2.558h-1.454zm2.166 1.071q-.213 0-.404.022-.19.01-.308.032v2.41q.043.01.128.02l.18.022h.319q.286 0 .562-.053.287-.053.51-.191.223-.149.35-.404.138-.255.138-.669 0-.35-.127-.573-.128-.233-.34-.371-.202-.138-.467-.191-.265-.054-.541-.054zM26.271 18.232q0-1.348.659-2.07.658-.733 1.847-.733.637 0 1.104.202.467.202.775.573.308.361.456.882.16.52.16 1.146 0 1.348-.659 2.08-.647.723-1.836.723-.637 0-1.104-.202-.467-.202-.786-.563-.308-.371-.467-.891-.149-.52-.149-1.147Zm1.423 0q0 .35.064.648.063.297.19.52.128.223.33.35.212.117.499.117.541 0 .806-.393.266-.393.266-1.242 0-.732-.244-1.178-.244-.457-.828-.457-.51 0-.796.382-.287.383-.287 1.253zM36.739 19.018q0 .445.01.891t.096.988h-.988l-.19-.69h-.043q-.212.371-.616.605-.393.223-.934.223-.998 0-1.55-.659-.552-.658-.552-2.059 0-1.359.616-2.113.615-.753 1.804-.753.33 0 .542.042.212.032.424.117v-2.155h1.38zm-2.347.849q.404 0 .637-.191.234-.202.33-.573v-2.251q-.15-.117-.33-.17-.18-.064-.467-.064-.584 0-.88.393-.287.393-.287 1.348 0 .68.233 1.094.244.414.764.414zM41.707 20.557q-.319.233-.775.35-.446.128-.924.128-.637 0-1.083-.202-.435-.202-.71-.563-.277-.371-.404-.891-.117-.52-.117-1.147 0-1.348.605-2.07.605-.733 1.762-.733.584 0 .934.096.361.096.648.244l-.33 1.125q-.243-.116-.487-.18-.234-.064-.542-.064-.573 0-.87.382-.298.372-.298 1.2 0 .34.075.626.074.287.223.5.148.212.382.339.244.117.563.117.35 0 .594-.085.244-.096.435-.223zM42.514 15.886q.424-.191 1.008-.297.584-.117 1.22-.117.553 0 .924.138.372.127.584.372.223.244.308.583.096.34.096.765 0 .467-.032.945-.032.467-.043.923 0 .457.032.892.032.424.16.807h-1.126l-.223-.733h-.053q-.212.33-.594.573-.372.234-.966.234-.372 0-.67-.106-.296-.117-.509-.319-.212-.212-.329-.488-.117-.287-.117-.637 0-.488.213-.817.223-.34.626-.542.414-.212.977-.286.573-.085 1.274-.054.074-.594-.085-.849-.16-.265-.712-.265-.414 0-.88.085-.457.085-.754.223zm1.751 3.949q.414 0 .658-.18.244-.192.361-.404v-.69q-.329-.032-.637-.01-.297.02-.53.095-.234.074-.372.212-.138.138-.138.35 0 .298.17.468.18.159.488.159zM50.008 19.421q0-.212-.18-.34-.18-.127-.446-.233-.265-.106-.584-.213-.318-.116-.584-.307-.265-.202-.446-.5-.18-.307-.18-.785 0-.785.467-1.2.467-.414 1.348-.414.605 0 1.094.128.488.127.764.286l-.308.998q-.244-.095-.616-.201-.371-.106-.753-.106-.616 0-.616.477 0 .191.18.308.18.117.446.223l.584.212q.319.117.584.308.265.18.446.478.18.297.18.764 0 .807-.52 1.274-.51.457-1.54.457-.562 0-1.06-.149-.49-.138-.797-.33l.382-1.029q.244.138.648.276.403.128.828.128.308 0 .488-.117.191-.117.191-.393zM51.739 15.578h.732v-.998l1.38-.393v1.391h1.295v1.168h-1.295v2.038q0 .552.106.796.117.234.425.234.212 0 .36-.043.16-.042.351-.127l.244 1.062q-.286.138-.668.233-.383.096-.775.096-.733 0-1.083-.372-.34-.382-.34-1.242v-2.675h-.732z" style="text-align:start;text-anchor:start"/></g><path d="M42 32h20C62 15.4 48.6 2 32 2S2 15.4 2 32s13.4 30 30 30V32Z" fill="#83bf4f" style="fill:#188200;fill-opacity:1" transform="translate(24.94 13.35) scale(.12452)"/><path d="M52 54.4c6.1-5.5 10-13.5 10-22.4H52v22.4" fill="#ff8736" style="fill:#e37700;fill-opacity:1" transform="translate(24.94 13.35) scale(.12452)"/><path d="M42 32v28.3c3.7-1.3 7.1-3.3 10-5.9V32Z" fill="#3e4347" style="fill:#000;fill-opacity:1" transform="translate(24.94 13.35) scale(.12452)"/><path d="M42 32H32v30c3.5 0 6.9-.6 10-1.7z" fill="#c94747" style="fill:#d31e0f;fill-opacity:1" transform="translate(24.94 13.35) scale(.12452)"/><path d="M57.5 22.3c1.3-.7 1.5-1.4 1.5-1.4 0-.1-.9.5-2.5 1.2 2-1 2-1.8 1.9-1.8-.3 0-1.5.8-3.1 1.5 1.4-.7 2.1-1.5 2-1.6-.3.3-3.4 1.5-3.4 1.5.4-.2.7-.7.4-.7-.5.4-2.4.7-3 .8-.4.1-1.5.5-1.8.5-2-.1-2.5.1-2.5.1l.1.1H47c0-.1-.1-.1-.1-.1-.3-.6.1-.8.3-.9.2 0 .2 0 .4-.1-.1 0-.2-.1-.3-.1.2 0 .5 0 .4.4.2-.1.7-.6-.6-.7-.4-.4-2.1-.7-2.6 1.2 0 0 .1 0 .2.1-.5-.2-2-.4-2.5-.5-1.4-.4-2.9-1.3-3.1-1.2-.2.1.9 1 .8 1-.9-.5-1.8-.8-2.5-1.2-.5-.2-1.1-.6-1.2-.5-.2.4.9 1.3 1.1 1.5.2.1 1.8.8 1.8.8-2.4-1-2.8-1.2-2.9-1.3-.2 0-.7-.7-.9-.6-.1.1.1 1.1 1.2 1.5 0 0 .2.1.3.1l-.6-.2c-.5-.2-1.1-.8-1.2-.7-.1.1.3.7.8 1 .2.1.6.3 1.2.5-.5-.2-1.1-.4-1.4-.5-.4-.2-.5-.4-.6-.4-.1 0 .1 1 2.7 1.6-.1 0-.5 0-.5.1s.2.4 1.5.4c.2 0 1.1-.3 1-.2 0 0-1.3.4-1.4.4-.1 0-.5.1-.5.1 0 .1.3.3 1 .4.6 0 1.9-.4 1.8-.3l-1.2.4s-.5 0-.5.1.6.6 2.5 0c-.2.2-1.1.4-1.1.4s.2.2.5.3h.6c.4-.1.7-.2 1.2-.6.1.1-1.2.7-1.1.8.3.2 1.2 0 1.2-.1.1 0 1.8-.9 1.7-1 0 .1-2.2 1.2-2.2 1.3.1.2.9 0 .9 0l1-.5s-1.1.6-1 .7c0 .3 1.3-.1 1.7-.3-.2.1-.7.4-.7.5.3.5 1.3.3 1.4.2.1-.1-.1.3 0 .3 0 0 .2-.2.3-.4 0 .1-.1.3-.2.6-.1.2-.1.5-.2.8 0 .1.4-.1.5-.8 0 .4-.2 1-.1 1 0 0 .1 0 .2-.1v.1c0 .1-.1.5-.6.5-.6 0-.6.5-.6.5s-.1 0 0 .3c.1-.2.2-.2.2-.2.1 0 .4.1.8-.2-.4.4-.2.5-.2.5s-.1.3.2.4c-.1-.1 0-.2 0-.2s.4 0 .4-.5c0 .4.3.6.3.6s0 .2.3.3c-.2-.1-.1-.3-.1-.3s.4-.2.1-.7c.1 0 .1-.1.2-.1v.2c0 .3 0 .3.2.5-.1-.2 0-.3 0-.3s.3.1.5-.2c-.2.4-.1.5 0 .5 0 .1-.1.4.3.4-.1-.1-.1-.3-.1-.3s.4-.1.2-.7c.1-.1.2 0 .2 0s0 .4.4.3c.1.1 0 .3 0 .3s.2 0 .3-.2c.1-.2.1-.5-.2-.6 0-.1.1-.1.1-.1s.2.1.3.2c.1.1 0-.3-.3-.3-.4 0-.4-.1-.4-.1V28c.3.2.6.2.6.2 0-.1-.6-.8-.5-.9.2 0 .4.4.6.3-.1-.1-.3-.1-.5-.4 0-.1-.1-.1-.1-.2 0 0 .5.5.9.5.2-.1-.3-.4-.3-.5.2.2.9.7 1.4.5.2-.3-.3-.2-.9-.9.4.3 1.4.8 1.9.6.1-.1-.4-.4-.8-.8.2.1.3.2.4.2.5.2 1-.1 1-.1 0-.1-.2-.1-.5-.2.6.1 1 0 1.1-.1 0-.1-.1-.1-.7-.2 1.2.2 2.2-.5 2.2-.5s.3-.1-.2-.1c3.4-.4 4-1.9 4-1.9-.1 0-.7.4-1.5.7 1.5-.7 2.2-1.6 2.2-1.7-.1-.8-.6-.5-1.3-.2Zm-19.4.7c.3-.1.6-.1.5-.1 0 0-.3.1-.5.1zM37 21.9c.7.3 2 .7 1.9.7.1.1-1.1-.4-1.9-.7zm11.7 3c-.1-.1-.2-.3-.2-.3 0 .1.1.2.2.3zm6.5-.9c-1 .3-2.2.4-3.7 0 1.5.3 2.7.2 3.7 0zm.6-1c-.2.1-.4.2-.6.2.2 0 .4-.1.6-.2zm-9.6 3.4v-.3zm1.6 1.5s-.4 0-.7.1c-.1 0-.3-.1-.4-.2-.1-.1 0-.7 0-.7l.3.3c0-.3 0-.3-.1-.5 0-.3.1-.8.1-1.4.5.9.7 1.3.6 2 .1 0 .1-.1.2-.2v.5c.1 0 0 0 0 .1zm.3-2.7c.1.1.1.1 0 0zm7.4-1.3c.1 0 .1 0 .2-.1-.1.1-.1.1-.2.1zm-9.3 3.6z" style="fill:#e37700;fill-opacity:1" transform="translate(24.94 13.35) scale(.12452)" fill="#ff8736" stroke="#2b2b2b" stroke-width=".25" stroke-miterlimit="10"/><g transform="translate(-7.71 -9.927) scale(.04167)"><circle style="fill:#188200;fill-opacity:1" cx="439.027" cy="492.254" r="254"/><path style="fill:#324a5e" d="M502.227 638.254c25.6-88.4 42-204 42-238v-5.2c-2.4-54.4-48.8-96.4-103.2-96.4h-4c-54.4 0-100.4 42-103.2 96.4v5.2c0 34 16.4 149.2 42 238z"/><path style="fill:#ffd05b" transform="translate(185.027 238.254)" d="M144.8 406h218.4L304 299.2H204z"/><path style="fill:#ff7058" d="M484.227 627.454s-17.6 90-38.4 118.8h-10.4c-11.6-22.4-47.2-92-41.6-118.8 0 0 35.6 25.2 90.4 0z"/><path style="fill:#f9b54c" d="M489.827 539.054c-.4-.4-.4-1.2-.8-1.6 0 0-.8 4.4-6 10.8-22.4 28-65.6 28-88 0-5.2-6.4-6-10.8-6-10.8-.4.4-.4.8-.8 1.2 2-3.2 2.8-6.8 3.2-10.8l1.2-14.8 3.2-45.2h86.4l4.4 60c.4 3.2 1.2 6.4 2.4 9.2.4.8.4 1.6.8 2z"/><path style="fill:#e6e9ee" d="M246.4 508c-4.4 0-8.4-.4-12.8-.8-70.8-5.6-133.2-40-176-92 21.2-41.2 51.2-44.8 51.2-44.8 55.2-26.4 88.4-64 90.4-66.4l-12 26 23.6 101.6zM450 415.2c-16.8 20.4-36.8 38.4-59.2 52.8-37.6 24-81.6 38.4-129.2 40l35.2-76.4 24-101.6-12.8-26c2 2.4 36 40 91.2 66.4 0 0 1.2 0 3.2.8 8.8 2.4 31.2 11.2 47.6 44z" transform="translate(185.027 238.254)"/><path style="fill:#fff" d="M211.6 396s21.2 60.4 40 112c-6 0-12-.4-17.6-.8-15.6-22.4-32.8-45.6-55.2-57.6l7.2-36.8h-36c14.8-66.4 51.6-111.2 54-113.2-1.2 2.4-19.2 38 7.6 96.4zm110.8 16.8 7.2 36.8c-22.4 12-39.6 35.2-55.2 57.6-4 .4-8.4.4-12.4.8h-5.2c18.8-51.6 39.6-112 39.6-112 26.8-58.4 8.8-94 7.6-96.4 2.4 2 39.2 46.8 54 113.2z" transform="translate(185.027 238.254)"/><path style="fill:#ffd05b" d="M339.2 172.4c0 58.4-38 131.6-85.2 131.6s-85.2-73.2-85.2-131.6c0-58.4 38-79.6 85.2-79.6s85.2 21.6 85.2 79.6z" transform="translate(185.027 238.254)"/><path style="fill:#ffd05b" d="M351.2 207.2c-6 13.2-16.4 20.8-23.6 17.2-7.2-4-8-17.6-2-31.2 6-13.2 16.4-20.8 23.6-17.2 6.8 4 7.6 18 2 31.2z" transform="translate(185.027 238.254)"/><path style="fill:#324a5e" d="M318.8 114s-19.2 39.6 20.4 63.2l6.8-22-14.8-43.2-7.6-9.2z" transform="translate(185.027 238.254)"/><path style="fill:#324a5e" d="M328 105.2s-10.8 36-86.8 64.8c-27.6 10.4-48.4 34.4-55.2 63.2-3.2 14-6 30-7.2 47.2l-15.6-51.2-5.2-80.8 18-45.2L228 92Z" transform="translate(185.027 238.254)"/><path style="fill:#324a5e" d="m270.4 120.4-44.8-20.8 17.6-25.2L302 82l8.4 17.6zm20.4 226.8h-66.4c-1.6 0-3.2 1.6-2.8 3.2v20.4c0 1.6 1.2 3.2 3.2 3.2h66c1.6 0 3.2-1.6 3.2-3.2l.4-20.4c-.4-1.6-2-3.2-3.6-3.2z" transform="translate(185.027 238.254)"/><path style="fill:#ff7058" d="m535.027 606.654-3.6 124.8c-22 7.2-45.2 12-69.2 14-4.8.4-9.6.8-14.8.8h-17.2c-4.8 0-10-.4-14.8-.8-24-2-47.2-6.8-69.2-14l-3.2-124.8c0-4 2.8-7.2 6.4-7.2h179.2c3.6 0 6.8 3.2 6.4 7.2z"/><path style="fill:#f1543f" d="M284 374.4c0 2.8-2.4 5.2-4.8 5.2-2.8 0-4.8-2.4-4.8-5.2 0-2.8 2.4-5.2 4.8-5.2 2.8 0 4.8 2.4 4.8 5.2zm-43.2 0c0 2.8-2 5.2-4.8 5.2s-4.8-2.4-4.8-5.2c0-2.8 2-5.2 4.8-5.2s4.8 2.4 4.8 5.2z" transform="translate(185.027 238.254)"/><path style="fill:#2b3b4e" d="M455.027 497.854v-3.6c63.2-1.2 66-47.2 66-48h3.6c-.4 1.2-2.8 50.8-69.6 51.6z"/><path style="fill:#324a5e" d="M337.6 214.4c-4.8 0-8.4-3.6-8.4-8.4v-17.6c0-4.8 3.6-8.4 8.4-8.4 4.8 0 8.4 3.6 8.4 8.4V206c0 4.8-3.6 8.4-8.4 8.4zM283.2 262h-18.8c-2.8 0-4.8-2-4.8-4.8s2-4.8 4.8-4.8h18.8c2.8 0 4.8 2 4.8 4.8 0 2.4-2.4 4.8-4.8 4.8zm76-105.2s-12.4 169.6 26 174c0 0-17.6 43.2-53.6 2-1.2-1.2-1.6-2.8-2-4.4v-.4c-5.6-24-2.8-48.8 7.6-70.8l16.4-34.4 2.4-47.6zm-210.4 0s12.4 169.6-26 174c0 0 17.6 43.2 53.6 2 1.2-1.2 1.6-2.8 2-4.4v-.4c5.6-24 2.8-48.8-7.6-70.8l-16.4-34.4-2.4-47.6Z" transform="translate(185.027 238.254)"/><path style="fill:#324a5e" d="m338 290.4-8.8-14.8-24.4 19.2s10.8 29.6 34.8 46.4l7.2-25.6c-5.6-7.6-8.4-16.4-8.8-25.2zm-168.4 0 8.8-14.8 25.6 19.2s-12 29.6-35.6 46.4l-7.2-25.6c5.6-7.6 8.4-16.4 8.4-25.2z" transform="translate(185.027 238.254)"/></g></svg>
