<svg xmlns="http://www.w3.org/2000/svg" xml:space="preserve" width="240" height="80" viewBox="0 0 63.5 21.167"><path d="M44.083 12.606h-8.807V10.98l5.673-8.144h-5.524V.763h8.51v1.625l-5.673 8.144h5.821zm5.424-9.222q1.26 0 2.156.48.913.482 1.41 1.394.498.912.498 2.239v1.194h-5.839q.034 1.045.614 1.642.597.597 1.642.597.88 0 1.592-.165.714-.183 1.477-.548v1.908q-.664.331-1.41.48-.73.167-1.775.167-1.36 0-2.405-.498-1.045-.514-1.642-1.543t-.597-2.587q0-1.592.53-2.637.548-1.062 1.51-1.593t2.24-.53m.017 1.758q-.713 0-1.194.464-.465.465-.548 1.443h3.467q0-.547-.2-.978-.182-.432-.563-.68-.382-.25-.962-.25m8.923 7.63q-1.51 0-2.471-1.178-.946-1.194-.946-3.5 0-2.322.962-3.516t2.522-1.194q.646 0 1.144.182.498.166.846.464.365.299.614.68h.083q-.05-.265-.117-.762-.066-.515-.066-1.045V0h2.471v12.606H61.6l-.481-1.178h-.1q-.232.365-.597.68-.348.299-.83.481-.48.182-1.144.182m.863-1.974q1.028 0 1.443-.597.414-.614.431-1.825v-.265q0-1.327-.415-2.024-.398-.696-1.492-.696-.813 0-1.278.713-.464.696-.464 2.023t.464 2.007q.465.664 1.31.664" aria-label="Zed" style="font-weight:700;font-size:16.5864px;font-family:&quot;PT Sans&quot;;-inkscape-font-specification:&quot;PT Sans Bold&quot;;fill:#0a2342;stroke-width:1.38218"/><path fill="#fefee9" d="M365.279-129.419c6.253-.774 12.479-1.905 18.732-2.722 2.73-.357 5.526-.502 8.241-.948 1.635-.269 3.251-.682 4.885-.949.442-.072.926-.016 1.372-.073 2.293-.294 4.603-1.172 6.902-1.37l11.65-.403c.602-.02 1.252-.345 1.86-.412 3.482-.385 6.919-.774 10.375-1.349.31-.052.671.05.98-.004.88-.155 1.871-.44 2.772-.307l5.615-.882c.426-.06.88-.018 1.309-.066a78 78 0 0 0 5.898-.923c.362-.07.758-.317 1.117-.36.126-.015.575.163.695.146 2.383-.335 6.174-.607 8.44-1.24.188-.052 1.55-.454 1.653-.46.77-.056 1.624.224 2.395.174.831-.054 1.983-.476 2.886-.583 4.774-.568 9.495-1.365 14.263-1.967.413-.052.888-.063 1.247-.304 1.143 2.65 2.057 6.047 3.133 8.398.306.667 1.061 1.511 1.493 2.127l5.207 7.412c.228.325.591.591.836.907.808 1.037 1.445 2.226 2.263 3.254.614.773 1.327 1.477 1.951 2.243.573.706 1.209 1.506 1.711 2.263.104.156.191.621.294.764.596.832 1.34 1.63 1.992 2.423.167.204.214.563.382.766 1.46 1.77 2.88 3.832 4.722 5.237.578.44 1.411.964 2.054 1.306.253.134.637.126.891.26.62.326 1.144 1.03 1.77 1.323 1.547.728 5.143 1.411 6.772.93.924-.273 2.145-1.444 2.887-2.036.385-.308.509-.83.693-1.264.485-.427 1.508-.698 2.11-.918.323-.117 1.268.095 1.652.146l.883.862c.741-.036 1.475.032 1.933.677l.142.807c.653.472.734 1.2 1.547 1.744l1.791-.153c.397-.57 1.67-2.008 2.449-2.066.307.147.655.56.796.861l.661-.505c.229.08 1.145.465 1.354.352l.731-.776.37.028.177-.154c.114-.356.065-.968-.112-1.298l.225-.42 1.006-.187.245 1.166.799.571c.201.783.603 1.934 1.142 2.565.449.032 1.076.387 1.408.67 4.164.433 3.085-1.062 5.758 1.672-.145.664 1.077 2.33 1.468 2.79.755.196 2.627-.336 3.518-.31.91.025 1.394.915 2.346.858.123.132 1.769 1.881 1.787 1.924 1.369 3.248 1.651 6.504-.057 9.701.438.994.894 1.92 1.404 2.881.132.072 1.408.746 1.45.79 1.608 1.728 3.283 2.405 5.529 3.213.506.866 1.229 2.391 2.012 3.046 1.759-.199 1.514 1.1 4.276.328.292.017.771.624.906.84.585-.619.463-.465 1.392-.792.809-2.082 2.427-2.355 4.39-2.463 1.002-.056 2.214-.09 3.192.301 4.256 1.144 7.107 2.417 11.089 4.271l.017.47c-.66 1.297-1.237 2.534-1.508 3.984.271.893 1.055 2.523.507 3.45.454.694 1.222 1.214 1.64 1.853.29.444.385 1.093.682 1.53.059.084.701.557.823.68.095.095.232.4.322.474.541.441 1.49.887 2.15 1.121.488-.124 1.404-.424 1.78-.792l.093-.55c2.294-.984 4.688-1.066 7.134-1.057.064 0 .147.035.21.05.989.152 1.768.61 2.687.855 1.026.272 2.693.363 3.714.086.261.387.567.978.883 1.307.088.092.646.327.782.434.9.706 1.73 1.615 2.664 2.266.517.36 1.265.511 1.805.847.453.282.932.771 1.348 1.115l.213.177c.449-.07 1.558.77 2.286.852.092-.028.57-.192.636-.194 1.095-.047 2.23-.155 3.323-.143.543.006 1.119.203 1.659.196 1.097-.013 2.251-.172 3.347-.255.331-.025.698-.269 1.03-.325.518-.088 3.078-.517 3.392-.367.226-.229 1.781-.354 2.146-.403l1.539 1.357c1.609-.116 3.103 1.145 4.33 2.034l-.651 1.872c1.339 2.294 3.058 4.41 4.618 6.554.039.053.443 1.264.512 1.458 1.085.042 2.084-.566 3.111-.797 1.857-.416 5.364 1.703 6.888 2.526.02.011 1.347.24 1.397.237 1.297-.066 4.438-.429 5.62-.082.478.14.93.471 1.406.612.276.082.651 0 .928.08.604.176 1.35 1.314 1.595 1.841.235.506.672 1.155.539 1.743.423.135 1.035.168 1.466.05 1.935.985 1.353 1.344 2.431 2.37 1.001.951 2.516 1.382 3.702 2.022.638.345 1.062.772 1.764 1 .567-.336 1.682-.818 2.368-.786-.037.431-.052 1.972.332 2.284l.743.14.688-1.157 1.32 1.778c.463.333 2.142.42 2.688.425l-.023.27c-1.572 1.201-.629 6.405-.521 8.024l.565.385c.644-.332 1.312-.79 2.042-.9.838.147 1.078 1.157 1.785 1.29 1.007.188 2.616-.04 3.076 1.233.544 1.854-.54 3.391-1.48 4.91l.01.221c.079 1.804.032.997-.314 2.37-.03.118.068.327.041.448-.072.322-.283.637-.357.96-.291 1.26-.126 2.811.057 4.071l2.139.957.986-.17 1.15-1.558c.301-.065.889-.027 1.138.188.673 1.388 2.213 2.782 2.245 4.357l.652.676.591.094.198-.177c.078-.853.637-1.593.893-2.387.018-.053.027-1.127.031-1.275l.701-.15-.364-.966-.567-.407c-.208-.952.41-2.488 1.183-3.056l.394.07.781.923c.808-.258 1.646.432 2.231.263 1.591-.458 1.83-1.13 3.618-.8 3.171 2.147 1.245 2.877 2.989 4.764-.299 2.073-.23 3.971-.128 6.04.923 2.071 3.697 3.007 4.392 4.997.325.934.467 2.138.681 3.115.069.32.668.832.936.991l1.052-.105c.919 1.284 3.464 1.008 4.262 1.797.596.59.761 1.447 1.191 2.111.242.374.833.692.935 1.17.127.592-.01 1.574.229 2.104l1.037 2.312c-.209 1.563-.627 1.043-1.502 1.87-.574.541-.746 1.271-1.545 1.69-.487.837-.223 1.857-.411 2.748-.167.788-.712 1.75-1.025 2.521-.573 1.41-1.876 4.948-1.423 6.613l1.85 2.25c1.801.261 1.105.654 2.323 1.313.516.28 1.469-.02 2.118.373 1.048.631 1.985 1.695 3.234 1.945 1.038 1.71 2.344 3.043 3.725 4.455 5.146.058 4.414 3.663 6.625 4.046l.482-.064c1.285.706 2.457.87 2.708 2.411-1.668 2.978-.832 3.107-1.436 5.541-.323.271-.825.77-.973 1.18.224.637.063 1.753-.276 2.326l1.416 1.933-.165 2.102c.114.461.586.631.763.99.278.565.46 1.325.67 1.928.012.035 0 .39 0 .448.048.042.308.252.328.293 1.595 3.147 1.757 2.72 4.92 3.855.339.56 1.21 2.243 1.126 2.938l-.93 1.36.393.651.813-.197c.546.386 1.064 1.597 1.24 2.201.567.423 1.363.825 2.06.974.205.32.615 1.164.541 1.57l.437.606-.029 1.647c-.047.092.231.6.281.704l.549.092 1.674-.796c.471.978-1.104 2.276-1.662 2.811l-.269.782c-.619.477-1.3 1.111-1.963 1.511-.312.188-.829.213-1.167.374-.433.206-2.179 2.778-2.654 3.297-.492.197-1.551-.085-1.998-.28-.613.248-.607.988-.957 1.442-.789 1.025-1.364 2.168-2.124 3.195-.238.322-.706.562-.928.89-.367.542-.786 2.08-1.464 2.273l-.636-.272-.507.132c-.32.72.487 1.938-.082 2.931-.589.252-.985.67-1.393 1.178l-.616.153c-.807 1.206-1.448.943-2.537 1.44-1.234.561-1.811 2.308-2.896 2.577-1.208.3-3.704-1.184-6.043-.778-1.264 1.702-3.124 1.86-5.111 1.555-.807 1.39-1.292 2.707-2.226 3.991-.626.348-1.661.545-2.357.633l-.17-.829c-1.624-.88-3.683 2.117-3.625 2.57.255.208.437 1.003.476 1.302l.461.115.598-.555.878.32.511-.69c.055.028.319.146.351.181.58.635 1.268 1.283 1.791 1.96.189.245.26.657.434.921.181.272.893.857.851 1.26-.216 2.034-.806 4.447-.24 6.466.17.606.598 1.19.759 1.796.264.994-.481 1.361 1.019 2.447l.212 1.367c.252.215.533.412.737.674 1.659 2.138 2.064 1.086 3.479 4.323l-.381 1.005c-.019.477.25 1.241.606 1.571l1.279-.215 1.031.477.219.315c.239.765-.104 1.122-.319 1.766-.04.12-.022.44-.069.537-.1.205-.69.976-.733 1.114-.146.468.017 1.137-.12 1.611-.229.792-1.151 1.83-.964 2.702-.315.682-1.561 1.75-2.128 2.202-.152.964-.685 1.475-.94 2.3-.094.302-.06.746-.183 1.028-.741 1.703-2.228 3.118-3.64 4.272-.475 1.48 1.007 1.886.862 2.872l-.533.646c-.443.188-1.262.191-1.696-.034l-.552.175-.512.78.017.716.786 1.125c.198.912.402 3.316-.708 3.868l-.574.085c-.529-.042-2.188-1.733-2.718-2.213l-.018-.627c-.152-.27-.587-.58-.9-.61l-.755.89c.034.686-.534 1.207-.476 1.943.951 2.504 3.062 1.974 1.349 6.123l.951.946c.224.643-.017 1.896-.227 2.505-.243.284-.867.948-1.242 1.066-.193.486-.595 1.09-1.023 1.403l-.045 3.447c1.92-.328 1.525-.228 3.403-1.117l1.739.527.6-.689.417.204c.135.16.333.542.282.763.367.09 1.58.516 1.759.908.529 1.163.665 2.728.572 3.99-.072.988-.214 2.031-.221 3.02-.01 1.391.169 2.794.171 4.187.001.2-.181.96-.161 1.096.163 1.156.552 2.398.815 3.542.044.19-.131.67-.094.873.214 1.185 1.267 2.816 1.056 3.947-.343 1.847-2.853 4.16-2.729 5.6.104 1.21 1.523 1.823 1.724 3.078.418 2.611-.685 3.58-1.184 5.588-.049.195-.012.314-.019.516-.017.48-.24 1.535-.239 1.744 0 .655.368 1.487.073 2.307-.565 1.572-.968 1.612-1.452 2.541-.171.327-.272.89-.384 1.251-.021.065-.073.138-.105.198-1.183 2.213-1.772 4.516-2.438 6.927-.355 1.286-.252 2.491.352 3.671.311.61 3.084 1 3.706 1.012l.395.473c-.121 1.303.054 2.563.218 3.852.165 1.284-.879 2.344-.049 4.252l.637.587.929.097c.418.797.335 1.663.581 2.488.548 1.843 2.979.768 3.032 6.422l.376.047c2.633-1.659 4.241-.034 5.956-1.05.688-.41 1.346-1 1.997-1.484l2.08.025.9.945 1.569.19.902.766.332-.02 1.067-1.024.464.025c.675.531 1.396 1.676 1.578 2.517-.333 1.48-.222 1.37-1.604 2.242-.572.505-1.203.67-1.821 1.05-.704.432-.808 1.356-1.426 1.692-.365-.008-1.05.146-1.308.44l-.642.04c-.235.237-.407.751-.449 1.071l.693 2.511c-.112.312-.519.726-.758.936l-1.128-.052c-.264.141-1.042.675-1.068 1.022-1.347.211-3.484 3.138-3.146 4.48-.318.708-1.278.706-1.844 1.084-1.061.708-1.789 1.917-2.921 2.383l-.304.125c-.708-.08-2.211-.779-2.647-1.249l-.152-.427c-.388-.41-.983-.775-1.499-.995-1.17.312-1.962.944-3.193 1.075-.685.072-1.256-.076-1.817.502l.081 1.03c-.975 1.141-2.292 2.527-2.903 3.92-1.079.84-1.536.198-3.156 1.811-.181 1.191-.409 2.543-1.681 2.964l-.509-.025c-.475-.657.474-2.076.264-2.93-.396-.732-1.648-1.45-2.446-1.563-.08-.012-1.302.13-1.461.146-.862.086-1.522.764-2.069 1.395l-.819.084c-.554-.163-1.255-1.128-1.494-1.6l-.441-.184-.269.378c-.895.11-1.069.721-1.668 1.084-.142.086-.78.182-.888.262-1.37 1.023-2.038 2.472-2.84 3.917l-.621.085c-1.269.906-.574 3.68-1.254 4.824-.804 1.352-1.842 2.497-2.975 3.736-.302.23-.8.523-1.047.798-.668.74-.692 7.284-.729 8.253-.01.25.089.62.126.873.197.296 1.003.997 1.276 1.152 1.184.67 1.768 1.637 2.795 2.462.648.521 1.503.44 1.873 1.38.222.563.16 1.091.542 1.64 0 .834-.62 1.62-.816 2.41-.033.135.035.812.015 1.007-.147 1.39-.917 2.638-.497 4.136-.295.982-.932 1.08-1.23 1.58-.311.518-.536 1.948-1.147 2.184l.083.717.702.878.081 1.12c-.417.771-.997 1.365-1.568 2.023.065.94.322 2.624-.491 3.354-.156 1.42.274 3.18.586 4.548.736.56 2.056 1.862 2.441 2.771.178.42.216.924.389 1.346.162.397.474.626.568 1.146-.345.87-2.507 1.086-3.274 1.696l-.298 1.23c-.743.384-.602 1.603-1.058 1.848-.232-.058-.953-.175-1.176-.03l-.174.243c-.095.133-.707.955-.746 1.046-.287.658-.221 1.525-.683 2.12.229.585-.279 1.92-.551 2.412l.106.471c-1.031 1.858-1.004 3.563-1.021 5.586-.01.592-.381 2.036-.686 2.523l-2.542 4.051c-.237.38-.754.821-1.206.907-.527-.112-2.44-.4-2.908-.092-.379 1.065-.214 3.712.205 4.812l-.25.714c-.889.358-1.375 1.306-2.147 1.727-1.077.588-2.003.055-2.699 1.431-1.435.54-.812.406-2.535.313-.931.735-.982 2.271-1.779 2.804-.32-.068-1.222-.187-1.532-.014l-.664-.342-.289.042-1.479-1.087-1.2.012-.269.266.038.65-.913.281.339 1.86-.987 1.132c0 .33.318.802.569.99.991.115 1.522.965 2.344 1.341.672.31 1.313-.102 2.126.825.859-.124 1.723.39 2.618.448l.518-.778c1.346-.465 2.885.404 3.632 1.508l.098 1.59c.901.544 4.097 3.073 4.164 4.376-.128.43-.915.871-1.297.996l-1.354-.169-.916.574-.072.626-1.055 1.221-1.202.124-.393 1.741-.717.62.353.384c.524-.079 1.084-.248 1.579.036.386.73 1.131 1.133 1.406 1.892l.511.05.392-1.608 1.866.195 1.281 1.085 1.269-.235c-.08.338.01.883.169 1.187l.757-.239c.634.382 1.937 1.36 2.252 2.077-.182 1.786 1.092 3.562 2.679 4.317.443.211.886.201 1.239.682.353.478.647 1.148.942 1.672.223.396.386.854.569 1.271-.471.573-.8 1.65-.908 2.364l.351.674.354.204c1.468-.712 3.618.025 4.708 1.111.259.465.375 1.2.32 1.725-1.175 1.342-1.58 2.898-1.126 4.688l.927 1.015c1.306-.088 2.661 2.877 3.742 2.4 1.931-2.476 2.529-2.17 2.669-5.772.793-1.213 2.135-2.035 3.27-2.884.559-.417 2.048.34 2.604-.203l1.061-2.073.847-.217 2.57 1.54c1.144.686.794 2.092.96 2.67.229.792 1.211 2.015 1.882 2.486l-11.765 4.104c-.939.327-1.882.88-2.838 1.243l-10.065 3.821c-.454.173-.974.188-1.426.382-.752.32-1.231.355-1.765.554-2.238.831-4.473 1.688-6.721 2.493-1.522.546-3.107.955-4.62 1.525-3.278 1.237-6.538 2.508-9.913 3.735-1.164.287-2.129.781-3.244 1.202-1.377.52-2.809.921-4.178 1.46-2.388.937-4.735 2.076-7.089 3.107-.236.104-.57.085-.803.193l-7.183 3.352c-.82.383-10.312 2.08-12.152 2.193-.261.016-.457.194-.702.247-2.271.485-4.635.88-6.876 1.471-1.15.303-2.364.854-3.489 1.26-1.333.48-2.617.684-3.914 1.365-.05-.005-.418-.059-.444-.049-1.939.67-3.918 1.292-5.838 2.015-1.298.488-2.581 1.428-3.896 1.812-.714.208-1.584.206-2.321.354-2.575.515-5.102 1.11-7.607 1.886l-.326.102c-3.668 1.434-7.136 3.556-10.621 5.393-2.433 1.282-5.3 1.75-7.971 2.298l-.203.243c-.906-.164-1.889.158-2.752.362-1.054.25-2.458.406-3.438.812-2.572 1.064-5.006 2.738-7.323 4.267-.228.15-.692.224-.983.388-1.502.843-3.036 1.656-4.517 2.536-.413.245-.776.621-1.193.856-.154.087-.474.082-.627.17l-3.572 2.054a49 49 0 0 1-1.706.805c-.146.04-.528-.04-.691-.01-4.423.87-8.797 2.104-13.221 2.903-1.826.331-3.706.49-5.522.861-2.457.501-4.967 1.386-7.391 2.062-.093.025-.453.418-.564.461-.327.126-.782.07-1.118.186l-8.722 3.001c-.023.008-.605-.11-.668-.122-.519.337-3.337 1.177-4.034 1.258-.103.013-.384-.097-.468-.073-4.336 1.187-8.656 2.333-13.027 3.393-2.67.647-5.65 1.142-8.255 2-1.888.622-3.817 1.581-5.661 2.346-2.134.884-4.366 1.617-6.534 2.42-.102.037-.288.3-.385.328-1.182.366-2.403.691-3.567 1.104-.643.23-1.243.68-1.89.886-.407.13-.885.18-1.278.336-.265.105-.504.364-.767.48a46 46 0 0 1-3.259 1.285c-1.078.375-2.23.598-3.299.995-.348.13-.723.454-1.06.63-1.531.8-3.177 1.457-4.748 2.177-.093.043-.247.33-.341.374-2.633 1.262-5.413 2.881-8.216 3.77-.495.157-1.148.338-1.66.418-.187.03-.768-.054-.915-.016-.492.125-.972.48-1.463.622-.479.14-1.035.125-1.522.241-.228.055-.426.224-.652.28-2.539.625-5.084 1.162-7.547 2.046l-.063.32c.117.734.589 1.186.925 1.805.282.52.412 1.33.592 1.91l-.166.556-.727.636-.4 1.177.36 1.08c-.566 2.59-.491 1.462.781 3.836.178.332-.211 1.814-.31 2.296l.215.496c.286.13 1.237 1.03 1.296 1.297.345 1.556.633 1.337 1.118 2.501.033.08.2 1.104.244 1.345-.188.673-.336 1.223-.369 1.915 1.016 1.125 1.479 2.097 2.239 3.594 1.201.891 2.517 1.731 3.643 2.701.042.036.67 1.034.849 1.311.398.412.816.932 1.252 1.296.254.212.653.34.931.53.473.325 2.246 2.438 2.407 3.06.154.593.201 1.304.295 1.916.231 1.506.719 1.107.534 3.001-.081.833-.377 1.994-.268 2.756.205 1.438 1.182 3.673 1.855 5.017-.252 1.292-1.328 2.757-1.947 3.935-.654 1.245-1.464 2.458-1.406 3.891.692.652 1.8 1.407 2.291 2.162.413.634.899 1.283 1.265 1.942.471.848.504 1.494 1.399 2.144l-11.442 2.714c-1.404.468-2.401-.855-3.084-1.805l-.424-.097c-1.207 1.09-2.688 2.813-4.114 3.478l-.715-.124-.374-.387-.145-.673c-.652-.854-2.404-2.507-3.464-2.832-.399-.122-3.353-.153-3.917-.05-.899.166-1.844.562-2.744.665-1.12.128-2.339-.017-3.471.047-.978.056-1.802.525-2.723.687-.838.147-1.971.03-2.904.18-3.444 1.123-3.22.724-6.17-1.257-.54-.362-2.278.15-3.114-.094-.78-.229-1.532-.794-2.325-.98-.614-.147-1.495-.055-2.151-.13-2.459-.285-5.057-.309-7.445.428-1.958.604-3.676 1.964-5.658 2.611-.501.164-1.154.104-1.674.232-2.126.526-4.307 1.491-6.506 1.665-3.784.3-3.44-2.354-6.328-1.98-3.3.425-3.531 3.81-5.83 4.284-1.431.295-6.704.182-7.532.763-.532.374-1.135 1.143-1.604 1.615-.743.747-2.875-.188-3.919.025-1.747.358-2.019 1.531-3.056 1.886-.752.258-1.584.11-2.318.6-2.035 1.36-4.759 3.317-7.387 2.743-1.365.364-2.042 1.738-2.978 2.643-.968.934-2.386 1.556-3.5 2.293-2.02 1.336-3.799 2.974-5.786 4.364-1.415.99-2.918 1.704-3.988 3.082-.358.461-.834 1.055-1.116 1.56-.694 1.238-.979 3.023-2.633 3.394-.78-.086-2.003-.435-2.776-.383-.422.03-.858.215-1.281.248-.83.063-3.561-.2-4.189.014-.403-.016-1.211.414-1.534.616-.347.37-.653 1.55-.926 2.064-.352.663-.876 1.243-1.21 1.9-.183.36-.209.844-.383 1.211-.706 1.484-2.351 3.958-3.697 4.874l-.203.676c.062.593 1.148.76 1.365 1.365-.044.318-.644.977-.859 1.187-.213.555-.254 1.574.021 2.12l.896.643.371 1.127c-.611 1.334-1.449 2.596-2.03 3.926-.323.738.05 1.761-.003 2.545-.123 1.824-.899 1.888-.467 3.981.034.166.086.518.267.646.41.08 1.383.355 1.683.686.717 1.57-1.965 3.584-2.684 4.638-.329.482-.641 2.295-.674 2.88l.427.745 1.2.298.42.501c-.288 2.201-.67 2.026.497 3.692.015.021.026.23.031.267l-.559.844c.577 3.263-1.921 3.572-2.258 5.406-.221 1.2.381 2.501.045 3.617-.291.967-1.282 1.451-1.657 2.373-1.632.56-2.629 1.61-3.805 2.773-1.085.02-1.99 1.327-2.469 2.138-.173.064-.423.191-.6.222-2.708.458-5.579.758-8.229 1.415-1.096.272-4.659 1.853-5.883 2.362-5.173 2.153-10.425 4.157-15.588 6.313-3.037 1.27-6.076 2.516-9.105 3.795-1.257.532-3.678 1.16-4.625 1.798-2.09 1.41-5.117 4.122-7.159 5.784-1.084.882-2.169 2.033-3.404 2.784-.611.53-1.405 1.4-2.084 1.806-1.021.612-2.395 1.034-3.489 1.535-2.306 1.056-4.562 2.243-6.874 3.276-6.124 3.003-12.395 5.751-18.576 8.64-1.451 2.095-7.465 11.427-8.075 11.69-.005.043-.018.311-.035.335-3 4.23-5.922 8.521-8.847 12.803-.788 1.154-1.942 2.374-2.128 3.835-.088.692.009 1.431-.076 2.125-.227 1.856-.46 4.048-.898 5.857-.217.9-3.577 4.593-4.461 5.372-1.469 2.557-4.175 4.146-6.487 5.827l-.172.34-.249-.016c-.122.127-.26.305-.396.413-3.601 2.848-7.155 5.751-10.763 8.594-.297.234-.721.357-1.025.585-.196.146-.335.42-.528.573-1.522 1.204-3.604 2.168-4.86 3.654-.158.188-.215.525-.366.725l-3.765 4.967c-1.979 2.613-3.863 5.344-5.935 7.882-1.721 2.107-3.592 4.087-5.42 6.101-.024.027-.285.9-.314.991.376.988.671 2.522.543 3.586-1.513 1.511-3.323 2.81-4.974 4.166-.338.278-.669.418-.956.782-.993 1.264-1.846 2.557-2.785 3.846-.233.32-.591.611-.846.96-.393.533-.421 1.044-.998 1.542l-2.499-1.082c-1.851.357-2.756 2.27-4.804 1.163-1.122.198-5.402 1.723-6.411 2.25a4.6 4.6 0 0 0-1.436-.259l-1.39.746c-.799.041-2.052-.438-2.851-.629-.954.577-.174 1.68-.759 2.498-.751-.219-2.184.86-2.691 1.357-.506-.058-1.622-.23-2.055-.537-2.954.392-3.457 1.086-5.49 3.05-.267.257-.653.48-.892.757-.473.551-.83 1.572-1.557 1.853-3.022-.663-2.601-2.345-6.615-1.768-.48-.342-1.14-.714-1.727-.833.022-.756-.207-1.693-.521-2.376-.672-.225-1.383-.356-1.857-.93-.19-.957-.405-2.326-1.421-2.765-1.172-.02-2.372.008-3.54-.062-1.417-.083-2.091-1.384-3.7-1.132l-.674-.768c-.686-.135-1.276-.31-1.983-.166-.605-.67-2.098-1.62-3.065-1.516-1.544-2.457-2.937-.609-4.258-1.026-1.446-.457-2.91-1.69-4.385-.513-.336.02-.792-.112-1.071-.295-.305-.02-.768.174-.991.373l-.478-.06c-.225-.364-1.131-1.68-1.593-1.74-.628.037-3.083-.022-3.51.32-.616-.132-1.42-1.05-1.702-1.562-.294.004-.808-.175-.981-.432l.302-.967-.12-.377c-2.03.12-3.504 1.96-5.472 2.457-.65.164-1.511-.01-2.143.186-.242.074-1.291.831-1.614.968-.788.335-2.28.252-2.862.946l-.302.81c.255.378.637.778 1.018 1.032-.687.586-1.223 2.123-1.328 2.975l-1.688-.55c-1.883.67-1.842-.627-2.64-.423l-.895.767c-.736.27-1.346-.559-2.07-.44-.34.211-1.973.84-2.117 1.057l-.19 1.01c-1.991 1.531-2.311-.2-2.972-.05l-.616.188c-.131-.049-1.084-.425-1.156-.435-.585-.07-1.851.523-2.22.365l-.557-.998c-.478-.212-2.072-.773-2.593-.503l-.578-.774-.884.011c-.288-.097-.418-.9-.651-1.198l.305-.943-.07-.178c-.223-.242-.954-.326-1.252-.318l-.188-.534c.054-.453.838-1.118 1.185-1.334l-.183-.02c-.218-.175-.37-.839-.4-1.09-.604-.276-.891-1.778-1.12-2.423-1.141-.974-2.85.024-3.977-.776-.06-1.196-2.203-2.353-3.03-3.175-1.135.09-3.786-.859-4.626-1.535l-1.176.175c-.237-.392-.247-1.378-.211-1.808l-.326-.53c-.842-.13-1.984-.05-2.84.34-.396.44-.83 1.04-1.273 1.421-.652.562-2.557 1.402-3.475 1.314-1.343-.129-.99-.395-2.418.608l-.937-.659-1.132.123c-2.668-1.949-2.94 1.475-4.171 1.946l-.89.188c-.245.052-.784.127-1.035-.057l-1.988-1.453c-.362-.265-3.02-.766-3.452-.656l-.832.59-.748-.037-.527-.553c-1.175-.014-3.921.967-4.571.65-.414-.682-1.132-1.547-2.01-1.546-.294.144-1.32.536-1.647.341a119 119 0 0 0-2.863-1.668l-.725.01c-.978-.46-2.84-2.488-3.158-2.537l.147-.507-.301-.442-.768.188-.367-.308-2.786-1.686c-.522.023-1.08.037-1.601-.029-.68.614-1.991.305-2.562-.312-.403-.437-.635-1.11-1.033-1.556-.364-.405-1.485-.896-1.486-1.528.15-.6.142-1.139.12-1.744-.217-.5-1.173-.996-1.706-.902l-.654.363-.407-.019-.093-.245.467-.942-.456-.376-.566-.018-.943.88-1.22.233-.252-.244c.425-.725.805-1.792.814-2.643-.1-.244-.182-.535-.323-.758l.284-1.097-.503-.6-.43.205-.333.583-.5-.062-1.034-1.936-.226.002c-.582-.457-.804-2.006-1.535-2.139l-.65.588-.453-.128-.347-.555.295-1.769-.778-.729c-.854-.152-2.295.188-2.954.771-.773-.217-1.72-3.299-3.126-4.03-.366.155-.978.88-1.188 1.192l-.837.051-.455-.332c-.105-.376-.562-1.683-.965-1.848l-.361.092c-.615 1.547-2.44.906-3.437.204-.564-.398-.996-1.583-1.37-1.733-3.39 1.411-3.956-2.348-6.443.402-1.427.161-2.728-.379-3.201-1.767-.152-.149-.548-.213-.747-.196-.48.246-1.041.617-1.603.523l-.272-.154-.526-.912c-.547-.454-1.282-.057-2.27-1.104-.49-.146-2.686.516-2.934.8l-.588-.086c-1.868.751-2.685 1.521-4.848 1.313-.507.33-2.452 2.094-2.853 2.105-.9.024-1.664-.21-2.595-.104-.983.115-2.066.211-2.93-.45-.61.466-1.372.831-2.064 1.15l-.656-.042c-.062-.055-.377-.304-.408-.355-.36-.586-.522-1.148-.952-1.73-.092-.124-.173-.178-.235-.318-.244-.56-.381-1.325-.553-1.92l-.385-.087c-1.384-1.68-3.829-1.577-5.842-1.649l-.931-.777c-.524-.129-2.173-.294-2.623-.057l-.607.718c-1.651.118-2.688.388-3.977 1.407-.929.121-1.476-.334-2.311-.562-1.583-.434-3.273-.453-4.642-.793l-1.24-.497c-1.201-.48-2.336-.078-3.578.175l-65.594 13.34c-2.933.596-5.855 1.303-8.777 1.953-.191-.853-.3-1.744-.392-2.612-1.408-.717-2.27-2.887-3.968-3.364l-1.674.137c-.929-.385-1.632-1.758-2.517-2.408l-1.085.002c-.213.146-.973.745-1.221.717-.362-.467-.992-.842-1.51-1.078l-1.207-.549c-1.851-.53-3.592 1.8-5.407-.596l-.16-1.162c-.894-.123-1.16-1.094-1.676-1.65-.152-.166-.925-.654-1.02-.78-.354-.487-.655-1.325-.93-1.878-.453-.917-3.892-.759-4.296-1.449l.52-.736c-1.53-.79-1.934-1.436-1.743-3.083l-.271-.224c-1.262.127-3.212-.408-3.89-1.584l-.753-1.639c-.67-1.453-1.188-3.172-1.577-4.729-2.415.145-2.491-2.527-4.677-3.797.12-.385.125-1.355-.136-1.676l-1.061-.402c-.173-.85-1.47-1.986-2.326-2.057l-.248-.469c-2.097-.985-5.324-2.652-6.41-4.852-1.11-.707-2.453-.836-3.678-1.23-1.06-.344-2.113-.78-3.158-1.166-.692-.255-1.442-.76-2.211-1.03-.22-.2-.421-.66-.405-.96.209-.314.584-.949.61-1.34-.077-.157-1.68-2.658-1.824-2.773-.465-.369-5.186-3.844-5.204-4.342l.136-.603-1.126-.56c-.048-.309-.155-1.568-.403-1.744-.862-.1-1.793-.39-2.592-.719l-.383-.582.52-.736-.111-.424c-1.136-1.026-2.316-2.03-3.421-3.09-1.298-1.246-1.707-1.953-3.374-2.956.018-1.324-2.75-4.078-3.594-5.079-1.444-1.713-3.606-2.433-5.261-3.789-1.043-.854-2.004-2.07-2.875-3.09.082-.412.183-1.407-.017-1.81-2.982-1.093-7.347-6.849-9.627-9.257-1.83-1.93-2.296-1.225-3.75-2.29.173-.407.087-1.154-.15-1.52-3.192-2.054-1.964-5.237-6.657-5.79l-1.253-1.523c.053-2.543-1.846-3.228-4.17-3.078-.927-2.24-1.603-1.713-3.335-2.94-1.21-.858-2.2-3.283-3.417-4.528-.691-.213-1.444.188-2.181.1l-.492-.359c.354-.258 1.248-1.069 1.289-1.556-.21-.97-1.024-2.059-1.02-2.997l.386-.444c.176-1.386-.21-2.552-.497-3.864-.311-1.42-.533-2.96-1.077-4.314-.251-.625-.68-1.13-.731-1.835-.13-.093-1.16-.816-1.208-.877-.362-.446-.54-1.19-.866-1.679-.506-.754-1.178-1.219-1.627-2.13.55-.636.65-1.929.53-2.72-1.851-.172-1.67-1.137-2.725-2.159-.351-.34-.976-.54-1.364-.856-.331-.268-.601-.69-.914-.987-2.046-1.936-2.413-2.13-2.11-5.288a536 536 0 0 0-.032-11.619v-.603c.08-1.474.249-3.012.244-4.483-.11-32.44-.247-64.88-.192-97.322.07-42.248.11-84.49.046-126.736l-.052-67.45c30.522.115 61.07-.243 91.588-.506l101.205-.872c-1.372-1.854-.591-1.895-1.037-3.517-.281-1.023-1.121-1.25-1.748-1.904-.831-.868-2.741-3.512-3.738-3.945-1.169.252-3.008-1.117-3.808-1.888-.499-2.382-1.482-1.403-2.453-2.869-.017-.142-.142-1.059-.131-1.142.087-.698.445-1.405.535-2.104.078-.607-.075-1.289-.019-1.902.069-.76.326-1.522.402-2.282.104-1.03-.102-2.009.338-3.02.468-1.08 1.458-2.075 1.533-3.31.093-1.51-1.042-3.248-.058-4.725.938-1.407 2.168-2.838 2.619-4.495.979-3.595-1.825-5.978.676-7.476a5.6 5.6 0 0 0 .379-1.745l1.882-.758c.288-.246.325-1.264.423-1.679.449-.576 1.221-.343 1.571-.87.525-2.517 1.169-2.897 3.052-4.54.756-.66 1.426-1.14 2.376-1.452.884-.693.959-5.838.406-7.364-.368-.377-1.845-1.283-1.966-1.547.142-.617 1.635-1.207 1.883-2.326.092-.936-.748-1.746-.859-2.688l.422-1.029c-1.68-1.245-2.368-3.545-4.525-3.969-.834-.729-.83-2.113-1.233-3.084-.442-1.063-1.904-3.164-2.071-3.77-.145-.524-.053-.848-.087-1.389l-.172-2.776c.029-2.13.486-4.278.562-6.402.042-1.172.006-2.428-.038-3.604-.16-4.187-.438-8.503.549-12.627.115-.482.343-.95.466-1.432.129-.509.136-1.146.312-1.633.157-.439 1.168-1.08 1.656-1.25.054-.147.408-1.07.421-1.164.109-.784-.538-1.682-.791-2.375-.286-.784-.363-2.596-.701-3.113-.449-.686-.914-.842-1.013-1.77-.115-1.093-.144-2.217-.216-3.314a1.6 1.6 0 0 0-.043-.29c-.908-1.593-1.431-2.354-1.472-4.19-.205-.197-.816-.875-.814-1.188l.509-.67.882-.29.155-.29c.886-1.666.635-3.962 1.508-5.73.611-1.237 1.562-2.345 2.188-3.579.357-.704.628-1.526.93-2.26.167-.406-.319-2.023-.416-2.53-.378-1.98-1.002-3.675.104-5.514.317-.529.671-1.047 1.25-1.334.651-.322 1.438-.554 2.119-.817.033-.013.176-.056.196-.076.786-.797.634-.45.941-1.58.138-.504.16-1.213.054-1.732-.125-.607-2.173-7.379-2.348-7.659-.551-.884-1.577-1.93-1.846-2.936-.914-3.412.898-9.956-.511-13.365-.445-.795-1.791-.539-2.375-1.19-.344-.957.438-2.359 1.148-2.953.278-1.275-.34-1.903-.48-2.978-.508-3.89 1.127-5.979 1.136-9.31-.225-.335-.632-.674-.989-.854l.486-1.252c-.495-.959-.614-1.214-1.649-1.77-.521-.889-.681-2.706-.674-3.695l3.958-.144c2.323-.084 3.563-.08 5.387 1.5a35 35 0 0 1 2.155-.087c.316.17.685.53.864.83.865 1.444-.206 1.761-.473 3.088l.22.694 1.934 1.66c.618 1.283-.897 3.98-1.259 5.326.129.993 2.618 2.245 3.519 1.996.312-.5 1.129-1.375 1.762-1.476.871-.139 2.017.504 2.838.72.658.171 1.361.22 2.023.381.483.118.99.39 1.475.471.476.08.867-.254 1.254-.29 1.297-.119 3.801.53 5.017 1.01 1.147.453 2.135 1.394 3.169 2.038.755.471 1.576.885 2.354 1.321.123.07.533.772.587.874.897 1.685.581 2.942.403 4.768-.096.991-.121 1.99-.242 2.977.228.966.893 1.136 1.343 1.836-.088 2.338-.074 4.745-.265 7.074-.174 2.12-1.128 2.473-2.07 4.12-.955 1.666-.902 4.227-2.513 5.528-1.56 1.26-4.066-.204-5.618 1.095-.206.254-.23.825-.133 1.12 1.193 1.585 3.387 2.15 5.31 2.04.895-.052 1.73-.689 2.688-.47 1.041.238 1.503 1.164 2.313 1.724.274.19.839.24 1.123.426.849.556 1.469 1.446 2.446 1.835l.133 2.082c.126.278.486.694.793.784.04-.01.312-.074.331-.09.4-.33.845-.775 1.277-1.052.37-.236 1.014-.328 1.426-.366.691-.064 1.516-.187 2.211-.06.366.067.76.314 1.124.358 1.074.127 1.896-.746 2.533-1.479 1.484-.659 2.812 1.013 4.144.804 1.579-.673.41-2.415 1.431-3.672.605-.746 2.501-.656 3.37-1.435 1.449-1.3 1.857-3.416 2.992-4.457.573-.526 1.476-.646 2.004-1.077.799-.65 1.075-1.599 2.267-1.838l.353.246c.525-.144 1.135-.17 1.674-.18l.33-.56-.31-1.075c.169-.282.619-.734.968-.785.73.364 2.22-.059 2.863-.429.674.135 1.725.467 2.335.467.848 0 1.239-.462 1.938-.74.548-.22 2.67-.4 3.259-.364.665-.419 1.229-1.86 1.36-2.576l.573-.426c1.004.008 2.369.881 3.062.755.918-.166 1.516-1.025 2.31-1.325.989-.372 1.86.131 2.776.308.609.118 1.757-.785 2.442-.878.427-.058.925-.03 1.358-.044 1.7-.17 3.403-.18 5.006.008.534.063 1.12.427 1.652.466.09.007 1.364-.203 1.54-.228.605-.083 1.33-.102 1.916-.25.979-.25 1.905-.922 2.86-1.172.442-.117 1.557-.11 1.93-.147 3.842-.38 6.302-.265 9.556-2.617.683-.089.889-.507 1.363-.743.33-.165 2.456-.969 2.88-1.016 1.759-.194 2.157 1.156 3.898.211l.639.221-.062.963c-.487.497-1.45 1.34-1.777 1.954-.4.75.145 1.592-1.18 2.937l.047.626c.406.577.876 1.127 1.37 1.63l.046.38c-.532 1.686-2.307 1.115-3.496 1.802l-.262.74c.104.607 1.094 1.466 1.569 1.763l.289 1.074c-.501 2.301-1.906 1.092-3.32 2.182l-.172.918c.313.924.732 2.164 1.265 2.974.34.518.99.69 1.019 1.474l-.415 1.166.236.507.474 1.013c.244 1.7-.764 2.738.865 4.004l1.09.847.046.56c-.41.635-2.356 1.042-3.038 1.062l-.483.651c.26.464 1.074.884 1.59.913.87.898.238 2.89-.12 3.874.02.893 1.274 1.588 1.99 1.852.746.75-.071 3.754 1.427 4.518.4.205.932.252 1.324.466.189.103.777.692.929.758.493.214 1.174.175 1.678.375 1.606.638 2.713 2.04 4.222 2.761 1.014.485 2.247.35 3.333.502 1.447.203 2.586 1.752 2.989 3.033.244.777.184 1.69.135 2.484-.046.743-.415 1.946-1.11 2.377l-.018.963c.22.722 1.312 1.426 2.058 1.38.93-.964 1.585-.61 2.534-.95.929-.334 1.98-1.084 2.86-1.58l1.392.106c.542-.4 1.408-1.788 1.534-2.447 1.317-.773 3.14.373 3.905.117l1.01-.877.442.021c1.446.527.87 5.35 4.506 6.091 1.735 3.192 1.916 2.15 5.419 2.706 2.06.327 3.932.738 6.006.821 2.457.098 3.545-2.62 5.018-2.87.462.032 1.14.376 1.438.731.467.857.44 1.995.655 2.93.356 1.544 1.999 4.213 3.73 4.345.685.052 1.749-.202 2.449-.283.87.367 1.576.958 2.224 1.622 1.819 1.861-.388 2.712-.45 3.764l.29.446c.693.575 1.98.165 2.783.186 1.828.046 3.65.348 5.499.348 2.122 0 4.3-.19 6.423-.285 1.008-.045 2.168-.505 3.132-.468.699.026 1.22.617 2.033.367l.855-.99c1.042-.588 3.698 1.131 4.777 1.423 1.06.287 2.368-.085 3.402.402 1.214.572 1.83 1.551 3.28 1.791 1.579.263 2.925-1.312 4.048-2.155.929-.697 2.839-1.493 4.042-2.255.66-.22 1.365-.506 1.942-.587 1.39-.194 4.397.58 5.507 1.414.77.58 1.41 1.424 2.157 2.044.796.661 1.389.6 2.215.945.987.412 1.62 1.344 2.487 1.884 1.094.681 2.827.051 3.659-.768l.354.02c.776.985 2.257.488 3.235 1.384 2.562-.02 2.834.045 5.26.63.524.485 1.127 1.035 1.527 1.635l.998-.019c.699-.788 1.563-1.278 2.285-1.994.426-.422.74-.99 1.159-1.42.27-.279.71-.269.922-.657 3.9-1.387 3.265 1.354 5.983 2.567.893-.406 1.815-.779 2.684-1.233 2.165.415 3.352.83 4.447-1.495 1.252-2.658 3.115-2.457 4.75-4.477.986-1.217.925-2.746 1.665-3.82l.857-.345c.12-.715.789-1.85 1.481-2.163l.529-.02c1.375-1.147.503-2.422-.264-3.634-.042-.65.432-1.177.642-1.75.206-.563-.02-1.22.019-1.79.06-.898.417-1.808.701-2.652.16-.477 1.345-.937 1.784-2.949 1.769-.746 1.651-1.933 1.335-3.543-.102-.517-.312-1.164-.655-1.59-2.108-1.908-1.036-2.759-1.371-5.16.143-.489 1.358-1.414 1.861-1.383 1.077.065 4.148.462 5.227.105.17-.056 1.837-.845 1.866-.847 1.388-.075 3.167.978 4.411.113.364-.253.645-.692 1.005-.95.206-.148.553-.183.769-.322.52-.333 1.09-.964 1.44-1.47l.529.017c.545.398 1.353 4.807 1.5 5.446.956 4.16-.04 14.405.985 15.797 1.513 2.054 1.515 1.164 3.68 1.62.497.103 1.062.36 1.549.523.082.028.241.062.312.105.94.597 1.717 1.365 2.624 1.965.35.231.881.305 1.22.547.658.47 1.2 1.214 1.871 1.66.475.314 1.198.394 1.685.697.919.574 1.377 1.54 2.644 1.606l.925 1.85c3.22.812 6.184 2.58 6.184 6.266l-.235 1.361c-.351 2.023-.663 3.888-.215 5.921.683 3.102 2.5 2.055 2.817 3.147.299 1.031.804 2.276.965 3.324.172 1.125-.062 2.381.083 3.515.329 2.57 3.319 5.624 5.316 7.081 1.286.938 3.277.356 4.237 1.202 1.399.145 1.184 4.485 2.068 5.172l1.009.6c.385.23.882.491 1.348.537 2.493-.864 2.061-.02 3.69-.11.487-.028 1.049-.393 1.542-.445.778-.082 3.61.59 4.387.775.767-.06 1.146-1.06 1.64-1.498.747-.663 2.763-.767 3.865-1.342l.333-.636-.599-1.918.46-.386c.914-.133 2.299.822 3.152 1.125l1.307.252c.414.01.926-.154 1.347-.196.712-.07 1.46-.028 2.173-.02.7.008.411.043.876-.042l.529-.097.355.152c.044.068.326.485.339.533.244.913.434 1.98.766 2.857.458 1.207 1.307 2.453 1.902 3.623.056 1.146-.747 2.46-.309 3.52l.49.352c.535.066 2.495-1.137 3.231-1.476.961.237 1.483.85 2.181 1.07 1.998.63 5.03-.763 7 .891 1.12 1.732 2.483 4.907 2.922 6.923l.648.528.465.017c.338-.287 1.092-.738 1.561-.737l.075-1.009-.204-.355c.21-1.12 2.257-3.404 3.476-3.025l.732 1.781c1.52.333 2.951.303 3.741 1.851 1.804 1.208 1.967-2.026 4.91.043 2.394-.523 3.804-.37 5.417 1.423.265.294.484.68.766.952 1.285 1.25 2.588 2.485 3.858 3.75.526.523 1.028 1.208 1.595 1.678 1.071.89 3.838 1.137 4.28 2.266.214.482-.439 2.63-.573 3.188.144 1.2 2.031 1.765 2.866 2.31.994.646 4.994 3.992 4.725 5.211-.178.806-.635 3.867-1.353 4.387-1.371.911-3.632-.233-4.998 1.887-1.088 2.013 3.298 6.381 4.45 7.546 2.959 2.992 3.112 2.816 3.763 7.286l.102.515c.637.758 1.4 1.487 2.207 2.064.052.482.214 1.106.485 1.518l.7-.018c1.771-1.35 1.202-3.417 2.342-4.906.293-.382.718-.756 1.052-1.108.299-.314.66-.793.998-1.05.353-.269.933-.267 1.325-.237 2.765.208 1.827.543 3.536 2.311.548.568 1.293.57 1.896.91.81.458 2.069 1.801 2.675 2.488 1.105 1.254.469 2.346 1.318 3.561.597.854 1.411 1.247 1.479 2.462l.828.501c.294-.057.668-.2.902-.395.476.006 1.158.333 1.517.625l.278.78-.206 1.01c.291 1.183 1.883 2.14 2.62 3.047.572.705 1.571 3.102 1.571 4.05 0 .662-.244 1.195-.059 1.881.282.361.698.744 1.102.967l.186.534-.229.876c-.277-.01-1.241.026-1.438.27.199 1.166 1.245.58 1.694 3.33.127.78.048 1.873-.157 2.645.162.29.622.965.949 1.104l.611-.547.576-.03.384.395.168.78.955.074 1.078-.532.627.393c1.093 2.463 1.641 5.087 2.453 7.637.33 1.035.814 2.033 1.137 3.07.334 1.073.196 2.101.385 3.15.266 1.484 1.929 2.461 2.147 3.746.143.836-.314 2.71.719 3.233l.577-.01 1.009-.755.604.325c.174.327.186.972-.001 1.298l-.766.685c.155.503.725 2.02 1.193 2.33 1.633.793 2.229-.439 3.376-1.22.712-.485 1.696-.9 2.505-1.213.891-.285 1.364-.939 2.026-1.305 2.896-1.595 4.365-.686 6.347 1.667 1.109 1.316 2.039 2.848 2.372 4.562l.292.152c.89-.014 2.092-1.973 2.709-2.555.511-.48 1.537-.572 2.092-.977.499-.363.877-.982 1.375-1.345 1.536-1.116 4.424-.859 5.53-2.403.707-.987.009-2.6.892-3.53.383.181.899.394 1.232.65.517.397 1.078 1.168 1.858.93l.57-.415c.055-.549.503-1.404.99-1.696.721-.247 1.232.122 1.889.122.506 0 1.892-.75 2.271-.802 3.569-.478 2.755-.107 4.874-2.507.537-.607 1.204-1.057 1.416-1.884l1.414-.317c.567-.444.725-1.742 1.177-2.416 2.711-1.187 1.521-2.662 5.401-1.825 1.241-.339 1.071-1.657 2.704-1.349 1.62.902 3.105 2.473 5.105 2.521.638-.219 2.151-1.318 2.572-1.28.325.13.655.638.706.972l-.378 1.126c.074.362.418.841.708 1.061l.099.558c-.078.833-2.185 1.373-2.707 2.336l.038.871.867 1.237c.073 1.09-.521 3.857-1.627 4.374-.654.062-3.588.305-3.914.79l.034.626c.301.217.844.811.866 1.215-.576.75-.783 1.722-.329 2.58 1.229.657 2.412 1.803 3.383 2.778l.757.098.416-.276.834-.554c1.329-.645 2.737 2.272 4.222 2.515.245.041 1.243-.192 1.461-.252 4.404-1.2 3.149-2.97 7.217-.006.109.08.321.148.448.207.17-4.596.087-9.207.087-13.805 0-2.174-.204-4.494.137-6.65-.016-.026-.114-.178-.115-.199-.099-7.789-.014-15.557-.054-23.347-.03-6.05.031-12.112-.086-18.154-.018-.913.107-1.873.101-2.8-.101-15.11.008-30.225.008-45.34 0-5.213.086-10.439-.016-15.65 0-.025-.23-.406-.251-.443l-.238-.039-.249-.04c-1.193.974-2.463.184-3.749.454-.68.143-3.165 2.276-3.681 2.826-1.838.996-6.455 2.297-8.478 1.686-1.173-.354-2.365-.889-3.517-1.32-2.18-.819-3.586 1.517-5.373 2.251l-1.643.434c-1.249.33-2.062.946-3.093 1.737l-.148.338c-.552.11-1.318 1.911-1.492 2.252-.506.995-.587 1.888-.867 2.95-1.04 3.93-.954 2.907.744 6.12.791 1.496 1.286 2.215 2.371 3.464.042.048.334.217.402.261l2.611.086.628.436c.21.268.239.715.255 1.018l.047.97c-.063 1.45-2.48 3.834-3.588 4.612-.516 0-1.924.323-2.32.155-.932-.396-1.881-1.222-2.818-1.694-.987-.499-2.035-.906-3.012-1.422-1.478-.782-2.744-2.232-4.448-2.584-1.17-.24-2.037.43-3.131.55-.867.095-2.816-.3-3.533-.923-.185-.646.244-1.245.033-1.903-.906-.729-1.692-1.989-2.741-2.458-1.01-.018-1.653.848-2.563.948-1.524.167-3.075-.423-4.613-.33a38 38 0 0 0-1.52.362c-.583.211-1.218.815-1.817 1.084-.798.358-1.674.566-2.483.962l-.864-.12c-.253-.512-.733-1.12-1.219-1.435l-.376-.038c-.874.62-1.791.762-2.831.907-1.905.266-3.27-.41-4.069-2.245-.212-.485-.263-1.076-.557-1.535-.265-.416-.629-.783-.903-1.193-.281-.42-.515-1.136-.952-1.417-.23-1.027-.093-2.49-.565-3.416-.311-.609-.978-1.183-1.354-1.769-.763-1.185-1.384-2.47-2.139-3.659-1.726-2.722-4.126-4.61-6.59-6.63-1.115-.914-2.436-1.449-3.457-2.474-1.043-1.046-1.245-2.587-2.179-3.614-.78-.858-1.747-1.869-2.626-2.622-.744-.637-1.89-.985-2.48-1.818-.48-.679-.436-1.526-.676-2.272-.156-.484-.51-.959-.641-1.445-.05-.185-.042-1.877-.034-2.172-.304-.404-1.014-.83-1.452-1.052-.899-.048-1.575.66-2.618.646-.545-.007-1.54-.417-1.997-.663-1.143-.612-2.164-1.418-3.256-2.098-.766-.477-1.637-.593-2.4-.993-.038-.02-.578-.54-.627-.595-.677-.752-1.021-1.91-1.434-2.82-.583-1.286-2.894-.219-3.938-.612-1.159-1.333-2.185-.858-3.752-1.376-.462-.152-2.26-1.328-3.115-1.677l-.206-2.012c-.049-.485-1.331-2.75-1.876-3.084-.854-.29-3.713.765-4.078.352-1.545-2.77 3.851-6.717-2.192-9.752l-.095-.446.234-.563 1.115-.71.556-1.263-.206-.512c-.54-.237-1.318-1.016-1.392-1.637l.06-.47 1.236-1.497c.388-2.086-1.28-2.39-2.345-3.503-.229-.239-2.241-3.12-2.388-3.525-.144-.399.656-5.334.757-5.765.155-.667.888-1.409.873-2.162-.018-.876-.302-1.959-.438-2.837.334-1.206 1.907-1.513 2.385-2.789l.025-1.299c.349-.404.933-1.347.92-1.917-.328-.733-.633-1.978-.237-2.728l.349-.296c.832-.049 1.82-.168 2.524-.642l.126-.405-.415-1.337.248-1.079c-1.304-1.61-.647-3.277-.096-5.125a5.1 5.1 0 0 0 1.332-.804c.37-.616.213-1.228.414-1.842.196-.6.908-1.526 1.202-2.167.061-.836-.463-1.558-.497-2.32-.061-1.36 1.232-2.39 1.422-3.716.092-.647.109-1.517.101-2.173-.029-1.956-1.819-3.355-2.059-5.298.311-.812.985-1.219 1.47-1.88.275-.377.099-1.68.188-2.205.38-2.24 1.581-2.458 1.589-5.483.004-1.605-.72-2.353.229-4.097.649-1.19 2.478-.86 2.616-3.15l.389-6.432c.071-1.175.763-3.553 1.54-4.434.417-.472 1.135-.868 1.497-1.366.11-.15.408-1.236.528-1.418.571-.859 1.507-1.458 2.009-2.403.74-1.392-.146-2.803.621-4.084 1.29-1.94 3.763-.422 4.913-.659.653-.25.581-1.888.536-2.38l.493-.77c1.355-.074 1.981-1.173 2.25-2.34-.181-3.165-2.469-2.659-2.921-4.23-.642-2.236 1.015-4.632.508-5.695-.729-1.524-2.327-1.84-3.276-3.105-.094-.3-.315-1.22-.243-1.54.157-.69.464-1.577.516-2.27.016-.219-.429-1.13-.312-1.696.238-1.15.844-2.17.63-3.39-.373-2.13-1.997-3.764-2-5.99-.003-1.855 1.843-5.48 1.391-6.78-.308-.885-1.327-1.685-2.138-2.072-.316-.899-.946-1.945-1.488-2.708-.602-.845-1.809-1.43-1.97-2.566-.031-.222.149-.839.212-1.025.658-1.968 3.067-2.934 2.772-4.818.288-.158 1.23-.933 1.231-1.317 0-.912-.053-1.868.002-2.775.067-1.119.315-2.245.366-3.363.029-.639-.208-1.438-.118-2.057.095-.655.52-1.562.734-2.205l-.347-1.18.744-1.557-.648-2.272.294-.855c-1.241-3.717-.59-3.532.963-7.422.344-.86 1.188-1.474 1.3-2.438.106-.915-.046-1.508.358-2.4.308-.678.948-1.467 1.019-2.23.051-.568-.187-2.085.313-2.467l1.858-.208.273-.72c.028-1.339-1.94-2.146-2.392-3.14-.215-.477.09-1.396-.332-1.719l-1.596-.259c-1.476-.239-1.523-.472-2.26-1.739-.228-.392-.512-.976-.445-1.47l.635-1.464c-.535-1.57.423-3.503-.271-4.896-.359-.722-1.59-1.995-1.443-2.842.133-.772.775-1.524.358-2.355-.464-.876-1.785-1.984-2.79-2.149l.997-.642c.662.113 1.76-.128 2.291-.55.136-.27.322-.88.223-1.189l-.551-.26c-.805.252-2.22 1.305-2.939 1.075l-.797-.636c-.51-.73-.46-4.57-.498-5.563-.095-2.466-2.071-1.57-3.118-2.234-.39-.343-.197-.904-.348-1.315-.336-.92-1.474-1.007-1.866-1.918-.259-.71.342-2.683.608-3.32.196-.469 1.374-.895 1.576-1.363.035-.082.215-1.083.245-1.234.009-.044-.019-.126-.025-.17-.265-1.82-1.752-3.854-3.699-4.019-1.433.65-2.112 2.18-3.833 3.36l-1.457 3.697c-.547.293-1.227.666-1.87.76-1.61.231-3.436-1.416-3.914-1.419-2.584-2.426-2.648-3.397-2.307-6.946.275-2.86-.322-4.76 1.018-7.283l1.093-2.059c.995-1.368 3.325-2.738 4.625-3.812 3.136-2.59 6.83-4.107 10.257-6.29 1.304-.832 2.749-1.504 4.03-2.344 1.087-.712 2.099-1.578 3.2-2.264 1.468-.913 2.999-1.505 4.374-2.596 2.297-1.82 4.246-3.78 6.312-5.848.542-.543 1.165-1.048 1.679-1.615.831-.917 1.431-2.034 2.203-2.987 2.784-3.433 5.686-6.82 8.222-10.443l.174-.092c-.11-.364 3.072-4.324 3.48-4.865.072-.095.311-.889.398-1.058.325-.626.753-1.335 1.147-1.919.426-.63.979-1.196 1.39-1.834 1.275-1.98 2.241-4.103 2.733-6.403.936-4.365 1.017-6.523-.784-10.8a50 50 0 0 0-2.188-4.524c-.764-1.389-1.839-2.575-2.484-4.049l.296-.586c.672-.369 55.718-8.325 63.625-9.359z" style="fill:#90dfaa;fill-opacity:1" transform="translate(19.086 3.226)scale(.02195)"/><path fill="none" stroke="#646464" stroke-linejoin="round" stroke-miterlimit="3.864" stroke-width=".0684401" d="M28.481 14.503c.02.047.06.095.008.14.007.025.005.032 0 .058.02.032.028.044.02.082v.008c.02.018.023.031.032.054l.008.014a.1.1 0 0 1 .016.043l.002.016c.003.012-.002.025-.005.036q.022.03.038.064c.032.023.068.042.09.077l.009.013.01.012.01.01c.06.029.086.087.095.147.008.047.016.055.008.11-.013.088.077.089.016.199-.016.028-.038.058-.048.088l.01.008c.034.03.072.108.078.112l-.015.078-.25.059a.09.09 0 0 1-.087-.024l-.015.014c-.04.038-.085.07-.132.022l-.01-.021c-.071-.079-.093-.04-.179-.03-.033.004-.066-.004-.098.006-.034.011-.062.009-.097.014-.083.026-.095.017-.163-.03-.081.003-.085-.022-.125-.023-.153-.002-.133-.013-.26.049a1.4 1.4 0 0 1-.227.059c-.1.008-.12-.091-.18-.014l-.013.016c-.063.079-.139.04-.222.06-.041.029-.03.056-.103.045-.068-.01-.05.03-.112.04l-.014.002-.006.001c-.054.036-.114.077-.182.07-.032.022-.048.054-.086.077-.046.027-.233.151-.263.205-.023.041-.029.083-.086.095l-.014.001a1 1 0 0 0-.178-.002q-.002.003-.002.007l-.005.013c-.008.021-.023.037-.033.057a.3.3 0 0 1-.074.123c.022.024.016.052-.003.076l-.005.006c.07.04.002.125-.016.168v.006l.002.015c.004.03-.01.052-.012.08v.004a.1.1 0 0 1 .034.021l.008.011c.023.05-.017.095-.049.13l-.01.01-.004.005-.003.015v.004c.055.023.033.056.034.097.013.026.028.042.008.072.004.067-.029.071-.051.115-.013.07.031.052-.037.138-.033.027-.065.049-.095.079l-.098.02c-.06.01-.123.017-.18.032-.025.006-.103.04-.13.051q-.171.07-.342.14l-.2.082c-.028.012-.08.026-.101.04-.046.03-.113.09-.158.127-.023.02-.047.044-.074.061-.014.012-.031.03-.046.04-.023.013-.053.022-.077.033-.05.023-.1.05-.15.072-.135.066-.273.126-.408.19-.032.046-.164.25-.178.256v.008q-.098.14-.195.28c-.017.026-.042.053-.046.085q-.001.023-.002.047c-.005.04-.01.089-.02.128a.6.6 0 0 1-.098.118c-.032.056-.091.091-.142.128l-.004.008h-.005l-.009.008-.236.189-.023.013-.011.012c-.034.027-.08.048-.107.08q-.005.008-.008.017l-.083.109q-.063.087-.13.173-.058.069-.119.134l-.007.021a.2.2 0 0 1 .012.079c-.033.033-.073.062-.11.091-.007.007-.014.01-.02.018q-.031.041-.061.084l-.019.021c-.008.012-.01.023-.022.034l-.046.019c-.04.008-.054.05-.118.029-.05.014-.106.052-.16.042-.029.016-.037.02-.071.012a.1.1 0 0 1-.012.026l-.047.017q.006-.001.01 0c-.047.015-.038.047-.109.021-.053.009-.058.035-.097.065-.064.074-.068.072-.156.023-.027-.015-.06.005-.085-.012-.044-.032-.043-.007-.058-.071l-.005-.002c-.048-.02-.037-.036-.051-.072-.065.007-.133-.025-.134-.025-.014.002-.036-.01-.045-.02-.045-.007-.05-.024-.082-.033-.045-.025-.047-.028-.049-.03-.063.01-.05.004-.11-.014l-.007-.001a.13.13 0 0 1-.056.005c-.046.012-.05.002-.078-.032q-.022 0-.043.002l.006-.004-.035.008a.1.1 0 0 1-.055-.038.1.1 0 0 1-.027-.019c-.028.017-.06.04-.108.04h-.009c-.02.007-.033.023-.057.027l-.004.001c.028.05-.014.018-.022.084-.006.05-.05.038-.08.028a.1.1 0 0 1-.05-.004l-.012.007a.07.07 0 0 1-.056-.004l-.012.005c-.009.047-.078.064-.114.04l-.023-.002-.014-.005c-.037.008-.065.016-.088-.024l-.008-.002-.01-.002q.005-.004.012-.004l-.052-.011-.014-.003a.06.06 0 0 1-.035-.037l-.003-.023c-.035-.017-.041-.056-.02-.086l-.002-.005a.2.2 0 0 1-.014-.033h-.007c-.024.001-.049 0-.07-.015l-.018-.033v.005q-.014-.016-.032-.028l-.009-.006a.3.3 0 0 1-.094-.031c-.036.005-.058-.015-.063-.05l-.007.008a.16.16 0 0 1-.142.058l-.01.007c-.016.011-.043.005-.058-.005-.01.001-.03-.001-.038-.007l-.004.002-.009.013a.1.1 0 0 1-.038.033l-.006.002c-.064.014-.062.007-.12-.036q-.019-.004-.038-.006l-.006.004c-.02.015-.048.008-.068-.002-.06.011-.085.032-.13-.019l-.006.002c-.043.012-.07-.014-.104-.034-.05-.013-.057-.028-.092-.059.002 0-.024-.019-.036-.028l-.047-.029h-.013c-.066.03-.09-.021-.122-.056-.022-.016-.044-.032-.044-.063l.001-.006q-.034.009-.048-.017c-.056.018-.094-.028-.072-.065a.1.1 0 0 0 .011-.03.1.1 0 0 1-.049-.052.1.1 0 0 1-.02-.025c-.033.003-.068-.035-.062-.066-.056.03-.075-.005-.1-.049l-.005-.01c-.045.027-.065.008-.083-.02-.04.015-.09-.003-.116-.037l-.004-.005a.13.13 0 0 1-.08-.017l-.004-.002c-.042.033-.095.032-.133-.014q-.05.015-.076-.028a.1.1 0 0 1-.034-.014l-.008.002-.016.005q.002-.003.006-.006l-.039.014c-.033.015-.061.029-.1.028l-.018.016c-.043.034-.098.034-.152.029l-.024-.005c-.081.046-.127-.013-.146-.088-.054-.039-.096-.01-.14-.047h-.012c-.027.026-.067.013-.1.039-.024.02-.168-.016-.19-.022l-.006-.002-.027-.01-.028-.044-.034.007-1.44.293q-.097.02-.193.043l-.009-.058c-.03-.015-.05-.063-.087-.074l-.037.004c-.02-.009-.035-.04-.055-.053h-.024c-.004.003-.021.016-.026.015a.1.1 0 0 0-.034-.023l-.026-.012c-.04-.012-.079.04-.119-.013l-.003-.026c-.02-.003-.026-.024-.037-.036-.003-.004-.02-.014-.022-.017-.008-.01-.015-.03-.02-.041-.01-.02-.086-.017-.095-.032l.011-.016c-.033-.018-.042-.032-.038-.068l-.006-.005c-.028.003-.07-.009-.085-.035l-.017-.036a1 1 0 0 1-.034-.104c-.054.004-.055-.055-.103-.083.002-.008.003-.03-.003-.037l-.023-.009c-.004-.018-.033-.043-.052-.045l-.005-.01c-.046-.022-.117-.058-.14-.106-.025-.016-.055-.019-.081-.028q-.036-.012-.07-.025c-.015-.006-.031-.017-.048-.023a.03.03 0 0 1-.01-.02.1.1 0 0 0 .014-.03l-.04-.061c-.01-.008-.114-.084-.114-.095l.003-.014-.025-.012c0-.007-.003-.034-.009-.038a.2.2 0 0 1-.057-.016l-.008-.013.012-.016-.003-.01-.075-.067c-.029-.027-.038-.043-.074-.065 0-.029-.06-.09-.079-.111-.032-.038-.08-.054-.116-.084-.022-.018-.043-.045-.063-.067.002-.01.004-.031 0-.04-.065-.024-.161-.15-.211-.203-.04-.043-.05-.027-.083-.05a.04.04 0 0 0-.003-.034c-.07-.045-.043-.115-.146-.127l-.028-.034c.002-.055-.04-.07-.091-.067-.02-.05-.035-.038-.073-.065-.027-.019-.049-.072-.075-.1-.016-.004-.032.005-.048.003l-.011-.008c.008-.005.027-.023.028-.034-.004-.021-.022-.045-.022-.066l.008-.01c.004-.03-.004-.055-.01-.084-.007-.031-.012-.065-.024-.095-.006-.014-.015-.025-.016-.04-.003-.002-.026-.018-.027-.02-.008-.01-.012-.026-.019-.036-.01-.017-.026-.027-.035-.047.012-.014.014-.042.011-.06-.04-.004-.037-.025-.06-.047-.007-.008-.021-.012-.03-.019q-.01-.01-.02-.022c-.045-.042-.053-.046-.046-.116v-.268q.003-.049.005-.098-.005-1.07-.005-2.137.004-1.391.001-2.782v-1.48c.67.002 1.34-.006 2.01-.012l2.222-.019c-.03-.04-.013-.042-.023-.077-.006-.023-.025-.028-.039-.042-.018-.019-.06-.077-.082-.087-.025.006-.066-.024-.083-.041-.011-.052-.033-.03-.054-.063l-.003-.025c.002-.015.01-.03.012-.046.001-.014-.002-.029 0-.042 0-.017.007-.033.008-.05.002-.023-.002-.044.008-.066.01-.024.032-.046.033-.073.002-.033-.023-.071-.001-.104.02-.03.048-.062.057-.098.022-.08-.04-.132.015-.165a.1.1 0 0 0 .009-.038l.041-.017c.006-.005.007-.027.01-.036.01-.013.026-.008.034-.02.011-.055.025-.063.067-.1a.14.14 0 0 1 .052-.031c.02-.015.02-.128.009-.162-.008-.008-.04-.028-.043-.034.003-.013.036-.026.041-.05.002-.021-.016-.039-.019-.06l.01-.022c-.038-.028-.053-.078-.1-.087-.018-.016-.018-.047-.027-.068-.01-.023-.042-.07-.045-.083-.004-.011-.002-.019-.002-.03l-.004-.061c0-.047.01-.094.012-.14v-.08c-.004-.092-.01-.187.011-.277q.006-.015.01-.032l.007-.035c.004-.01.026-.024.037-.028l.01-.025c.001-.018-.013-.037-.018-.053-.007-.017-.008-.057-.016-.068-.01-.015-.02-.018-.022-.039l-.005-.073v-.006c-.02-.035-.032-.052-.033-.092-.004-.004-.018-.02-.018-.026l.011-.015.02-.006.003-.006c.02-.037.014-.087.033-.126.014-.027.035-.052.048-.079q.011-.023.02-.05c.004-.008-.006-.044-.008-.055-.009-.043-.022-.08.002-.121a.1.1 0 0 1 .027-.03l.047-.017.004-.002c.017-.017.014-.01.02-.035a.1.1 0 0 0 .002-.038 3 3 0 0 0-.052-.168c-.012-.02-.034-.042-.04-.064-.02-.075.02-.219-.011-.294-.01-.017-.04-.011-.052-.026-.008-.02.01-.051.025-.064.006-.028-.008-.042-.01-.066-.012-.085.024-.131.024-.204a.1.1 0 0 0-.022-.019l.011-.027c-.01-.021-.013-.027-.036-.04a.2.2 0 0 1-.015-.08l.087-.004c.051-.001.078-.001.118.033l.048-.002a.1.1 0 0 1 .019.019c.018.031-.005.038-.01.067l.004.016.042.036c.014.028-.02.087-.027.117.003.022.057.05.077.044.007-.011.025-.03.039-.033.019-.003.044.012.062.016q.022.005.044.009c.011.002.022.008.033.01.01.002.019-.006.027-.006a.3.3 0 0 1 .11.022c.026.01.047.03.07.045l.052.029.013.019c.02.037.012.064.008.104q-.002.033-.005.066c.005.02.02.025.03.04q-.001.078-.006.155c-.004.047-.025.055-.046.09-.02.037-.02.094-.055.122-.034.028-.09-.004-.123.024-.005.006-.005.018-.003.025.026.035.074.047.116.044.02 0 .038-.015.06-.01s.032.026.05.038c.006.004.019.005.025.01.019.012.032.031.054.04l.003.045c.002.006.01.016.017.018l.007-.002q.014-.013.028-.023a.1.1 0 0 1 .032-.009c.015 0 .033-.004.048 0 .008 0 .017.006.025.007.023.003.041-.016.055-.032.033-.015.062.022.091.017.035-.015.01-.053.032-.08.013-.017.055-.015.074-.032.032-.028.04-.075.065-.098.013-.011.033-.014.044-.023.018-.015.024-.035.05-.04l.008.005a.2.2 0 0 1 .037-.004l.007-.013-.007-.023c.004-.006.014-.016.021-.017.016.008.05-.002.063-.01.015.003.038.01.051.01.02 0 .028-.01.043-.016a.3.3 0 0 1 .072-.008c.014-.009.027-.04.03-.056l.012-.01c.022 0 .052.02.067.017.02-.004.033-.023.05-.03.023-.007.042.004.062.008.013.002.038-.018.053-.02h.03a.5.5 0 0 1 .11 0c.012 0 .025.009.036.01l.034-.005q.022-.002.042-.006c.022-.005.042-.02.063-.026.01-.002.034-.002.042-.003.085-.008.139-.006.21-.057.015-.002.02-.011.03-.017a1 1 0 0 1 .063-.022c.039-.004.048.026.086.005l.014.005-.001.02c-.011.012-.032.03-.04.044-.008.016.004.035-.025.064v.014l.03.036.002.008c-.012.037-.05.025-.077.04l-.006.016c.003.013.024.032.035.039l.006.023c-.01.05-.042.024-.073.048l-.004.02c.007.02.017.048.028.065.008.012.022.016.023.033l-.01.025.006.012.01.022c.005.037-.017.06.019.088l.024.018.001.013c-.009.014-.052.022-.067.023l-.01.014c.005.01.023.02.035.02.019.02.005.064-.003.085 0 .02.028.035.044.04.016.017-.002.083.031.1q.014.006.029.01c.004.003.017.016.02.017.011.005.026.004.037.008.036.014.06.045.093.06.022.011.05.008.073.012.032.004.057.038.066.066q.006.027.003.055c-.001.016-.01.043-.025.052v.021c.005.016.029.032.045.03.02-.02.035-.013.056-.02s.043-.024.063-.035l.03.002a.13.13 0 0 0 .034-.053c.029-.017.069.008.085.002l.023-.02.01.001c.031.012.018.118.098.134.038.07.042.047.12.06.044.007.086.016.131.018.054.002.078-.058.11-.063.01 0 .025.008.032.016.01.018.01.043.014.064.008.034.044.092.082.095.015.001.038-.004.054-.006a.2.2 0 0 1 .049.036c.04.04-.009.06-.01.082l.006.01c.015.013.044.004.061.004.04.001.08.008.12.008q.072-.002.142-.006c.022-.001.048-.012.069-.01.015 0 .026.013.044.007l.02-.021c.022-.013.08.024.104.03.023.007.052-.001.075.01.026.012.04.034.072.039.034.006.064-.029.088-.047.02-.016.063-.033.09-.05l.042-.013a.23.23 0 0 1 .12.031c.018.013.032.032.048.045.018.015.03.013.049.021.021.009.035.03.054.041.024.015.062.001.08-.017h.008c.017.023.05.012.071.031.057 0 .063.001.116.014.011.01.025.023.033.036h.022c.016-.018.035-.028.05-.044q.014-.016.026-.031c.006-.006.016-.006.02-.015.086-.03.072.03.132.057q.03-.014.058-.028c.048.01.074.019.098-.032.028-.059.068-.054.104-.099.022-.026.02-.06.037-.083l.019-.008c.002-.016.017-.04.032-.048h.012c.03-.025.01-.053-.006-.08 0-.014.01-.026.014-.038.005-.013 0-.027 0-.04.002-.02.01-.04.016-.058.003-.01.03-.02.04-.064.038-.017.035-.043.028-.078a.1.1 0 0 0-.014-.035c-.046-.042-.023-.06-.03-.113.003-.011.03-.031.04-.03.024 0 .092.01.116.002l.04-.019c.03-.002.07.021.097.002.008-.005.014-.015.022-.02q.009-.004.017-.007a.1.1 0 0 0 .032-.033h.011c.012.01.03.106.033.12.021.092 0 .316.022.347.033.045.033.026.08.036q.018.004.035.011l.007.002q.028.021.057.043c.008.006.02.007.027.012.014.01.026.027.041.037.01.007.026.009.037.015.02.013.03.034.058.035l.02.041c.071.018.136.057.136.138l-.005.03a.3.3 0 0 0-.005.13c.015.068.055.045.062.069.007.022.018.05.021.073.004.024-.001.052.002.077.007.056.073.123.117.155.028.02.072.008.093.027.03.003.026.098.045.113l.022.013q.014.009.03.012c.055-.019.045 0 .081-.002.01-.001.023-.009.034-.01a1 1 0 0 1 .096.017c.017-.001.025-.023.036-.033.017-.015.06-.017.085-.03l.007-.013-.013-.043.01-.008c.02-.003.05.018.07.025l.028.005q.015-.001.03-.004.023-.002.047 0l.02-.001.011-.003.008.004.008.011c.005.02.009.044.016.063.01.027.029.054.042.08.001.025-.016.054-.007.077l.011.008c.012.001.055-.025.071-.033.021.006.033.019.048.024.044.014.11-.017.154.02a.6.6 0 0 1 .064.151l.014.012h.01c.008-.006.024-.016.034-.016l.002-.022-.004-.008c.004-.024.05-.075.076-.066l.016.039c.033.007.065.007.082.04.04.027.043-.044.108.001.052-.011.083-.008.119.032q.008.01.017.02l.084.083q.017.018.035.037c.024.02.085.025.094.05.005.01-.01.057-.012.07.003.026.044.038.063.05.021.014.11.088.103.115-.004.017-.014.084-.03.096-.03.02-.08-.005-.11.041-.023.044.073.14.099.166.064.066.068.062.082.16l.002.011a.3.3 0 0 0 .049.046c.001.01.005.024.01.033h.016c.039-.03.026-.076.051-.108l.023-.025.022-.023q.014-.007.03-.005c.06.005.04.012.077.05.012.013.028.013.042.02a.3.3 0 0 1 .058.055c.025.028.01.052.03.079.012.018.03.027.032.054l.018.01a.1.1 0 0 0 .02-.008c.01 0 .025.007.033.014l.006.017-.004.022c.006.026.04.047.057.067a.2.2 0 0 1 .035.089c0 .014-.006.026-.002.041a.1.1 0 0 0 .024.021l.005.012-.005.02c-.007 0-.028 0-.032.005.004.026.027.013.037.073a.2.2 0 0 1-.003.058c.003.007.013.022.02.025l.014-.012.013-.001.008.009.004.017.02.001.024-.011.014.008c.024.054.036.112.054.168.007.023.018.045.025.067.007.024.004.047.008.07.006.032.043.054.047.082.004.018-.006.06.016.07h.013l.022-.016.013.007a.04.04 0 0 1 0 .029l-.016.015c.003.01.015.044.026.05.036.018.049-.009.074-.026a.3.3 0 0 1 .055-.027c.02-.006.03-.02.044-.028.064-.035.096-.015.14.036a.2.2 0 0 1 .052.1l.006.004c.02 0 .046-.044.06-.056.01-.01.033-.013.045-.022s.02-.021.03-.03c.034-.024.098-.018.122-.052.016-.022 0-.057.02-.078l.027.015c.011.008.023.025.04.02l.013-.009c.001-.012.011-.03.022-.037.016-.006.027.003.041.003.011 0 .042-.017.05-.018.078-.01.06-.002.107-.055.012-.013.026-.023.031-.041l.031-.007c.013-.01.016-.039.026-.053.06-.027.033-.059.119-.04.027-.008.023-.037.059-.03.035.02.068.054.112.055.014-.005.047-.029.056-.028.008.003.015.014.016.021l-.008.025c.001.008.009.019.015.023l.002.013c-.001.018-.048.03-.06.051l.002.02.019.026c.001.024-.012.085-.036.096-.014.002-.079.007-.086.018v.013c.008.005.02.018.02.027-.013.016-.017.038-.007.057.027.014.053.04.074.06l.017.003.009-.006.018-.012c.03-.015.06.05.093.055l.032-.006c.096-.026.069-.065.158 0l.01.005c.004-.101.002-.202.002-.303 0-.048-.005-.1.003-.146l-.003-.005q-.002-.255 0-.512 0-.2-.003-.399.002-.03.003-.061c-.003-.332 0-.664 0-.996v-.312c-.035.022-.057.003-.09.01a.4.4 0 0 0-.058.05l-.011.008c-.043.023-.158.059-.22.04-.16-.048-.045-.03-.166.02l-.005.001c-.045.012-.05.011-.089.04l.004-.004-.019.015.01-.003a.4.4 0 0 0-.047.145c.016.038.041.08.068.11.022-.011.058.003.076.016l.01.009a.1.1 0 0 1 .014.047l.001.023c-.001.042-.075.145-.122.145-.092 0-.046.005-.132-.038-.043-.022-.08-.04-.119-.067-.016-.01-.029-.021-.048-.015l-.016.005c-.06.018-.163-.003-.151-.082l-.017-.017-.007-.008c-.07.04-.1 0-.156.013l-.012.002-.01.007-.012.007c-.032.021-.12.058-.146.007-.083.032-.167.01-.194-.086-.005-.016-.024-.035-.032-.05-.016-.033-.014-.079-.034-.102l-.009-.01c-.044-.054-.063-.115-.116-.165-.059-.055-.155-.1-.189-.175a.2.2 0 0 0-.077-.087l-.015-.009c-.042-.025-.062-.082-.074-.13l-.003-.017v-.016c-.088.032-.141-.042-.216-.07-.043-.016-.061-.052-.078-.092-.095.007-.057-.016-.116-.025a.14.14 0 0 1-.051-.016l-.02-.011c-.053-.031-.055-.024-.063-.098l-.021-.034c.003.008-.034.014-.047.015-.027.003-.044-.008-.052-.016l-.005-.008c-.048-.085.065-.148-.03-.196-.04-.02-.028-.08.004-.1a.1.1 0 0 1-.023-.047v-.01c.003-.026.011-.033.028-.053l-.005-.004-.01-.007c-.044-.032-.094-.096-.087-.155a.5.5 0 0 1 .034-.15c-.001-.09-.035-.054.043-.133v-.017c0-.017.016-.03.02-.044-.003.004-.019-.041 0-.077.007-.014.03-.03.044-.03h.01v-.024c-.027-.05-.013-.136.037-.166a.1.1 0 0 1 .022-.06l.006-.01c-.035-.103.063-.113.009-.208-.029-.049-.048-.084-.004-.131l.01-.01v-.017c0-.049.035-.083.035-.131 0-.08-.02-.104.058-.153.025-.084-.011-.217.07-.286l.01-.008.006-.005c.016-.022.013-.035.04-.063.032-.033.004-.067.03-.11.027-.041.07-.047.113-.039-.003-.025.026-.063.051-.065q.004-.002.008-.012c-.006-.045-.097-.024-.058-.172q.005-.015.007-.027c-.004-.01-.051-.039-.065-.056l-.006-.014c-.017-.053 0-.056.004-.1-.024-.08.033-.056-.014-.154a.2.2 0 0 1-.023-.085c0-.049.03-.092.032-.138-.003-.008-.04-.023-.046-.042-.035-.1-.146-.1-.024-.236l.01-.014.028-.05c0-.052.008-.102.005-.154a.1.1 0 0 1 .01-.053l.004-.01c-.007-.027-.003-.038.009-.063-.007-.022-.016-.042-.008-.065-.03-.098.014-.141.052-.22.005-.046.015-.06.03-.1.005-.057.001-.078.032-.09-.015-.014-.028-.028-.031-.05-.054-.01-.109-.06-.1-.12l.003-.012.008-.02c-.01-.06.018-.056-.017-.11-.019-.028-.025-.05-.012-.083l.003-.008c-.029-.036-.095-.042-.065-.079l-.007-.007c-.022-.031-.018-.111-.02-.146l-.01-.001a.1.1 0 0 1-.037-.013l-.006-.004a.06.06 0 0 1-.02-.043.1.1 0 0 1-.04-.044c-.008-.023-.003-.055.005-.082l.05-.007c.003-.01.029-.02.033-.03l.006-.027v-.004c-.007-.04-.04-.085-.082-.088-.031.014-.046.048-.084.073l-.032.082q-.019.011-.041.016c-.036.005-.076-.03-.086-.03-.057-.054-.058-.075-.05-.153.005-.063-.008-.105.022-.16l.024-.045c.021-.03.073-.06.101-.084.069-.057.15-.09.225-.138q.045-.025.089-.052.035-.024.07-.05c.032-.02.066-.032.096-.056.05-.04.093-.083.139-.129l.036-.035c.019-.02.032-.045.049-.066.06-.075.125-.15.18-.229l.004-.002c-.002-.008.068-.095.077-.107l.008-.023.025-.042q.016-.02.031-.04a.4.4 0 0 0 .06-.14.33.33 0 0 0-.017-.238 1 1 0 0 0-.048-.1c-.017-.03-.04-.056-.055-.088l.007-.013a77 77 0 0 1 1.396-.205c.138-.017.274-.042.412-.06.06-.008.12-.011.18-.021q.054-.01.108-.02.015-.002.03-.002c.05-.007.1-.026.151-.03l.256-.01c.013 0 .028-.007.04-.008q.115-.012.229-.03h.021c.02-.004.041-.01.061-.007l.123-.02h.029q.065-.008.13-.02c.007-.002.016-.008.024-.009.003 0 .013.004.015.003.053-.007.136-.013.186-.027l.036-.01c.017-.001.035.005.052.004.019-.001.044-.01.064-.013.105-.012.208-.03.313-.043q.015 0 .027-.007c.025.058.045.133.069.185.007.014.023.033.033.046l.114.163.018.02q.025.036.05.071.022.025.043.05l.038.05.006.016q.021.027.044.053.003.01.008.017c.032.039.063.084.104.115l.045.029c.005.003.014.002.02.005.013.008.025.023.038.03a.3.3 0 0 0 .149.02c.02-.006.047-.032.063-.045.009-.007.011-.018.016-.028.01-.009.033-.015.046-.02.007-.002.028.002.036.003l.02.02c.016-.001.032 0 .042.014l.003.018c.014.01.016.026.034.038l.04-.003c.008-.013.036-.044.053-.046a.05.05 0 0 1 .018.02l.014-.012c.005.002.025.01.03.008L30.8.854h.008l.004-.003a.04.04 0 0 0-.003-.028l.005-.01.022-.004.006.026.017.013a.2.2 0 0 0 .025.056c.01 0 .024.008.031.015.092.01.068-.024.127.036-.003.015.023.051.032.061.016.005.058-.007.077-.006.02 0 .03.02.052.019l.039.042c.03.071.036.143-.001.213l.03.063.032.017a.3.3 0 0 0 .122.07c.01.02.027.053.044.068.038-.005.033.024.094.007.006 0 .017.014.02.018.012-.013.01-.01.03-.017.018-.046.053-.052.096-.054a.2.2 0 0 1 .07.007c.094.025.157.053.244.093v.01a.3.3 0 0 0-.033.088c.006.02.023.055.011.076.01.015.027.026.036.04.007.01.009.024.015.034.002.002.016.012.018.015.003.002.006.009.008.01.011.01.032.02.047.025.01-.003.03-.01.039-.017l.002-.012a.4.4 0 0 1 .156-.024l.005.001c.022.004.039.014.059.02.023.005.06.007.082.001.005.009.012.022.019.029.002.002.014.007.017.01.02.015.038.035.059.05.01.007.027.01.04.018.01.006.02.017.029.024l.004.004c.01-.002.035.017.05.019l.015-.005.073-.003c.011 0 .024.005.036.005q.037-.001.073-.006c.008 0 .016-.006.023-.007a.4.4 0 0 1 .075-.008c.004-.005.039-.008.047-.009l.033.03c.036-.003.069.025.095.044l-.014.042c.03.05.067.096.102.143 0 .002.01.028.01.032.025.001.047-.012.07-.017.04-.01.117.037.15.055l.031.006c.028-.002.097-.01.123-.002q.015.006.031.013.01.001.02.002c.014.004.03.029.036.04s.014.026.011.039q.017.005.033 0c.042.022.03.03.053.053.022.02.055.03.081.044.014.008.024.017.039.022a.1.1 0 0 1 .052-.017c0 .01-.001.043.007.05l.017.003.015-.025.029.039c.01.007.047.009.059.009v.006c-.035.026-.015.14-.012.176l.012.009c.014-.008.029-.018.045-.02.018.003.024.025.04.028.021.004.057 0 .067.027.012.04-.012.075-.033.108v.005c.002.04.001.022-.007.052q.001.004.001.01c-.001.007-.006.014-.007.02a.3.3 0 0 0 0 .09l.048.021.021-.004.026-.034c.006-.001.02 0 .025.004.014.03.048.061.049.096l.014.015.013.002.005-.004c.001-.019.014-.035.02-.052v-.028l.015-.004-.008-.02-.012-.01a.08.08 0 0 1 .026-.067l.008.002.018.02c.017-.006.036.01.048.006.035-.01.04-.025.08-.018.07.047.027.063.066.105a.7.7 0 0 0-.003.132c.02.046.08.066.096.11.007.02.01.047.015.068.002.007.015.019.02.022l.024-.002c.02.028.076.022.093.04.013.012.017.031.026.046.006.008.019.015.021.025.003.013 0 .035.005.046l.023.051c-.005.034-.014.023-.033.041-.013.012-.017.028-.034.037-.01.019-.005.041-.01.06-.003.018-.015.04-.022.056-.012.03-.04.109-.03.145l.04.05c.04.005.024.014.05.028.012.007.033 0 .047.009.023.013.044.037.071.042.023.038.052.067.082.098.113.001.097.08.145.089l.011-.002c.028.016.054.02.06.053-.037.066-.019.069-.032.122a.1.1 0 0 0-.021.026.07.07 0 0 1-.007.051l.032.042-.004.047c.002.01.013.013.017.021.006.013.01.03.014.043v.01l.008.006c.035.069.038.06.108.085.007.012.026.049.024.064l-.02.03.009.014.017-.004c.012.008.024.035.028.048.012.01.03.018.045.022.004.007.013.025.012.034l.01.013-.001.036c-.001.002.005.014.006.016l.012.002.037-.018c.01.022-.025.05-.037.062l-.006.017c-.013.01-.028.025-.043.034-.007.004-.018.004-.025.008-.01.004-.048.06-.059.072-.01.004-.034-.002-.044-.006-.013.005-.013.022-.02.032-.018.022-.03.047-.047.07-.005.007-.016.012-.02.02-.009.011-.018.045-.033.05l-.014-.007-.01.003c-.008.016.01.043-.003.064a.1.1 0 0 0-.03.026l-.014.004c-.017.026-.032.02-.055.031-.028.013-.04.05-.064.057-.027.006-.081-.026-.133-.017-.027.037-.068.04-.112.034-.018.03-.028.06-.049.088a.2.2 0 0 1-.051.013l-.004-.018c-.036-.02-.081.047-.08.057.006.004.01.022.01.028l.01.003.014-.012.02.007.01-.016.008.004.04.043q.005.01.009.02c.004.007.02.02.019.028-.005.045-.018.098-.006.142.004.014.014.026.017.04.006.022-.01.03.022.053l.005.03.016.015c.037.047.046.024.077.095l-.009.022c0 .01.006.027.014.035l.028-.005.022.01.005.007c.005.017-.002.025-.007.04l-.001.01-.017.025c-.003.01 0 .025-.002.036-.005.017-.025.04-.021.059a.2.2 0 0 1-.047.048c-.003.022-.015.033-.02.05q-.003.012-.005.023a.3.3 0 0 1-.08.094c-.01.033.023.042.02.063l-.012.014a.05.05 0 0 1-.038 0l-.012.004-.011.017v.015l.018.025c.004.02.008.073-.016.085l-.012.002c-.012-.001-.049-.038-.06-.049v-.014a.03.03 0 0 0-.02-.013l-.017.02c0 .015-.012.026-.01.042.02.055.067.044.03.135l.02.02c.005.015 0 .042-.005.055a.1.1 0 0 1-.027.024.1.1 0 0 1-.023.03v.076c.02-.003.028-.004.036-.007l.038-.017.038.011.014-.015.009.005c.003.003.007.012.006.016.008.002.035.012.039.02.011.026.014.06.012.088q-.004.034-.005.066.002.046.004.092l-.004.024c.004.026.013.053.018.078.001.004-.003.015-.002.02.005.025.028.061.023.086-.007.04-.062.091-.06.123.003.026.034.04.038.067.01.058-.015.079-.026.123v.011c0 .01-.005.034-.005.039 0 .014.008.032.001.05-.012.035-.02.036-.032.056l-.008.027-.002.005c-.026.048-.04.099-.054.152a.1.1 0 0 0 .008.08c.007.014.068.022.081.023l.009.01q-.003.042.005.085c.003.028-.02.051-.001.093l.014.013.02.002c.01.017.007.037.013.055.012.04.065.016.066.14l.009.002c.057-.037.093-.001.13-.023q.023-.016.044-.033h.046l.02.021.034.004.02.017h.007l.024-.023h.01c.015.013.03.038.034.056-.007.033-.004.03-.035.05-.012.01-.026.014-.04.022-.015.01-.018.03-.031.038-.008 0-.023.003-.029.01h-.014a.1.1 0 0 0-.01.024l.015.055a.1.1 0 0 1-.016.02h-.025c-.006.002-.023.014-.023.022-.03.004-.077.068-.07.098-.006.015-.028.015-.04.024-.023.015-.04.042-.064.052l-.007.003a.14.14 0 0 1-.058-.028l-.003-.009a.1.1 0 0 0-.033-.022c-.026.007-.043.02-.07.024-.015.001-.028-.002-.04.01l.002.023c-.022.025-.05.056-.064.086-.024.019-.034.005-.07.04-.003.026-.008.056-.036.065h-.011c-.01-.015.01-.046.005-.065-.008-.016-.036-.031-.053-.034l-.032.003c-.02.002-.034.017-.046.03l-.018.003c-.012-.004-.027-.025-.033-.035l-.01-.004-.005.008c-.02.002-.024.016-.037.024-.003.002-.017.004-.02.005-.03.023-.044.055-.062.086l-.013.002c-.028.02-.013.081-.028.106a.5.5 0 0 1-.065.082c-.007.005-.018.012-.023.018-.015.016-.015.16-.016.18l.003.02a.1.1 0 0 0 .028.025c.026.015.039.036.061.054.014.012.033.01.041.03.005.013.004.025.012.037 0 .018-.013.035-.018.053v.022c-.003.03-.02.058-.01.09-.007.022-.02.024-.027.035s-.012.043-.026.048l.002.016.016.02.001.024q-.014.024-.034.044c.001.02.007.058-.01.074-.004.03.005.07.012.1.016.012.045.04.054.06q.004.015.008.03c.004.009.01.014.013.025-.008.02-.055.024-.072.037l-.007.027c-.016.009-.013.036-.023.04-.005 0-.02-.003-.026 0l-.004.006-.016.023c-.006.014-.005.033-.015.046.005.013-.006.042-.012.053l.002.01c-.022.041-.022.079-.022.123a.2.2 0 0 1-.015.055l-.056.09a.05.05 0 0 1-.026.02c-.012-.003-.054-.01-.064-.003a.2.2 0 0 0 .004.106l-.005.016c-.02.007-.03.028-.047.037-.024.013-.044.002-.06.032-.031.012-.017.009-.055.007-.02.016-.022.05-.04.061-.006-.001-.026-.004-.033 0l-.015-.008-.006.001-.032-.023h-.027l-.006.006.001.014-.02.006.008.04-.022.026c0 .007.007.017.012.021.022.003.034.022.052.03.015.007.029-.002.047.018.018-.003.037.009.057.01l.011-.017c.03-.01.064.009.08.033l.002.035c.02.012.09.067.092.096-.003.01-.02.019-.029.022l-.03-.004-.02.013-.001.013-.023.027-.027.003-.008.038-.016.014.008.008c.011-.002.023-.005.034 0 .009.017.025.026.031.042l.011.002.009-.036.041.005.028.023.028-.005c-.002.008 0 .02.004.026l.016-.005a.2.2 0 0 1 .05.046c-.004.039.024.078.059.094.01.005.019.005.027.015.007.01.014.026.02.037l.013.028a.1.1 0 0 0-.02.052l.008.015.007.004c.033-.016.08 0 .104.025.005.01.008.026.007.037a.11.11 0 0 0-.025.103l.02.023c.03-.002.059.063.083.052.042-.054.055-.047.058-.126.018-.027.047-.045.072-.064.012-.009.045.008.057-.004l.023-.046.019-.004.056.033c.026.015.018.046.021.059a.13.13 0 0 0 .042.054l-.258.09c-.021.008-.042.02-.063.028l-.22.084c-.01.004-.022.004-.032.008-.017.007-.027.008-.039.012l-.147.055q-.052.016-.102.034-.107.041-.217.081c-.026.007-.047.018-.072.027q-.045.015-.091.032c-.053.02-.104.046-.156.068l-.018.004-.157.074a3 3 0 0 1-.267.048q-.008.002-.015.006-.076.014-.151.032c-.026.006-.052.019-.077.027-.03.011-.057.015-.086.03h-.01q-.064.02-.128.044c-.028.01-.056.03-.085.04q-.025.004-.051.007a2 2 0 0 0-.167.042l-.007.002c-.08.031-.157.078-.234.118-.053.028-.116.039-.174.05l-.005.006c-.02-.004-.041.003-.06.008-.023.005-.054.009-.076.018-.056.023-.11.06-.16.093q-.011.005-.022.009-.05.027-.1.056-.011.009-.026.018c-.003.002-.01.002-.013.004l-.079.045-.037.018h-.015c-.097.019-.193.046-.29.063-.04.008-.082.011-.122.02-.054.01-.109.03-.162.045-.002 0-.01.009-.012.01q-.013.001-.025.004l-.191.066-.015-.003a.4.4 0 0 1-.089.028c-.002 0-.008-.003-.01-.002q-.142.04-.286.074c-.058.015-.124.026-.181.044-.042.014-.084.035-.124.052-.047.02-.096.035-.144.053-.002 0-.006.007-.008.007q-.04.011-.079.024c-.014.005-.027.015-.041.02l-.028.007q-.009.006-.017.01l-.071.029q-.037.01-.073.022-.012.006-.023.014-.052.025-.104.047l-.008.009c-.058.027-.119.063-.18.082l-.037.01c-.004 0-.017-.002-.02 0-.01.002-.021.01-.032.013q-.017.003-.033.005l-.015.006q-.064.014-.127.033c-.013.003.003.012.003.012z"/><path d="M92.867 459.8V24.6c0-9.387 7.68-17.067 17.067-17.067h281.6c9.387 0 17.067 7.68 17.067 17.067v460.8c0 9.387-7.68 17.067-17.067 17.067H50.2c23.893 0 42.667-18.774 42.667-42.667" style="fill:#fff" transform="translate(.04 .041)scale(.04134)"/><path d="M186.733 459.8V24.6c0-9.387 7.68-17.067 17.067-17.067h281.6c9.387 0 17.067 7.68 17.067 17.067v460.8c0 9.387-7.68 17.067-17.067 17.067H144.067c23.893 0 42.666-18.774 42.666-42.667" style="fill:#ffa800" transform="translate(.04 .041)scale(.04134)"/><path d="M118.467 459.8V24.6c0-9.387 7.68-17.067 17.067-17.067H459.8c9.387 0 17.067 7.68 17.067 17.067v460.8c0 9.387-7.68 17.067-17.067 17.067h-384c23.893 0 42.667-18.774 42.667-42.667" style="fill:#ffe100" transform="translate(.04 .041)scale(.04134)"/><path d="M50.2 502.467c23.893 0 42.667-18.773 42.667-42.667V280.6H24.6c-9.387 0-17.067 7.68-17.067 17.067V459.8c0 23.893 18.774 42.667 42.667 42.667" style="fill:#fff" transform="translate(.04 .041)scale(.04134)"/><path d="M63 502.467c16.213 0 29.867-18.773 29.867-42.667V280.6H45.08c-6.827 0-11.947 7.68-11.947 17.067V459.8c0 23.893 13.654 42.667 29.867 42.667" style="fill:#ffe100" transform="translate(.04 .041)scale(.04134)"/><path d="M135.533 272.067v51.2h51.2v-51.2zM135.533 365.933v51.2h51.2v-51.2z" style="fill:#e4667f" transform="translate(.04 .041)scale(.04134)"/><path d="M135.533 92.867v128H459.8v-128z" style="fill:#00ad55" transform="translate(.04 .041)scale(.04134)"/><path d="M135.533 92.867v128H434.2v-128z" style="fill:#00da6c" transform="translate(.04 .041)scale(.04134)"/><path d="M2.116 21.167A2.123 2.123 0 0 1 0 19.05v-7.408c0-.212.142-.353.353-.353H3.88c.212 0 .353.141.353.353v7.408a2.123 2.123 0 0 1-2.117 2.117m-1.41-9.172v7.055c0 .776.634 1.411 1.41 1.411s1.411-.635 1.411-1.41v-7.056Z"/><path d="M19.05 21.167H2.116c-.211 0-.353-.141-.353-.353 0-.211.142-.353.353-.353.776 0 1.411-.635 1.411-1.41V1.057C3.527.458 3.986 0 4.586 0h15.522c.6 0 1.059.459 1.059 1.058V19.05a2.123 2.123 0 0 1-2.117 2.117m-15.346-.706H19.05c.776 0 1.41-.635 1.41-1.41V1.057c0-.211-.14-.352-.352-.352H4.586c-.212 0-.353.14-.353.352V19.05c0 .53-.212 1.023-.53 1.411"/><path d="M19.05 9.525H5.644c-.212 0-.353-.14-.353-.353V3.881c0-.212.141-.353.353-.353H19.05c.211 0 .353.141.353.353v5.291c0 .212-.142.353-.353.353M5.997 8.82h12.7V4.233h-12.7zM19.05 2.47H5.644c-.212 0-.353-.142-.353-.353 0-.212.141-.353.353-.353H19.05c.211 0 .353.141.353.353 0 .211-.142.352-.353.352M7.76 13.759H5.645c-.212 0-.353-.142-.353-.353v-2.117c0-.212.141-.353.353-.353h2.117c.211 0 .352.141.352.353v2.117c0 .211-.14.353-.352.353m-1.763-.706h1.411v-1.411H5.997zM7.76 17.64H5.645c-.212 0-.353-.142-.353-.354V15.17c0-.212.141-.353.353-.353h2.117c.211 0 .352.141.352.353v2.116c0 .212-.14.353-.352.353m-1.763-.706h1.411v-1.412H5.997zM19.05 11.642H9.525c-.212 0-.353-.141-.353-.353s.141-.353.353-.353h9.525c.211 0 .353.141.353.353s-.142.353-.353.353M13.052 13.406H9.525c-.212 0-.353-.141-.353-.353s.141-.353.353-.353h3.527c.212 0 .353.141.353.353s-.14.353-.353.353M19.05 15.522H9.525c-.212 0-.353-.14-.353-.352s.141-.353.353-.353h9.525c.211 0 .353.141.353.353 0 .211-.142.352-.353.352M13.052 17.286H9.525c-.212 0-.353-.14-.353-.352s.141-.353.353-.353h3.527c.212 0 .353.14.353.353 0 .211-.14.352-.353.352M19.05 19.403H5.644c-.212 0-.353-.141-.353-.353 0-.211.141-.352.353-.352H19.05c.211 0 .353.14.353.352s-.142.353-.353.353"/><path d="M42.121 21.059h-2.076l-3.363-5.84h-.043q.021.368.032.736.022.367.032.735.022.368.033.735v3.634h-1.46v-7.721h2.065l3.353 5.785h.032l-.021-.714q-.011-.356-.033-.702l-.022-.714v-3.655h1.471zm4.25-6.013q.822 0 1.406.314.595.314.919.908t.324 1.46v.779h-3.806q.022.681.4 1.07.39.39 1.07.39.574 0 1.039-.108.465-.12.962-.357v1.243q-.432.217-.919.314-.476.108-1.157.108-.887 0-1.568-.324-.681-.336-1.07-1.006-.39-.67-.39-1.687 0-1.038.346-1.72.357-.692.984-1.038t1.46-.346m.01 1.147q-.464 0-.778.302-.303.303-.357.941h2.26q0-.357-.13-.638-.118-.281-.367-.443t-.627-.162m8.133 2.8q-.043-.183-.13-.54-.076-.368-.173-.779-.097-.422-.184-.768-.086-.357-.119-.519h-.043q-.032.162-.119.52-.076.345-.173.767l-.184.779q-.086.367-.13.562l-.475 2.044h-1.73l-1.677-5.905h1.6l.682 2.617q.076.27.13.65.065.378.119.735.054.346.075.551h.044q.01-.151.043-.4.032-.26.076-.53.054-.27.086-.486.043-.228.065-.303l.725-2.834h1.773l.692 2.834q.043.151.097.486.065.336.109.682.054.346.054.551h.043q.022-.184.076-.53.054-.357.119-.746.075-.39.151-.66l.703-2.617h1.579L56.72 21.06h-1.752zm8.975.314q0 .595-.28 1.017-.282.41-.844.627-.563.216-1.395.216-.617 0-1.06-.086-.443-.076-.887-.26v-1.33q.476.216 1.028.357.551.14.973.14.476 0 .67-.14.206-.14.206-.368 0-.151-.087-.27-.075-.12-.346-.27-.27-.152-.843-.39-.552-.238-.909-.465-.356-.238-.53-.562-.173-.335-.173-.833 0-.822.639-1.233.638-.41 1.697-.41.552 0 1.05.107.497.109 1.027.357l-.487 1.157q-.433-.183-.822-.302-.39-.13-.79-.13-.356 0-.54.097-.173.098-.173.292 0 .14.086.26.098.108.357.238.27.13.79.346.508.205.876.432.367.217.562.552.205.324.205.854" aria-label="News" style="font-weight:700;font-size:10.8139px;font-family:&quot;PT Sans&quot;;-inkscape-font-specification:&quot;PT Sans Bold&quot;;fill:#0a2342;stroke-width:.901144"/></svg>
