<svg xmlns="http://www.w3.org/2000/svg" xml:space="preserve" width="1024" height="1024" viewBox="0 0 270.933 270.938"><defs><filter id="a" width="1.049" height="1.102" x="-.025" y="-.051" style="color-interpolation-filters:sRGB"><feGaussianBlur stdDeviation=".211"/></filter><filter id="b" width="1.039" height="1.121" x="-.02" y="-.06" style="color-interpolation-filters:sRGB"><feGaussianBlur stdDeviation=".253"/></filter></defs><g style="opacity:1" transform="translate(-.002) scale(.53334)"><circle cx="254" cy="254" r="254" style="fill:#90dfaa"/><path d="M317.2 400c25.6-88.4 42-204 42-238v-5.2c-2.4-54.4-48.8-96.4-103.2-96.4h-4c-54.4 0-100.4 42-103.2 96.4v5.2c0 34 16.4 149.2 42 238z" style="fill:#324a5e"/><path d="M304 299.2H204L144.8 406h218.4z" style="fill:#ffd05b"/><path d="M299.2 389.2s-17.6 90-38.4 118.8h-10.4c-11.6-22.4-47.2-92-41.6-118.8 0 0 35.6 25.2 90.4 0z" style="fill:#ff7058"/><path d="M304.8 300.8c-.4-.4-.4-1.2-.8-1.6 0 0-.8 4.4-6 10.8-22.4 28-65.6 28-88 0-5.2-6.4-6-10.8-6-10.8-.4.4-.4.8-.8 1.2 2-3.2 2.8-6.8 3.2-10.8l1.2-14.8 3.2-45.2h86.4l4.4 60c.4 3.2 1.2 6.4 2.4 9.2.4.8.4 1.6.8 2z" style="fill:#f9b54c"/><path d="M246.4 508c-4.4 0-8.4-.4-12.8-.8-70.8-5.6-133.2-40-176-92 21.2-41.2 51.2-44.8 51.2-44.8 55.2-26.4 88.4-64 90.4-66.4l-12 26 23.6 101.6zM450 415.2c-16.8 20.4-36.8 38.4-59.2 52.8-37.6 24-81.6 38.4-129.2 40l35.2-76.4 24-101.6-12.8-26c2 2.4 36 40 91.2 66.4 0 0 1.2 0 3.2.8 8.8 2.4 31.2 11.2 47.6 44z" style="fill:#e6e9ee"/><path d="M211.6 396s21.2 60.4 40 112c-6 0-12-.4-17.6-.8-15.6-22.4-32.8-45.6-55.2-57.6l7.2-36.8h-36c14.8-66.4 51.6-111.2 54-113.2-1.2 2.4-19.2 38 7.6 96.4zM322.4 412.8l7.2 36.8c-22.4 12-39.6 35.2-55.2 57.6-4 .4-8.4.4-12.4.8h-5.2c18.8-51.6 39.6-112 39.6-112 26.8-58.4 8.8-94 7.6-96.4 2.4 2 39.2 46.8 54 113.2z" style="fill:#fff"/><path d="M339.2 172.4c0 58.4-38 131.6-85.2 131.6s-85.2-73.2-85.2-131.6c0-58.4 38-79.6 85.2-79.6s85.2 21.6 85.2 79.6z" style="fill:#ffd05b"/><path d="M351.2 207.2c-6 13.2-16.4 20.8-23.6 17.2-7.2-4-8-17.6-2-31.2 6-13.2 16.4-20.8 23.6-17.2 6.8 4 7.6 18 2 31.2z" style="fill:#ffd05b"/><path d="M318.8 114s-19.2 39.6 20.4 63.2l6.8-22-14.8-43.2-7.6-9.2z" style="fill:#324a5e"/><path d="M328 105.2s-10.8 36-86.8 64.8c-27.6 10.4-48.4 34.4-55.2 63.2-3.2 14-6 30-7.2 47.2l-15.6-51.2-5.2-80.8 18-45.2L228 92Z" style="fill:#324a5e"/><path d="M243.2 74.4 302 82l8.4 17.6-40 20.8-44.8-20.8zM290.8 347.2h-66.4c-1.6 0-3.2 1.6-2.8 3.2v20.4c0 1.6 1.2 3.2 3.2 3.2h66c1.6 0 3.2-1.6 3.2-3.2l.4-20.4c-.4-1.6-2-3.2-3.6-3.2z" style="fill:#324a5e"/><path d="m350 368.4-3.6 124.8c-22 7.2-45.2 12-69.2 14-4.8.4-9.6.8-14.8.8h-17.2c-4.8 0-10-.4-14.8-.8-24-2-47.2-6.8-69.2-14L158 368.4c0-4 2.8-7.2 6.4-7.2h179.2c3.6 0 6.8 3.2 6.4 7.2z" style="fill:#ff7058"/><path d="M284 374.4c0 2.8-2.4 5.2-4.8 5.2-2.8 0-4.8-2.4-4.8-5.2 0-2.8 2.4-5.2 4.8-5.2 2.8 0 4.8 2.4 4.8 5.2zM240.8 374.4c0 2.8-2 5.2-4.8 5.2s-4.8-2.4-4.8-5.2c0-2.8 2-5.2 4.8-5.2s4.8 2.4 4.8 5.2z" style="fill:#f1543f"/><path d="M270 259.6V256c63.2-1.2 66-47.2 66-48h3.6c-.4 1.2-2.8 50.8-69.6 51.6z" style="fill:#2b3b4e"/><path d="M337.6 214.4c-4.8 0-8.4-3.6-8.4-8.4v-17.6c0-4.8 3.6-8.4 8.4-8.4 4.8 0 8.4 3.6 8.4 8.4V206c0 4.8-3.6 8.4-8.4 8.4zM283.2 262h-18.8c-2.8 0-4.8-2-4.8-4.8s2-4.8 4.8-4.8h18.8c2.8 0 4.8 2 4.8 4.8 0 2.4-2.4 4.8-4.8 4.8zM359.2 156.8s-12.4 169.6 26 174c0 0-17.6 43.2-53.6 2-1.2-1.2-1.6-2.8-2-4.4v-.4c-5.6-24-2.8-48.8 7.6-70.8l16.4-34.4 2.4-47.6zM148.8 156.8s12.4 169.6-26 174c0 0 17.6 43.2 53.6 2 1.2-1.2 1.6-2.8 2-4.4v-.4c5.6-24 2.8-48.8-7.6-70.8l-16.4-34.4-2.4-47.6Z" style="fill:#324a5e"/><path d="m338 290.4-8.8-14.8-24.4 19.2s10.8 29.6 34.8 46.4l7.2-25.6c-5.6-7.6-8.4-16.4-8.8-25.2zM169.6 290.4l8.8-14.8 25.6 19.2s-12 29.6-35.6 46.4l-7.2-25.6c5.6-7.6 8.4-16.4 8.4-25.2z" style="fill:#324a5e"/></g><g transform="translate(155.015 -415.366) scale(.53334)"><circle cx="439.027" cy="492.254" r="254" style="fill:#188200;fill-opacity:1"/><path d="M502.227 638.254c25.6-88.4 42-204 42-238v-5.2c-2.4-54.4-48.8-96.4-103.2-96.4h-4c-54.4 0-100.4 42-103.2 96.4v5.2c0 34 16.4 149.2 42 238z" style="fill:#324a5e"/><path d="M144.8 406h218.4L304 299.2H204z" style="fill:#ffd05b" transform="translate(185.027 238.254)"/><path d="M484.227 627.454s-17.6 90-38.4 118.8h-10.4c-11.6-22.4-47.2-92-41.6-118.8 0 0 35.6 25.2 90.4 0z" style="fill:#ff7058"/><path d="M489.827 539.054c-.4-.4-.4-1.2-.8-1.6 0 0-.8 4.4-6 10.8-22.4 28-65.6 28-88 0-5.2-6.4-6-10.8-6-10.8-.4.4-.4.8-.8 1.2 2-3.2 2.8-6.8 3.2-10.8l1.2-14.8 3.2-45.2h86.4l4.4 60c.4 3.2 1.2 6.4 2.4 9.2.4.8.4 1.6.8 2z" style="fill:#f9b54c"/><path d="M246.4 508c-4.4 0-8.4-.4-12.8-.8-70.8-5.6-133.2-40-176-92 21.2-41.2 51.2-44.8 51.2-44.8 55.2-26.4 88.4-64 90.4-66.4l-12 26 23.6 101.6zM450 415.2c-16.8 20.4-36.8 38.4-59.2 52.8-37.6 24-81.6 38.4-129.2 40l35.2-76.4 24-101.6-12.8-26c2 2.4 36 40 91.2 66.4 0 0 1.2 0 3.2.8 8.8 2.4 31.2 11.2 47.6 44z" style="fill:#e6e9ee" transform="translate(185.027 238.254)"/><path d="M211.6 396s21.2 60.4 40 112c-6 0-12-.4-17.6-.8-15.6-22.4-32.8-45.6-55.2-57.6l7.2-36.8h-36c14.8-66.4 51.6-111.2 54-113.2-1.2 2.4-19.2 38 7.6 96.4zM322.4 412.8l7.2 36.8c-22.4 12-39.6 35.2-55.2 57.6-4 .4-8.4.4-12.4.8h-5.2c18.8-51.6 39.6-112 39.6-112 26.8-58.4 8.8-94 7.6-96.4 2.4 2 39.2 46.8 54 113.2z" style="fill:#fff" transform="translate(185.027 238.254)"/><path d="M339.2 172.4c0 58.4-38 131.6-85.2 131.6s-85.2-73.2-85.2-131.6c0-58.4 38-79.6 85.2-79.6s85.2 21.6 85.2 79.6z" style="fill:#ffd05b" transform="translate(185.027 238.254)"/><path d="M351.2 207.2c-6 13.2-16.4 20.8-23.6 17.2-7.2-4-8-17.6-2-31.2 6-13.2 16.4-20.8 23.6-17.2 6.8 4 7.6 18 2 31.2z" style="fill:#ffd05b" transform="translate(185.027 238.254)"/><path d="M318.8 114s-19.2 39.6 20.4 63.2l6.8-22-14.8-43.2-7.6-9.2z" style="fill:#324a5e" transform="translate(185.027 238.254)"/><path d="M328 105.2s-10.8 36-86.8 64.8c-27.6 10.4-48.4 34.4-55.2 63.2-3.2 14-6 30-7.2 47.2l-15.6-51.2-5.2-80.8 18-45.2L228 92Z" style="fill:#324a5e" transform="translate(185.027 238.254)"/><path d="m225.6 99.6 17.6-25.2L302 82l8.4 17.6-40 20.8zM290.8 347.2h-66.4c-1.6 0-3.2 1.6-2.8 3.2v20.4c0 1.6 1.2 3.2 3.2 3.2h66c1.6 0 3.2-1.6 3.2-3.2l.4-20.4c-.4-1.6-2-3.2-3.6-3.2z" style="fill:#324a5e" transform="translate(185.027 238.254)"/><path d="m535.027 606.654-3.6 124.8c-22 7.2-45.2 12-69.2 14-4.8.4-9.6.8-14.8.8h-17.2c-4.8 0-10-.4-14.8-.8-24-2-47.2-6.8-69.2-14l-3.2-124.8c0-4 2.8-7.2 6.4-7.2h179.2c3.6 0 6.8 3.2 6.4 7.2z" style="fill:#ff7058"/><path d="M284 374.4c0 2.8-2.4 5.2-4.8 5.2-2.8 0-4.8-2.4-4.8-5.2 0-2.8 2.4-5.2 4.8-5.2 2.8 0 4.8 2.4 4.8 5.2zM240.8 374.4c0 2.8-2 5.2-4.8 5.2s-4.8-2.4-4.8-5.2c0-2.8 2-5.2 4.8-5.2s4.8 2.4 4.8 5.2z" style="fill:#f1543f" transform="translate(185.027 238.254)"/><path d="M455.027 497.854v-3.6c63.2-1.2 66-47.2 66-48h3.6c-.4 1.2-2.8 50.8-69.6 51.6z" style="fill:#2b3b4e"/><path d="M337.6 214.4c-4.8 0-8.4-3.6-8.4-8.4v-17.6c0-4.8 3.6-8.4 8.4-8.4 4.8 0 8.4 3.6 8.4 8.4V206c0 4.8-3.6 8.4-8.4 8.4zM283.2 262h-18.8c-2.8 0-4.8-2-4.8-4.8s2-4.8 4.8-4.8h18.8c2.8 0 4.8 2 4.8 4.8 0 2.4-2.4 4.8-4.8 4.8zM359.2 156.8s-12.4 169.6 26 174c0 0-17.6 43.2-53.6 2-1.2-1.2-1.6-2.8-2-4.4v-.4c-5.6-24-2.8-48.8 7.6-70.8l16.4-34.4 2.4-47.6zM148.8 156.8s12.4 169.6-26 174c0 0 17.6 43.2 53.6 2 1.2-1.2 1.6-2.8 2-4.4v-.4c5.6-24 2.8-48.8-7.6-70.8l-16.4-34.4-2.4-47.6Z" style="fill:#324a5e" transform="translate(185.027 238.254)"/><path d="m338 290.4-8.8-14.8-24.4 19.2s10.8 29.6 34.8 46.4l7.2-25.6c-5.6-7.6-8.4-16.4-8.8-25.2zM169.6 290.4l8.8-14.8 25.6 19.2s-12 29.6-35.6 46.4l-7.2-25.6c5.6-7.6 8.4-16.4 8.4-25.2z" style="fill:#324a5e" transform="translate(185.027 238.254)"/></g><text xml:space="preserve" x="22.152" y="-36.176" style="font-weight:700;font-size:13.992px;font-family:&quot;PT Sans&quot;;-inkscape-font-specification:&quot;PT Sans Bold&quot;;text-align:end;text-anchor:end;fill:#f9f9f9;fill-opacity:1;stroke-width:1.42387;filter:url(#a)" transform="translate(-142.014 289.765) scale(6.30332)"><tspan x="22.152" y="-36.176" style="font-size:13.992px;text-align:start;text-anchor:start;fill:#f9f9f9;fill-opacity:1;stroke-width:1.42387">Zed</tspan></text><text xml:space="preserve" x="22.152" y="-36.176" style="font-weight:700;font-size:13.992px;font-family:&quot;PT Sans&quot;;-inkscape-font-specification:&quot;PT Sans Bold&quot;;text-align:end;text-anchor:end;fill:#0a2342;fill-opacity:1;stroke-width:1.42387" transform="translate(-142.014 289.765) scale(6.30332)"><tspan x="22.152" y="-36.176" style="font-size:13.992px;text-align:start;text-anchor:start;fill:#0a2342;fill-opacity:1;stroke-width:1.42387">Zed</tspan></text><text xml:space="preserve" x="21.735" y="-3.256" style="font-weight:700;font-size:13.2379px;font-family:&quot;PT Sans&quot;;-inkscape-font-specification:&quot;PT Sans Bold&quot;;text-align:end;text-anchor:end;fill:#0a2342;fill-opacity:1;stroke-width:1.10315" transform="translate(-142.014 289.765) scale(6.30332)"><tspan x="21.735" y="-3.256" style="text-align:start;text-anchor:start;fill:#0a2342;fill-opacity:1;stroke-width:1.10315">Podcast</tspan></text><text xml:space="preserve" x="21.69" y="-24.095" style="font-weight:700;font-size:13.992px;font-family:&quot;PT Sans&quot;;-inkscape-font-specification:&quot;PT Sans Bold&quot;;text-align:end;text-anchor:end;fill:#f9f9f9;fill-opacity:1;stroke-width:1.26664;filter:url(#b)" transform="translate(-142.014 289.765) scale(6.30332)"><tspan x="21.69" y="-24.095" style="font-size:13.992px;text-align:start;text-anchor:start;fill:#f9f9f9;fill-opacity:1;stroke-width:1.26664">News</tspan></text><text xml:space="preserve" x="21.69" y="-24.095" style="font-weight:700;font-size:13.992px;font-family:&quot;PT Sans&quot;;-inkscape-font-specification:&quot;PT Sans Bold&quot;;text-align:end;text-anchor:end;fill:#0a2342;fill-opacity:1;stroke-width:1.26664" transform="translate(-142.014 289.765) scale(6.30332)"><tspan x="21.69" y="-24.095" style="font-size:13.992px;text-align:start;text-anchor:start;fill:#0a2342;fill-opacity:1;stroke-width:1.26664">News</tspan></text><path fill="#83bf4f" d="M42 32h20C62 15.4 48.6 2 32 2S2 15.4 2 32s13.4 30 30 30V32Z" style="fill:#188200;fill-opacity:1" transform="matrix(.93868 0 0 .93868 32.526 212.74)"/><path fill="#ff8736" d="M52 54.4c6.1-5.5 10-13.5 10-22.4H52v22.4" style="fill:#e37700;fill-opacity:1" transform="matrix(.93868 0 0 .93868 32.526 212.74)"/><path fill="#3e4347" d="M42 32v28.3c3.7-1.3 7.1-3.3 10-5.9V32Z" style="fill:#000;fill-opacity:1" transform="matrix(.93868 0 0 .93868 32.526 212.74)"/><path fill="#c94747" d="M42 32H32v30c3.5 0 6.9-.6 10-1.7z" style="fill:#d31e0f;fill-opacity:1" transform="matrix(.93868 0 0 .93868 32.526 212.74)"/><g fill="#ff8736" stroke="#2b2b2b" stroke-miterlimit="10" stroke-width=".25" style="fill:#e37700;fill-opacity:1"><path d="M57.5 22.3c1.3-.7 1.5-1.4 1.5-1.4 0-.1-.9.5-2.5 1.2 2-1 2-1.8 1.9-1.8-.3 0-1.5.8-3.1 1.5 1.4-.7 2.1-1.5 2-1.6-.3.3-3.4 1.5-3.4 1.5.4-.2.7-.7.4-.7-.5.4-2.4.7-3 .8-.4.1-1.5.5-1.8.5-2-.1-2.5.1-2.5.1l.1.1H47c0-.1-.1-.1-.1-.1-.3-.6.1-.8.3-.9.2 0 .2 0 .4-.1-.1 0-.2-.1-.3-.1.2 0 .5 0 .4.4.2-.1.7-.6-.6-.7-.4-.4-2.1-.7-2.6 1.2 0 0 .1 0 .2.1-.5-.2-2-.4-2.5-.5-1.4-.4-2.9-1.3-3.1-1.2-.2.1.9 1 .8 1-.9-.5-1.8-.8-2.5-1.2-.5-.2-1.1-.6-1.2-.5-.2.4.9 1.3 1.1 1.5.2.1 1.8.8 1.8.8-2.4-1-2.8-1.2-2.9-1.3-.2 0-.7-.7-.9-.6-.1.1.1 1.1 1.2 1.5 0 0 .2.1.3.1l-.6-.2c-.5-.2-1.1-.8-1.2-.7-.1.1.3.7.8 1 .2.1.6.3 1.2.5-.5-.2-1.1-.4-1.4-.5-.4-.2-.5-.4-.6-.4-.1 0 .1 1 2.7 1.6-.1 0-.5 0-.5.1s.2.4 1.5.4c.2 0 1.1-.3 1-.2 0 0-1.3.4-1.4.4-.1 0-.5.1-.5.1 0 .1.3.3 1 .4.6 0 1.9-.4 1.8-.3l-1.2.4s-.5 0-.5.1.6.6 2.5 0c-.2.2-1.1.4-1.1.4s.2.2.5.3h.6c.4-.1.7-.2 1.2-.6.1.1-1.2.7-1.1.8.3.2 1.2 0 1.2-.1.1 0 1.8-.9 1.7-1 0 .1-2.2 1.2-2.2 1.3.1.2.9 0 .9 0l1-.5s-1.1.6-1 .7c0 .3 1.3-.1 1.7-.3-.2.1-.7.4-.7.5.3.5 1.3.3 1.4.2.1-.1-.1.3 0 .3 0 0 .2-.2.3-.4 0 .1-.1.3-.2.6-.1.2-.1.5-.2.8 0 .1.4-.1.5-.8 0 .4-.2 1-.1 1 0 0 .1 0 .2-.1v.1c0 .1-.1.5-.6.5-.6 0-.6.5-.6.5s-.1 0 0 .3c.1-.2.2-.2.2-.2.1 0 .4.1.8-.2-.4.4-.2.5-.2.5s-.1.3.2.4c-.1-.1 0-.2 0-.2s.4 0 .4-.5c0 .4.3.6.3.6s0 .2.3.3c-.2-.1-.1-.3-.1-.3s.4-.2.1-.7c.1 0 .1-.1.2-.1v.2c0 .3 0 .3.2.5-.1-.2 0-.3 0-.3s.3.1.5-.2c-.2.4-.1.5 0 .5 0 .1-.1.4.3.4-.1-.1-.1-.3-.1-.3s.4-.1.2-.7c.1-.1.2 0 .2 0s0 .4.4.3c.1.1 0 .3 0 .3s.2 0 .3-.2c.1-.2.1-.5-.2-.6 0-.1.1-.1.1-.1s.2.1.3.2c.1.1 0-.3-.3-.3-.4 0-.4-.1-.4-.1V28c.3.2.6.2.6.2 0-.1-.6-.8-.5-.9.2 0 .4.4.6.3-.1-.1-.3-.1-.5-.4 0-.1-.1-.1-.1-.2 0 0 .5.5.9.5.2-.1-.3-.4-.3-.5.2.2.9.7 1.4.5.2-.3-.3-.2-.9-.9.4.3 1.4.8 1.9.6.1-.1-.4-.4-.8-.8.2.1.3.2.4.2.5.2 1-.1 1-.1 0-.1-.2-.1-.5-.2.6.1 1 0 1.1-.1 0-.1-.1-.1-.7-.2 1.2.2 2.2-.5 2.2-.5s.3-.1-.2-.1c3.4-.4 4-1.9 4-1.9-.1 0-.7.4-1.5.7 1.5-.7 2.2-1.6 2.2-1.7-.1-.8-.6-.5-1.3-.2Zm-19.4.7c.3-.1.6-.1.5-.1 0 0-.3.1-.5.1zM37 21.9c.7.3 2 .7 1.9.7.1.1-1.1-.4-1.9-.7zm11.7 3c-.1-.1-.2-.3-.2-.3 0 .1.1.2.2.3zm6.5-.9c-1 .3-2.2.4-3.7 0 1.5.3 2.7.2 3.7 0zm.6-1c-.2.1-.4.2-.6.2.2 0 .4-.1.6-.2zm-9.6 3.4v-.3zm1.6 1.5s-.4 0-.7.1c-.1 0-.3-.1-.4-.2-.1-.1 0-.7 0-.7l.3.3c0-.3 0-.3-.1-.5 0-.3.1-.8.1-1.4.5.9.7 1.3.6 2 .1 0 .1-.1.2-.2v.5c.1 0 0 0 0 .1zm.3-2.7c.1.1.1.1 0 0zm7.4-1.3c.1 0 .1 0 .2-.1-.1.1-.1.1-.2.1zM46.2 27.5z" style="fill:#e37700;fill-opacity:1" transform="matrix(.93868 0 0 .93868 32.526 212.74)"/></g></svg>