<svg width="80" height="80" viewBox="0 0 21.167 21.167" xml:space="preserve" xmlns="http://www.w3.org/2000/svg"><g transform="matrix(.04167 0 0 .04167 -7.71 -9.927)"><circle style="fill:#188200;fill-opacity:1" cx="439.027" cy="492.254" r="254"/><path style="fill:#324a5e" d="M502.227 638.254c25.6-88.4 42-204 42-238v-5.2c-2.4-54.4-48.8-96.4-103.2-96.4h-4c-54.4 0-100.4 42-103.2 96.4v5.2c0 34 16.4 149.2 42 238z"/><path style="fill:#ffd05b" transform="translate(185.027 238.254)" d="M304 299.2H204L144.8 406h218.4z"/><path style="fill:#ff7058" d="M484.227 627.454s-17.6 90-38.4 118.8h-10.4c-11.6-22.4-47.2-92-41.6-118.8 0 0 35.6 25.2 90.4 0z"/><path style="fill:#f9b54c" d="M489.827 539.054c-.4-.4-.4-1.2-.8-1.6 0 0-.8 4.4-6 10.8-22.4 28-65.6 28-88 0-5.2-6.4-6-10.8-6-10.8-.4.4-.4.8-.8 1.2 2-3.2 2.8-6.8 3.2-10.8l1.2-14.8 3.2-45.2h86.4l4.4 60c.4 3.2 1.2 6.4 2.4 9.2.4.8.4 1.6.8 2z"/><path style="fill:#e6e9ee" d="M246.4 508c-4.4 0-8.4-.4-12.8-.8-70.8-5.6-133.2-40-176-92 21.2-41.2 51.2-44.8 51.2-44.8 55.2-26.4 88.4-64 90.4-66.4l-12 26 23.6 101.6zM450 415.2c-16.8 20.4-36.8 38.4-59.2 52.8-37.6 24-81.6 38.4-129.2 40l35.2-76.4 24-101.6-12.8-26c2 2.4 36 40 91.2 66.4 0 0 1.2 0 3.2.8 8.8 2.4 31.2 11.2 47.6 44z" transform="translate(185.027 238.254)"/><path style="fill:#fff" d="M211.6 396s21.2 60.4 40 112c-6 0-12-.4-17.6-.8-15.6-22.4-32.8-45.6-55.2-57.6l7.2-36.8h-36c14.8-66.4 51.6-111.2 54-113.2-1.2 2.4-19.2 38 7.6 96.4zM322.4 412.8l7.2 36.8c-22.4 12-39.6 35.2-55.2 57.6-4 .4-8.4.4-12.4.8h-5.2c18.8-51.6 39.6-112 39.6-112 26.8-58.4 8.8-94 7.6-96.4 2.4 2 39.2 46.8 54 113.2z" transform="translate(185.027 238.254)"/><path style="fill:#ffd05b" d="M339.2 172.4c0 58.4-38 131.6-85.2 131.6s-85.2-73.2-85.2-131.6c0-58.4 38-79.6 85.2-79.6s85.2 21.6 85.2 79.6z" transform="translate(185.027 238.254)"/><path style="fill:#ffd05b" d="M351.2 207.2c-6 13.2-16.4 20.8-23.6 17.2-7.2-4-8-17.6-2-31.2 6-13.2 16.4-20.8 23.6-17.2 6.8 4 7.6 18 2 31.2z" transform="translate(185.027 238.254)"/><path style="fill:#324a5e" d="M318.8 114s-19.2 39.6 20.4 63.2l6.8-22-14.8-43.2-7.6-9.2z" transform="translate(185.027 238.254)"/><path style="fill:#324a5e" d="M328 105.2s-10.8 36-86.8 64.8c-27.6 10.4-48.4 34.4-55.2 63.2-3.2 14-6 30-7.2 47.2l-15.6-51.2-5.2-80.8 18-45.2L228 92Z" transform="translate(185.027 238.254)"/><path style="fill:#324a5e" d="M243.2 74.4 302 82l8.4 17.6-40 20.8-44.8-20.8zM290.8 347.2h-66.4c-1.6 0-3.2 1.6-2.8 3.2v20.4c0 1.6 1.2 3.2 3.2 3.2h66c1.6 0 3.2-1.6 3.2-3.2l.4-20.4c-.4-1.6-2-3.2-3.6-3.2z" transform="translate(185.027 238.254)"/><path style="fill:#ff7058" d="m535.027 606.654-3.6 124.8c-22 7.2-45.2 12-69.2 14-4.8.4-9.6.8-14.8.8h-17.2c-4.8 0-10-.4-14.8-.8-24-2-47.2-6.8-69.2-14l-3.2-124.8c0-4 2.8-7.2 6.4-7.2h179.2c3.6 0 6.8 3.2 6.4 7.2z"/><path style="fill:#f1543f" d="M284 374.4c0 2.8-2.4 5.2-4.8 5.2-2.8 0-4.8-2.4-4.8-5.2 0-2.8 2.4-5.2 4.8-5.2 2.8 0 4.8 2.4 4.8 5.2zM240.8 374.4c0 2.8-2 5.2-4.8 5.2s-4.8-2.4-4.8-5.2c0-2.8 2-5.2 4.8-5.2s4.8 2.4 4.8 5.2z" transform="translate(185.027 238.254)"/><path style="fill:#2b3b4e" d="M455.027 497.854v-3.6c63.2-1.2 66-47.2 66-48h3.6c-.4 1.2-2.8 50.8-69.6 51.6z"/><path style="fill:#324a5e" d="M337.6 214.4c-4.8 0-8.4-3.6-8.4-8.4v-17.6c0-4.8 3.6-8.4 8.4-8.4 4.8 0 8.4 3.6 8.4 8.4V206c0 4.8-3.6 8.4-8.4 8.4zM283.2 262h-18.8c-2.8 0-4.8-2-4.8-4.8s2-4.8 4.8-4.8h18.8c2.8 0 4.8 2 4.8 4.8 0 2.4-2.4 4.8-4.8 4.8zM359.2 156.8s-12.4 169.6 26 174c0 0-17.6 43.2-53.6 2-1.2-1.2-1.6-2.8-2-4.4v-.4c-5.6-24-2.8-48.8 7.6-70.8l16.4-34.4 2.4-47.6zM148.8 156.8s12.4 169.6-26 174c0 0 17.6 43.2 53.6 2 1.2-1.2 1.6-2.8 2-4.4v-.4c5.6-24 2.8-48.8-7.6-70.8l-16.4-34.4-2.4-47.6Z" transform="translate(185.027 238.254)"/><path style="fill:#324a5e" d="m338 290.4-8.8-14.8-24.4 19.2s10.8 29.6 34.8 46.4l7.2-25.6c-5.6-7.6-8.4-16.4-8.8-25.2zM169.6 290.4l8.8-14.8 25.6 19.2s-12 29.6-35.6 46.4l-7.2-25.6c5.6-7.6 8.4-16.4 8.4-25.2z" transform="translate(185.027 238.254)"/></g></svg>
