<svg width="240" height="80" viewBox="0 0 63.5 21.167" xml:space="preserve" xmlns="http://www.w3.org/2000/svg"><path data-name="Path 20" d="M0 12.18a8.986 8.986 0 1 1 8.986 8.987A8.986 8.986 0 0 1 0 12.18z" fill="#59d999"/><g data-name="Group 13" fill="#293a56"><path data-name="Path 21" d="M11.362 8.586a.6.6 0 0 0-1.198 0 3.954 3.954 0 1 1-7.908 0 .6.6 0 0 0-1.198 0 5.159 5.159 0 0 0 4.553 5.117v1.074H3.514a.6.6 0 0 0 0 1.198h5.392a.6.6 0 0 0 0-1.198H6.809v-1.074a5.159 5.159 0 0 0 4.553-5.117z"/><path data-name="Path 22" d="M6.21 11.781a3.399 3.399 0 0 0 3.395-3.394V3.395a3.395 3.395 0 0 0-6.79 0v4.992A3.399 3.399 0 0 0 6.21 11.78zM4.014 3.395a2.197 2.197 0 0 1 4.393 0v4.992a2.197 2.197 0 1 1-4.393 0z"/><path data-name="Path 23" d="M6.21 4.593a.6.6 0 0 0 .424-1.023.619.619 0 0 0-.847 0 .6.6 0 0 0 .423 1.023z"/><path data-name="Path 24" d="M6.21 6.69a.6.6 0 0 0 .424-1.023.619.619 0 0 0-.847 0A.6.6 0 0 0 6.21 6.69z"/><path data-name="Path 25" d="M6.21 8.786a.6.6 0 0 0 .424-1.022.619.619 0 0 0-.847 0 .6.6 0 0 0 .423 1.022z"/></g><g aria-label="Podcast" style="font-weight:700;font-size:15.8553px;-inkscape-font-specification:'sans-serif Bold';text-align:end;text-anchor:end;fill:#293a56;stroke-width:1.32128"><path d="M12.018 9.957q.666-.127 1.458-.19.809-.08 1.602-.08.824 0 1.649.143.84.127 1.506.54.666.396 1.078 1.125.428.714.428 1.871 0 1.047-.364 1.776-.365.713-.968 1.173-.602.46-1.379.666-.761.206-1.586.206h-.618l-.38-.031q-.175-.016-.254-.032v3.821h-2.172Zm3.234 1.602q-.317 0-.602.031-.286.016-.46.048v3.6q.063.015.19.03.127.017.27.033h.475q.428 0 .84-.08.429-.079.762-.285.333-.222.523-.603.206-.38.206-.999 0-.523-.19-.856-.19-.349-.508-.555-.3-.206-.697-.285-.397-.08-.809-.08zM20.088 16.981q0-2.013.983-3.092.983-1.094 2.759-1.094.951 0 1.649.302.697.3 1.157.856.46.539.682 1.316.238.777.238 1.712 0 2.014-.983 3.108-.967 1.078-2.743 1.078-.951 0-1.65-.301-.697-.302-1.172-.84-.46-.556-.698-1.332-.222-.777-.222-1.713zm2.125 0q0 .523.095.967.095.444.285.777.19.333.492.523.317.175.745.175.808 0 1.205-.587.396-.586.396-1.855 0-1.094-.364-1.76-.365-.682-1.237-.682-.761 0-1.19.571-.427.571-.427 1.871zM35.721 18.154q0 .666.016 1.332t.143 1.475h-1.475l-.285-1.03h-.063q-.318.554-.92.903-.587.333-1.395.333-1.49 0-2.315-.983t-.825-3.076q0-2.03.92-3.155.92-1.126 2.695-1.126.492 0 .809.064.317.047.634.174V9.846h2.061zm-3.504 1.269q.603 0 .952-.286.348-.3.491-.856V14.92q-.222-.174-.491-.254-.27-.095-.698-.095-.872 0-1.316.587-.428.586-.428 2.013 0 1.015.349 1.634.364.618 1.141.618zM43.142 20.453q-.476.35-1.158.524-.666.19-1.38.19-.95 0-1.616-.301-.65-.302-1.063-.84-.412-.556-.602-1.332-.175-.777-.175-1.713 0-2.013.904-3.092.904-1.094 2.632-1.094.872 0 1.395.143.54.143.967.365l-.491 1.68q-.365-.174-.73-.27-.348-.094-.808-.094-.856 0-1.3.57-.444.555-.444 1.792 0 .508.11.936.112.428.334.745.222.317.57.507.365.175.841.175.523 0 .888-.127.365-.143.65-.333zM44.347 13.477q.634-.285 1.506-.444.872-.174 1.823-.174.825 0 1.38.206.555.19.872.555.333.365.46.872.142.507.142 1.141 0 .698-.047 1.412-.048.697-.064 1.379 0 .682.048 1.332.047.634.238 1.205h-1.681l-.333-1.094h-.08q-.316.491-.887.856-.555.349-1.443.349-.555 0-.999-.159-.444-.174-.761-.475-.317-.317-.492-.73-.174-.428-.174-.951 0-.73.317-1.22.333-.508.936-.81.618-.317 1.458-.428.857-.126 1.903-.079.11-.888-.127-1.268-.238-.397-1.062-.397-.619 0-1.316.127-.682.127-1.126.333zm2.616 5.898q.618 0 .983-.27.364-.285.539-.602v-1.03q-.492-.048-.952-.016-.443.032-.792.143-.35.11-.555.317-.206.206-.206.523 0 .444.253.698.27.237.73.237zM55.54 18.757q0-.317-.27-.507-.269-.19-.665-.35-.396-.158-.872-.316-.476-.175-.872-.46-.397-.301-.666-.745-.27-.46-.27-1.174 0-1.173.698-1.791.698-.619 2.014-.619.903 0 1.633.19t1.141.429l-.46 1.49q-.364-.143-.92-.301-.554-.159-1.125-.159-.92 0-.92.714 0 .285.27.46.27.174.666.333.396.142.872.317.476.174.872.46.397.269.666.713.27.444.27 1.142 0 1.205-.777 1.902-.761.682-2.3.682-.84 0-1.585-.222-.73-.206-1.189-.492l.57-1.537q.365.206.968.412.602.19 1.237.19.46 0 .729-.174.285-.175.285-.587zM58.125 13.017h1.094v-1.49l2.061-.587v2.077h1.934v1.744H61.28v3.045q0 .824.159 1.189.174.349.634.349.317 0 .539-.064.238-.063.523-.19l.365 1.585q-.428.207-1 .35-.57.142-1.157.142-1.094 0-1.617-.555-.507-.57-.507-1.855v-3.996h-1.094z" style="font-family:'PT Sans';-inkscape-font-specification:'PT Sans Bold'"/></g></svg>
